<svg width="135" height="31" viewBox="0 0 135 31" fill="none" xmlns="http://www.w3.org/2000/svg">
<path d="M36.58 22.6415H34.9153L38.6455 13.8376H40.4026L44.1945 22.6415H42.4373L41.4508 20.2235H38.553L39.1079 18.7975H40.8651L39.4778 15.4805L36.58 22.6415Z" fill="#545554"/>
<path d="M45.3659 22.6415V16.1625H46.6298L46.8456 17.1235C47.4622 16.5035 48.1712 16.1625 48.9419 16.1625C50.4525 16.1625 51.2232 16.9685 51.2232 18.5495V22.6415H49.5893V18.5495C49.5893 17.8365 49.2502 17.4645 48.5412 17.4645C48.0171 17.4645 47.493 17.6815 46.9998 18.0845V22.6105H45.3659V22.6415Z" fill="#545554"/>
<path d="M52.7029 20.6265C52.7029 19.3555 53.6278 18.7045 55.5083 18.7045C55.9399 18.7045 56.3715 18.7355 56.8339 18.8285V18.3325C56.8339 17.7435 56.4331 17.4645 55.6008 17.4645C54.8917 17.4645 54.121 17.5575 53.2578 17.7745V16.4725C54.121 16.2555 54.8917 16.1625 55.6008 16.1625C57.5121 16.1625 58.4678 16.8755 58.4678 18.3015V22.6415H57.5121L56.9264 22.0525C56.3715 22.4245 55.7549 22.6415 55.0767 22.6415C53.4736 22.6415 52.7029 21.9595 52.7029 20.6265ZM55.4774 19.8205C54.7068 19.8205 54.306 20.0995 54.306 20.6265C54.306 21.2155 54.6451 21.4945 55.2925 21.4945C55.8166 21.4945 56.3406 21.3395 56.8031 20.9985V19.9755C56.4023 19.8515 55.9707 19.8205 55.4774 19.8205Z" fill="#545554"/>
<path d="M61.828 13.8376V22.6415H60.1941V13.8376H61.828Z" fill="#545554"/>
<path d="M62.8453 16.1625H64.5717L66.2056 20.8125L67.7778 16.1625H69.4733L66.7913 22.8275C66.3289 24.0054 65.5582 24.8424 64.51 25.3384L63.7393 24.2224C64.4484 23.9124 64.9725 23.3854 65.3116 22.6725L62.8453 16.1625Z" fill="#545554"/>
<path d="M70.3981 15.1395H71.6004L71.847 16.1935H73.4501V17.4955H72.0012V20.4715C72.0012 21.0605 72.2478 21.3705 72.7719 21.3705H73.4193V22.6725H71.9704C70.8914 22.6725 70.3673 22.0835 70.3673 20.9365V15.1395H70.3981Z" fill="#545554"/>
<path d="M76.4404 13.8376V15.1395H74.8065V13.8376H76.4404ZM76.4404 16.1625V22.6415H74.8065V16.1625H76.4404Z" fill="#545554"/>
<path d="M82.9759 22.4555C82.4518 22.5795 81.8969 22.6415 81.3112 22.6415C79.0299 22.6415 77.8893 21.5255 77.8893 19.2935C77.8893 17.2165 79.0299 16.1935 81.3112 16.1935C81.8969 16.1935 82.421 16.2555 82.9759 16.3795V17.6815C82.4518 17.5575 81.9277 17.4955 81.4345 17.4955C80.1397 17.4955 79.4923 18.1155 79.4923 19.3245C79.4923 20.6885 80.1397 21.4015 81.4345 21.4015C81.9277 21.4015 82.421 21.3395 82.9759 21.2155V22.4555Z" fill="#545554"/>
<path d="M84.3015 22.3315V20.9675C85.0105 21.2465 85.8429 21.4015 86.7677 21.4015C87.4768 21.4015 87.8159 21.1845 87.8159 20.7195C87.8159 20.2855 87.5693 20.0685 87.1068 20.0685H85.9354C84.6406 20.0685 83.9624 19.4175 83.9624 18.1155C83.9624 16.7515 84.9181 16.0695 86.8294 16.0695C87.6309 16.0695 88.4016 16.1935 89.1106 16.4415V17.8055C88.4016 17.5265 87.6309 17.3715 86.7677 17.3715C85.8737 17.3715 85.4421 17.5885 85.4421 18.0535C85.4421 18.4875 85.6888 18.7045 86.2128 18.7045H87.261C88.6791 18.7045 89.4189 19.3555 89.4189 20.6575C89.4189 22.0215 88.4941 22.7035 86.6752 22.7035C85.8121 22.7035 85.0105 22.5795 84.3015 22.3315Z" fill="#545554"/>
<path d="M102.336 13.8376L98.4823 22.6415H96.7251L93.0566 13.8376H94.9987L97.7116 20.5955L100.424 13.8376H102.336Z" fill="#545554"/>
<path d="M104.987 13.8376V15.1395H103.353V13.8376H104.987ZM104.987 16.1625V22.6415H103.353V16.1625H104.987Z" fill="#545554"/>
<path d="M112.478 22.2695C111.492 22.5175 110.536 22.6725 109.58 22.6725C107.515 22.6725 106.467 21.5565 106.467 19.2935C106.467 17.2165 107.484 16.1935 109.519 16.1935C109.95 16.1935 110.382 16.2865 110.844 16.5035V13.8686H112.478V22.2695ZM110.844 17.8675C110.505 17.6505 110.074 17.5265 109.58 17.5265C108.563 17.5265 108.07 18.0845 108.07 19.2315C108.07 20.5955 108.594 21.2465 109.642 21.2465C110.074 21.2465 110.474 21.1845 110.844 21.0605V17.8675Z" fill="#545554"/>
<path d="M114.266 22.6415V13.8376H115.9V16.9995C116.393 16.4415 117.041 16.1625 117.842 16.1625C119.353 16.1625 120.123 16.9685 120.123 18.5495V22.6415H118.49V18.5495C118.49 17.8365 118.15 17.4645 117.441 17.4645C116.917 17.4645 116.393 17.6815 115.9 18.0845V22.6104H114.266V22.6415Z" fill="#545554"/>
<path d="M121.141 16.1625H122.867L124.501 20.8125L126.073 16.1625H127.769L125.087 22.8275C124.624 24.0054 123.854 24.8424 122.805 25.3384L122.035 24.2224C122.744 23.9124 123.268 23.3854 123.607 22.6725L121.141 16.1625Z" fill="#545554"/>
<path d="M128.478 20.6265C128.478 19.3555 129.403 18.7045 131.283 18.7045C131.715 18.7045 132.146 18.7355 132.609 18.8285V18.3325C132.609 17.7435 132.208 17.4645 131.376 17.4645C130.667 17.4645 129.896 17.5575 129.033 17.7745V16.4725C129.896 16.2555 130.667 16.1625 131.376 16.1625C133.287 16.1625 134.243 16.8755 134.243 18.3015V22.6415H133.287L132.701 22.0525C132.146 22.4245 131.53 22.6415 130.852 22.6415C129.248 22.6415 128.478 21.9595 128.478 20.6265ZM131.252 19.8205C130.482 19.8205 130.081 20.0995 130.081 20.6265C130.081 21.2155 130.42 21.4945 131.067 21.4945C131.591 21.4945 132.115 21.3395 132.578 20.9985V19.9755C132.146 19.8515 131.715 19.8205 131.252 19.8205Z" fill="#545554"/>
<path d="M35.1927 26.1754V29.7094H37.3507V29.9574H34.9153V26.1754H35.1927Z" fill="#545554"/>
<path d="M39.2003 27.1984C39.9402 27.1984 40.341 27.6324 40.341 28.4694C40.341 28.5314 40.341 28.5934 40.341 28.6554H38.2447C38.2447 29.3684 38.6146 29.7404 39.3853 29.7404C39.6936 29.7404 39.971 29.7094 40.2177 29.6164V29.8643C39.971 29.9573 39.6936 29.9883 39.3853 29.9883C38.4296 29.9883 37.9672 29.5234 37.9672 28.5624C37.9672 27.6324 38.368 27.1984 39.2003 27.1984ZM38.2138 28.3764H40.0327C40.0327 27.7254 39.7244 27.4154 39.1695 27.4154C38.5838 27.4154 38.2447 27.7564 38.2138 28.3764Z" fill="#545554"/>
<path d="M41.0192 29.1824C41.0192 28.6244 41.3892 28.3454 42.0982 28.3454C42.3448 28.3454 42.6223 28.3764 42.9306 28.4074V28.0664C42.9306 27.6324 42.6531 27.4464 42.129 27.4464C41.8208 27.4464 41.5433 27.4774 41.235 27.5704V27.3224C41.5433 27.2294 41.8208 27.1984 42.129 27.1984C42.8381 27.1984 43.208 27.4774 43.208 28.0664V29.9883H43.0539L42.9922 29.7094C42.6531 29.8953 42.314 29.9883 42.0057 29.9883C41.3583 29.9573 41.0192 29.7094 41.0192 29.1824ZM42.129 28.5934C41.5741 28.5934 41.3275 28.7794 41.3275 29.1824C41.3275 29.5544 41.5433 29.7404 42.0057 29.7404C42.3448 29.7404 42.6531 29.6474 42.9614 29.4614V28.6554C42.6531 28.5934 42.3757 28.5934 42.129 28.5934Z" fill="#545554"/>
<path d="M44.2253 29.9574V27.1984H44.4102L44.4411 27.6634C44.7185 27.3534 45.0268 27.1984 45.3659 27.1984V27.4154C45.0268 27.4154 44.7494 27.5704 44.5027 27.9114V29.9883H44.2253V29.9574Z" fill="#545554"/>
<path d="M46.0441 29.9574V27.1984H46.2291L46.2599 27.5394C46.599 27.2914 46.969 27.1984 47.3081 27.1984C47.9863 27.1984 48.3254 27.4774 48.3254 28.0664V29.9574H48.0479V28.0664C48.0479 27.6634 47.8013 27.4464 47.3081 27.4464C46.969 27.4464 46.6607 27.5704 46.3216 27.7874V29.9574H46.0441Z" fill="#545554"/>
<path d="M51.9014 27.1984C52.6413 27.1984 53.0421 27.6324 53.0421 28.4694C53.0421 28.5314 53.0421 28.5934 53.0421 28.6554H50.9458C50.9458 29.3684 51.3157 29.7404 52.0864 29.7404C52.3947 29.7404 52.6721 29.7094 52.9188 29.6164V29.8643C52.6721 29.9573 52.3947 29.9883 52.0864 29.9883C51.1307 29.9883 50.6683 29.5234 50.6683 28.5624C50.6683 27.6324 51.0691 27.1984 51.9014 27.1984ZM50.9458 28.3764H52.7646C52.7646 27.7254 52.4563 27.4154 51.9014 27.4154C51.2849 27.4154 50.9766 27.7564 50.9458 28.3764Z" fill="#545554"/>
<path d="M53.5045 27.1984H53.8127L54.8301 29.7404L55.8474 27.1984H56.1557L54.9842 29.9574H54.6759L53.5045 27.1984Z" fill="#545554"/>
<path d="M57.8512 27.1984C58.5911 27.1984 58.9919 27.6324 58.9919 28.4694C58.9919 28.5314 58.9919 28.5934 58.9919 28.6554H56.8956C56.8956 29.3684 57.2655 29.7404 58.0362 29.7404C58.3445 29.7404 58.6219 29.7094 58.8685 29.6164V29.8643C58.6219 29.9573 58.3445 29.9883 58.0362 29.9883C57.0805 29.9883 56.6181 29.5234 56.6181 28.5624C56.6181 27.6324 57.0497 27.1984 57.8512 27.1984ZM56.8956 28.3764H58.7144C58.7144 27.7254 58.4061 27.4154 57.8512 27.4154C57.2655 27.4154 56.9264 27.7564 56.8956 28.3764Z" fill="#545554"/>
<path d="M59.855 29.9574V27.1984H60.0399L60.0708 27.6634C60.3482 27.3534 60.6565 27.1984 60.9956 27.1984V27.4154C60.6565 27.4154 60.3791 27.5704 60.1324 27.9114V29.9883H59.855V29.9574Z" fill="#545554"/>
<path d="M61.3655 27.1984H61.6738L62.6911 29.7094L63.7085 27.1984H64.0167L62.8145 30.0503C62.5987 30.5463 62.3212 30.8563 61.8896 30.9803L61.7971 30.7633C62.1054 30.6393 62.352 30.3913 62.537 30.0193L61.3655 27.1984Z" fill="#545554"/>
<path d="M64.6642 26.7334H64.8492L64.9108 27.1674H65.7432V27.4154H64.9416V29.1514C64.9416 29.5234 65.0649 29.7093 65.3424 29.7093H65.7432V29.9574H65.3424C64.88 29.9574 64.6642 29.7093 64.6642 29.2134V26.7334Z" fill="#545554"/>
<path d="M66.483 29.9574V26.1754H66.7604V27.4774C67.0687 27.2914 67.4078 27.1674 67.7469 27.1674C68.4251 27.1674 68.7642 27.5084 68.7642 28.1904V29.9264H68.4868V28.0664C68.4868 27.6324 68.2402 27.3844 67.7469 27.3844C67.4078 27.3844 67.0995 27.5084 66.7604 27.7254V29.8954H66.483V29.9574Z" fill="#545554"/>
<path d="M70.1207 26.1754V26.4854H69.7816V26.1754H70.1207ZM70.0899 27.1984V29.9574H69.8124V27.1984H70.0899Z" fill="#545554"/>
<path d="M71.138 29.9574V27.1984H71.323L71.3538 27.5394C71.6929 27.2914 72.0628 27.1984 72.3711 27.1984C73.0493 27.1984 73.3884 27.4774 73.3884 28.0664V29.9574H73.111V28.0664C73.111 27.6634 72.8644 27.4464 72.3711 27.4464C72.032 27.4464 71.7237 27.5704 71.3846 27.7874V29.9574H71.138Z" fill="#545554"/>
<path d="M76.687 29.9574C76.687 30.6393 76.2862 30.9493 75.4847 30.9493C75.1456 30.9493 74.8373 30.9183 74.5907 30.8253V30.5773C74.8681 30.6703 75.1456 30.7013 75.4847 30.7013C76.1013 30.7013 76.4095 30.4533 76.4095 29.9264V29.8024C76.1013 29.8954 75.8238 29.9264 75.5772 29.9264C74.714 29.9264 74.2824 29.4614 74.2824 28.5314C74.2824 27.6324 74.7448 27.1674 75.6697 27.1674C76.0396 27.1674 76.3479 27.1984 76.6562 27.2914V29.9574H76.687ZM76.4095 27.5084C76.1629 27.4774 75.9163 27.4464 75.6697 27.4464C74.9298 27.4464 74.5599 27.8184 74.5599 28.5624C74.5599 29.3374 74.899 29.7094 75.608 29.7094C75.8546 29.7094 76.1321 29.6474 76.4404 29.5544V27.5084H76.4095Z" fill="#545554"/>
<path d="M78.9991 29.1824C78.9991 28.6244 79.369 28.3454 80.0781 28.3454C80.3247 28.3454 80.6021 28.3764 80.9104 28.4074V28.0664C80.9104 27.6324 80.633 27.4464 80.1089 27.4464C79.8006 27.4464 79.5232 27.4774 79.2149 27.5704V27.3224C79.5232 27.2294 79.8006 27.1984 80.1089 27.1984C80.8179 27.1984 81.1879 27.4774 81.1879 28.0664V29.9883H81.0337L80.9721 29.7094C80.633 29.8953 80.2938 29.9883 79.9856 29.9883C79.3074 29.9573 78.9991 29.7094 78.9991 29.1824ZM80.0781 28.5934C79.5232 28.5934 79.2765 28.7794 79.2765 29.1824C79.2765 29.5544 79.4923 29.7404 79.9547 29.7404C80.2939 29.7404 80.6021 29.6474 80.9104 29.4614V28.6554C80.6021 28.5934 80.3247 28.5934 80.0781 28.5934Z" fill="#545554"/>
<path d="M82.1744 26.1754H82.4518V27.3224C82.7909 27.2294 83.0684 27.1984 83.315 27.1984C84.1474 27.1984 84.579 27.6324 84.579 28.5314C84.579 29.4924 84.1474 29.9574 83.2534 29.9574C82.8526 29.9574 82.5135 29.9263 82.2052 29.8334V26.1754H82.1744ZM82.4518 29.6474C82.7293 29.7094 82.9759 29.7094 83.2225 29.7094C83.9316 29.7094 84.3015 29.3064 84.3015 28.5004C84.3015 27.7874 83.9624 27.4464 83.315 27.4464C83.0684 27.4464 82.7909 27.5084 82.4518 27.6014V29.6474Z" fill="#545554"/>
<path d="M85.288 28.5624C85.288 27.6324 85.7196 27.1674 86.5827 27.1674C87.4459 27.1674 87.8775 27.6324 87.8775 28.5624C87.8775 29.4924 87.4459 29.9574 86.5827 29.9574C85.7196 29.9884 85.288 29.5234 85.288 28.5624ZM86.5827 29.7404C87.2609 29.7404 87.6001 29.3374 87.6001 28.5624C87.6001 27.7874 87.2609 27.4154 86.5827 27.4154C85.9045 27.4154 85.5654 27.8184 85.5654 28.5624C85.5654 29.3374 85.9045 29.7404 86.5827 29.7404Z" fill="#545554"/>
<path d="M90.9911 27.1984V29.9574H90.7753L90.7445 29.6164C90.4362 29.8644 90.0663 29.9574 89.6963 29.9574C89.0489 29.9574 88.7098 29.6164 88.7098 28.9344V27.1984H88.9873V28.9344C88.9873 29.4614 89.2339 29.7094 89.6963 29.7094C90.0354 29.7094 90.3745 29.5854 90.7136 29.3684V27.1984H90.9911Z" fill="#545554"/>
<path d="M91.9777 26.7334H92.1626L92.2243 27.1674H93.0566V27.4154H92.2551V29.1514C92.2551 29.5234 92.3784 29.7093 92.6559 29.7093H93.0566V29.9574H92.6559C92.1935 29.9574 91.9777 29.7093 91.9777 29.2134V26.7334Z" fill="#545554"/>
<path d="M95.1221 29.1824C95.1221 28.6244 95.492 28.3454 96.201 28.3454C96.4477 28.3454 96.7251 28.3764 97.0334 28.4074V28.0664C97.0334 27.6324 96.7559 27.4464 96.2319 27.4464C95.9236 27.4464 95.6461 27.4774 95.3379 27.5704V27.3224C95.6461 27.2294 95.9236 27.1984 96.2319 27.1984C96.9409 27.1984 97.3108 27.4774 97.3108 28.0664V29.9883H97.1567L97.0951 29.7094C96.7559 29.8953 96.4168 29.9883 96.1086 29.9883C95.4304 29.9573 95.1221 29.7094 95.1221 29.1824ZM96.201 28.5934C95.6461 28.5934 95.3995 28.7794 95.3995 29.1824C95.3995 29.5544 95.6153 29.7404 96.0777 29.7404C96.4168 29.7404 96.7251 29.6474 97.0334 29.4614V28.6554C96.7251 28.5934 96.4477 28.5934 96.201 28.5934Z" fill="#545554"/>
<path d="M98.2974 29.9574V27.1984H98.4823L98.5132 27.5394C98.8523 27.2914 99.2222 27.1984 99.5305 27.1984C100.209 27.1984 100.548 27.4774 100.548 28.0664V29.9574H100.27V28.0664C100.27 27.6634 100.024 27.4464 99.5305 27.4464C99.1914 27.4464 98.8831 27.5704 98.544 27.7874V29.9574H98.2974Z" fill="#545554"/>
<path d="M101.411 29.1824C101.411 28.6244 101.781 28.3454 102.49 28.3454C102.737 28.3454 103.014 28.3764 103.322 28.4074V28.0664C103.322 27.6324 103.045 27.4464 102.521 27.4464C102.212 27.4464 101.935 27.4774 101.627 27.5704V27.3224C101.935 27.2294 102.212 27.1984 102.521 27.1984C103.23 27.1984 103.6 27.4774 103.6 28.0664V29.9883H103.446L103.384 29.7094C103.045 29.8953 102.706 29.9883 102.397 29.9883C101.719 29.9573 101.411 29.7094 101.411 29.1824ZM102.49 28.5934C101.935 28.5934 101.688 28.7794 101.688 29.1824C101.688 29.5544 101.904 29.7404 102.367 29.7404C102.706 29.7404 103.014 29.6474 103.322 29.4614V28.6554C103.045 28.5934 102.767 28.5934 102.49 28.5934Z" fill="#545554"/>
<path d="M104.925 26.1754V29.9574H104.648V26.1754H104.925Z" fill="#545554"/>
<path d="M105.665 27.1984H105.973L106.991 29.7094L108.008 27.1984H108.316L107.114 30.0503C106.898 30.5463 106.621 30.8563 106.189 30.9803L106.097 30.7633C106.405 30.6393 106.652 30.3913 106.837 30.0193L105.665 27.1984Z" fill="#545554"/>
<path d="M108.964 26.7334H109.149L109.21 27.1674H110.043V27.4154H109.241V29.1514C109.241 29.5234 109.365 29.7093 109.642 29.7093H110.043V29.9574H109.642C109.18 29.9574 108.964 29.7093 108.964 29.2134V26.7334Z" fill="#545554"/>
<path d="M111.122 26.1754V26.4854H110.783V26.1754H111.122ZM111.122 27.1984V29.9574H110.844V27.1984H111.122Z" fill="#545554"/>
<path d="M114.143 29.8643C113.927 29.9263 113.68 29.9574 113.403 29.9574C112.478 29.9574 112.016 29.4924 112.016 28.5314C112.016 27.6324 112.478 27.1984 113.403 27.1984C113.68 27.1984 113.896 27.2294 114.143 27.2914V27.5394C113.896 27.4774 113.65 27.4464 113.434 27.4464C112.694 27.4464 112.324 27.8184 112.324 28.5314C112.324 29.3374 112.694 29.7404 113.434 29.7404C113.65 29.7404 113.896 29.7094 114.143 29.6474V29.8643Z" fill="#545554"/>
<path d="M114.914 29.8333V29.5544C115.222 29.6474 115.53 29.7094 115.808 29.7094C116.393 29.7094 116.671 29.5234 116.671 29.1514C116.671 28.8414 116.455 28.7174 116.023 28.7174H115.684C115.098 28.7174 114.821 28.4694 114.821 27.9734C114.821 27.4464 115.191 27.1674 115.962 27.1674C116.27 27.1674 116.547 27.1984 116.856 27.2914V27.5704C116.547 27.4774 116.239 27.4154 115.962 27.4154C115.376 27.4154 115.099 27.6014 115.099 27.9734C115.099 28.2834 115.283 28.4384 115.684 28.4384H116.023C116.64 28.4384 116.948 28.6864 116.948 29.1514C116.948 29.6784 116.578 29.9574 115.808 29.9574C115.499 29.9574 115.222 29.9263 114.914 29.8333Z" fill="#545554"/>
<path d="M0.0489868 30.3294C-0.0743246 30.5464 0.0489859 30.8254 0.264781 30.9493C0.326436 30.9803 0.388094 30.9804 0.44975 30.9804C0.634717 30.9804 0.788857 30.8874 0.850513 30.7014C0.850513 30.7014 7.07774 17.7435 7.44767 17.0615C7.84843 16.3485 8.28002 16.0075 8.86575 16.8445C9.51314 17.7435 15.2779 26.8884 17.4667 30.1744C18.2066 31.2593 19.1314 31.3833 20.1179 29.7094C23.8173 23.5094 34.9153 4.84767 34.9153 4.84767L35.7168 9.74561C35.8093 10.3346 36.3025 10.7376 36.8883 10.7066C36.9499 10.7066 36.9807 10.7066 37.0424 10.7066C37.659 10.6136 38.0905 10.0246 37.9981 9.37361L36.6416 0.972715C36.58 0.662719 36.395 0.383722 36.1484 0.197725C35.8709 0.011727 35.5627 -0.0502723 35.2236 0.0427266L26.8384 2.1197C26.2218 2.2747 25.8519 2.89469 26.006 3.51468C26.1602 4.13468 26.7767 4.50668 27.3933 4.35168L31.9558 3.20469C31.9558 3.20469 22.9232 22.2695 19.2239 28.2214C18.854 28.8104 18.2682 29.0274 17.59 27.8184C17.2201 27.1674 9.05072 14.4576 9.05072 14.4576C8.5883 13.7446 7.97174 13.3416 7.32436 14.6745L0.0489868 30.3294Z" fill="#545554"/>
</svg>
