<svg width="398" height="95" viewBox="0 0 398 95" fill="none" xmlns="http://www.w3.org/2000/svg">
<path d="M81.3004 93.8159C76.9524 89.5159 72.5803 85.2399 68.2323 80.9159C64.725 77.4327 61.2658 73.8774 57.7826 70.3701C57.3742 69.9617 56.7017 70.1539 56.2693 69.7936C51.633 63.9562 45.9396 59.1277 40.8469 53.7467C40.0302 52.8819 39.0212 52.2093 38.6368 51.0082C43.8257 44.0897 49.0145 37.1954 54.4676 29.8926C57.8067 37.5557 60.9295 44.7384 64.0524 51.9451C69.3133 64.1003 74.5262 76.2556 79.763 88.4349C80.5077 90.1645 81.3485 91.8701 81.3004 93.8159Z" fill="#545554"/>
<path d="M15.1431 66.1904C13.5576 67.7999 11.9722 69.4094 10.4107 70.9948C14.8788 59.8245 19.347 48.6541 23.8152 37.5078C28.0431 26.986 32.319 16.4884 36.5469 5.96661C36.7391 5.51019 36.9039 5.00447 37 4.5C37.1922 4.2838 37.1955 4.06882 37.3637 3.82859C38.1564 2.60346 37.9883 0.201235 39.3576 0.15319C40.9431 0.105145 41.0632 2.45933 41.7839 3.75653C43.2012 6.32691 44.4503 8.99336 45.7715 11.6118C46.4681 13.5336 46.0358 15.3593 45.0749 17.0408C38.2766 29.124 31.5503 41.2794 24.752 53.3626C23.8872 54.924 22.6621 56.2692 21.6772 57.7585C19.7314 59.6083 19.1549 62.3228 17.5934 64.4128C16.5364 64.701 16.2241 65.9742 15.1431 66.1904Z" fill="#545554"/>
<path d="M21.6532 57.7584C26.1213 49.6389 30.5654 41.4954 35.0335 33.3999C38.2525 27.5625 41.5196 21.7251 44.8106 15.8877C45.5793 14.5424 46.0118 13.1731 45.7475 11.6117C46.8285 16.272 48.8464 20.548 51.1525 24.6798C51.9453 26.0971 51.3207 26.9139 50.3358 27.7066C45.6995 31.4541 42.1442 36.2826 37.9403 40.4384C32.5353 45.7954 26.8179 50.9842 22.4219 57.302C22.2537 57.5422 21.9174 57.6143 21.6532 57.7584Z" fill="#545554"/>
<path d="M56.7256 69.7695C55.6206 69.7215 54.5397 69.7695 53.5548 70.3941C52.5458 70.6103 51.5609 70.7785 50.552 70.9706C50.0475 70.9466 49.4709 71.1148 48.9424 71.1869C45.0268 71.6673 41.2793 73.1086 37.2916 73.1086C34.1687 73.1807 31.2381 74.0695 28.4034 75.3187C22.3018 76.7119 16.1761 78.0812 9.23364 79.6667C11.756 74.9823 13.7739 71.235 15.7917 67.4635C16.3923 66.4545 16.9688 65.4215 17.5694 64.4126C16.0319 65.2534 14.4465 66.4305 13.8219 67.1752C11.6359 69.3612 11.78 69.0969 10.3867 70.9947C9.61802 72.7243 8.77721 74.4059 8.10459 76.1595C5.67834 82.4534 2.53141 88.4588 0.729736 94.9689C1.33029 94.9689 1.93085 94.9689 2.53141 94.9689C3.0599 94.1281 3.99679 94.032 4.81355 93.6717C20.452 86.5131 36.1146 79.3544 51.7531 72.1717C52.3536 71.9796 52.9542 71.7634 53.5548 71.5712C55.0682 71.5231 56.1731 70.1058 57.7826 70.3701C57.5904 69.8896 57.2061 69.7455 56.7256 69.7695Z" fill="#545554"/>
<path d="M107.821 28.1151C107.677 27.7067 107.461 27.1541 106.788 27.1541C106.212 27.1541 105.995 27.7067 105.851 28.1151L92.591 62.515C92.4468 62.9233 92.4949 63.2596 92.663 63.5239C92.9513 63.9322 93.4557 63.9322 93.6239 63.9322H94.4406C94.9691 63.9322 95.4255 63.5479 95.6177 62.8993L98.5484 55.2121H115.244L118.223 62.8752C118.439 63.5238 118.895 63.9322 119.424 63.9322H120.241C120.697 63.9322 121.009 63.7881 121.201 63.5239C121.394 63.2596 121.418 62.9233 121.274 62.4909L107.821 28.1151ZM114.163 52.3055H99.6775L106.86 33.6642L114.163 52.3055Z" fill="#545554"/>
<path d="M138.618 44.162C134.894 43.153 132.204 42.048 130.858 40.991C129.585 40.0301 128.985 38.7089 128.985 36.9072C128.985 32.6553 132.3 30.0369 137.633 30.0369C140.9 30.0369 143.927 31.0939 146.593 33.1358C146.977 33.5201 147.314 33.5441 147.554 33.5201C147.722 33.4961 148.034 33.4 148.178 33.0637L148.707 32.343C148.995 32.0067 149.019 31.6944 148.995 31.5022C148.971 31.31 148.899 31.0218 148.587 30.7815C145.752 28.3073 142.149 27.1061 137.585 27.1061C130.45 27.1061 125.838 31.0698 125.838 37.1955C125.838 39.5257 126.703 41.3754 128.456 42.8647C130.09 44.2821 132.852 45.5552 136.912 46.7563C142.149 48.3178 144.359 49.4468 145.296 50.0954C146.497 50.9842 147.073 52.3056 147.073 54.1072C147.073 56.2212 146.209 57.9747 144.527 59.296C142.749 60.6893 140.467 61.3859 137.729 61.3859C135.855 61.3859 134.029 61.0016 132.108 60.2088C130.21 59.4882 128.744 58.5273 127.76 57.3983C127.471 57.0379 127.159 56.9659 126.943 56.9659C126.727 56.9659 126.414 57.0379 126.15 57.3742L125.622 57.9507C125.141 58.4312 125.141 59.0797 125.598 59.5361C126.799 60.9294 128.48 62.0586 130.81 62.9714C132.996 63.8362 135.327 64.2686 137.777 64.2686C141.452 64.2686 144.455 63.2836 146.737 61.3618C149.091 59.4401 150.268 56.9177 150.268 53.8669C150.268 51.3926 149.38 49.3988 147.65 47.9335C145.896 46.6363 142.966 45.3871 138.618 44.162Z" fill="#545554"/>
<path d="M177.077 27.5385H154.328C153.559 27.5385 153.103 27.995 153.103 28.7637V29.2201C153.103 29.9888 153.559 30.4452 154.328 30.4452H164.177V62.7071C164.177 63.4758 164.634 63.9322 165.354 63.9322H166.051C166.772 63.9322 167.228 63.4518 167.228 62.7071V30.4452H177.077C177.846 30.4452 178.302 29.9888 178.302 29.2201V28.7637C178.302 27.995 177.846 27.5385 177.077 27.5385Z" fill="#545554"/>
<path d="M198.889 49.4709C203.238 48.1017 205.808 44.1139 205.808 38.6368C205.808 35.1295 204.847 32.367 202.973 30.4452C201.099 28.5234 198.841 27.5626 196.271 27.5626H184.836C184.116 27.5626 183.659 28.043 183.659 28.7877V62.7792C183.659 63.4999 184.116 63.9563 184.836 63.9563H185.533C186.254 63.9563 186.71 63.4999 186.71 62.7792V49.9994H195.719L202.781 63.0675C202.925 63.2837 203.334 63.9322 204.078 63.9322H205.039C205.616 63.9322 205.88 63.692 205.976 63.4758C206.096 63.2596 206.168 62.9234 205.88 62.491L198.889 49.4709ZM202.661 38.7809C202.661 44.3541 200.115 47.0687 194.878 47.0687H186.734V30.4452H195.43C200.163 30.4452 202.661 33.3279 202.661 38.7809Z" fill="#545554"/>
<path d="M224.761 28.1151C224.617 27.7067 224.401 27.1541 223.728 27.1541C223.152 27.1541 222.936 27.7067 222.792 28.1151L209.531 62.515C209.387 62.9233 209.435 63.2596 209.603 63.5239C209.892 63.9322 210.396 63.9322 210.564 63.9322H211.405C211.934 63.9322 212.39 63.5479 212.582 62.8993L215.513 55.2121H232.208L235.187 62.8752C235.403 63.5238 235.86 63.9322 236.388 63.9322H237.205C237.661 63.9322 237.974 63.7881 238.166 63.5239C238.358 63.2596 238.382 62.9233 238.238 62.4909L224.761 28.1151ZM231.103 52.3055H216.618L223.8 33.6642L231.103 52.3055Z" fill="#545554"/>
<path d="M273.719 27.5385H250.97C250.201 27.5385 249.745 27.995 249.745 28.7637V29.2201C249.745 29.9888 250.201 30.4452 250.97 30.4452H260.819V62.7071C260.819 63.4758 261.275 63.9322 261.996 63.9322H262.693C263.413 63.9322 263.87 63.4518 263.87 62.7071V30.4452H273.719C274.488 30.4452 274.944 29.9888 274.944 29.2201V28.7637C274.944 27.995 274.488 27.5385 273.719 27.5385Z" fill="#545554"/>
<path d="M299.639 27.5385H281.574C280.805 27.5385 280.349 27.995 280.349 28.7637V62.6832C280.349 63.4519 280.805 63.9082 281.574 63.9082H299.591C300.36 63.9082 300.816 63.4519 300.816 62.6832V62.2267C300.816 61.458 300.36 61.0016 299.591 61.0016H283.4V47.1407H294.546C295.315 47.1407 295.771 46.6843 295.771 45.9636V45.4111C295.771 44.6904 295.291 44.234 294.546 44.234H283.4V30.4212H299.639C300.359 30.4212 300.816 29.9407 300.816 29.1961V28.7396C300.816 27.9949 300.359 27.5385 299.639 27.5385Z" fill="#545554"/>
<path d="M334.471 56.1971L333.871 55.7407C333.27 55.3083 332.597 55.4044 332.141 56.053C330.387 58.7195 326.424 61.434 321.499 61.434C317.223 61.434 313.788 59.9206 311.001 56.7977C308.263 53.7709 306.87 50.0474 306.87 45.7474C306.87 41.4715 308.263 37.7239 311.001 34.6491C313.788 31.5502 317.247 30.0609 321.499 30.0609C325.799 30.0609 329.619 31.8625 331.973 34.9614C332.285 35.3698 332.621 35.4659 332.862 35.4899C333.102 35.4899 333.462 35.4419 333.847 35.0575L334.255 34.6491C334.735 34.1687 334.783 33.5441 334.351 32.9435C331.444 29.076 327.12 27.1302 321.523 27.1302C316.431 27.1302 312.131 28.9799 308.767 32.6073C305.428 36.2106 303.723 40.6307 303.723 45.7234C303.723 50.8161 305.428 55.2602 308.767 58.8395C312.131 62.4669 316.431 64.3167 321.523 64.3167C326.952 64.3167 331.372 62.1786 334.663 57.9507C334.928 57.5904 335.048 57.2541 335 56.9418C334.904 56.6536 334.735 56.3893 334.471 56.1971Z" fill="#545554"/>
<path d="M366.277 27.5385H365.412C364.739 27.5385 364.283 28.019 364.283 28.7637V44.258H343.888V28.7637C343.888 27.6346 343.071 27.5385 342.807 27.5385H341.942C341.269 27.5385 340.813 28.019 340.813 28.7637V62.6832C340.813 63.4279 341.245 63.9082 341.942 63.9082H342.807C343.071 63.9082 343.888 63.8122 343.888 62.6832V47.1407H364.283V62.6832C364.283 63.4279 364.715 63.9082 365.412 63.9082H366.277C366.541 63.9082 367.358 63.8122 367.358 62.6832V28.7637C367.358 27.6346 366.541 27.5385 366.277 27.5385Z" fill="#545554"/>
<path d="M396.281 61.0256H377.519L397.241 29.4603C397.482 28.9318 397.482 28.4033 397.217 27.9949C397.025 27.7067 396.713 27.5385 396.353 27.5385H374.805C374.084 27.5385 373.628 27.995 373.628 28.7157V29.2681C373.628 29.9888 374.084 30.4452 374.805 30.4452H393.158L373.411 62.0105C373.171 62.4189 373.195 62.9233 373.411 63.3317C373.627 63.692 374.012 63.9322 374.468 63.9322H396.256C396.977 63.9322 397.434 63.4758 397.434 62.7552V62.2027C397.458 61.482 397.001 61.0256 396.281 61.0256Z" fill="#545554"/>
</svg>
