<svg width="320" height="96" viewBox="0 0 320 96" fill="none" xmlns="http://www.w3.org/2000/svg">
<path d="M0.3276 42.5696C0.0527581 38.4624 1.43471 34.994 3.40118 31.6727C5.28637 28.4868 7.61284 25.6687 10.0167 22.8584C12.3742 20.0984 15.1265 17.7874 17.7394 15.3254C19.5317 13.6376 21.5795 12.2208 23.484 10.6531C25.8647 8.69048 28.3886 6.9253 30.9705 5.25302C32.4802 4.27753 34.0054 3.25946 35.8015 2.81816C36.1499 2.733 36.4557 2.69429 36.6919 3.01945C36.9512 3.37171 36.8196 3.72785 36.599 4.01043C36.0415 4.72657 35.5073 5.46981 34.857 6.09691C32.5538 8.32661 30.5099 10.7731 28.8337 13.4944C27.2118 16.1306 25.7679 18.8558 24.8195 21.8442C23.9369 24.6313 23.3369 27.4455 22.884 30.3294C22.462 33.0275 22.4388 35.7334 22.7098 38.3773C23.0853 42.0431 23.7395 45.6935 24.8543 49.2471C25.7679 52.1542 26.8402 54.98 28.0518 57.7788C29.1008 60.2059 30.266 62.5556 31.5938 64.8279C33.0299 67.2937 34.4622 69.7712 36.2196 72.0357C36.8583 72.8602 37.4583 73.7157 38.0661 74.5635C38.3719 74.9893 38.4842 75.4886 38.2712 75.9686C38.0312 76.5145 37.4893 76.379 37.0325 76.379C33.2467 76.3674 29.7899 75.2022 26.4027 73.5764C23.4801 72.1712 20.8478 70.3596 18.3046 68.4008C17 67.3982 15.7304 66.3337 14.5497 65.1879C11.809 62.5208 9.02963 59.8769 6.65283 56.8691C5.00378 54.7826 3.24247 52.7426 2.02697 50.3658C0.772766 47.8922 0.0295321 45.2444 0.3276 42.5696Z" fill="#545554"/>
<path d="M96.3751 12.9525C96.6035 13.1615 96.8358 13.3744 97.0641 13.5834C97.3312 13.8931 97.6912 14.0596 98.0396 14.2493C98.8448 15.0467 99.7855 15.7241 100.374 16.7267C100.935 17.6132 100.865 18.0583 100.056 18.7551C99.7274 19.0377 99.3055 19.2041 99.0074 19.5293C98.7945 19.5409 98.5855 19.5525 98.3726 19.5642C97.7183 19.7809 97.0603 19.9203 96.3596 19.8816C94.5751 19.7809 92.8409 20.3771 91.0563 20.2609C90.2473 20.4274 89.4266 20.4196 88.6099 20.4816C87.584 20.559 86.5776 20.8455 85.5363 20.9422C84.7001 21.0197 83.8601 21.1745 83.0162 21.2519C80.4498 21.7397 77.8562 22.0687 75.3207 22.7113C73.5129 22.8932 71.7516 23.381 70.0367 23.8997C68.1361 24.4726 66.2431 25.1307 64.3812 25.8816C62.4921 26.6442 60.7502 27.6623 58.9153 28.5062C57.2547 29.2688 55.8301 30.403 54.3553 31.4482C52.1295 33.0275 50.1243 34.8624 48.3204 36.9101C47.1049 38.2882 46.052 39.7902 45.0532 41.327C44.8132 41.4934 44.7165 41.7489 44.6429 42.016C43.9926 43.0922 43.3074 44.1489 42.7887 45.2986C42.6416 45.5038 42.5719 45.7477 42.4868 45.9799C42.4248 46.1386 42.359 46.2974 42.2971 46.4599C42.0687 47.54 41.4377 48.4729 41.1861 49.5451C40.6442 51.86 40.0674 54.1516 39.6764 56.5091C39.2467 59.0949 39.4983 61.6575 39.3203 64.224C39.2158 65.7066 39.6919 67.0963 39.8119 68.5363C39.9203 69.8292 39.5332 70.0963 38.2828 69.6473C36.8235 69.1247 36.0183 67.9402 35.248 66.7479C34.1641 65.0679 33.2892 63.2834 32.4725 61.4446C30.9782 58.073 29.8169 54.6007 28.8337 51.0626C28.1447 48.5813 27.7731 46.038 27.3976 43.4909C27.0685 41.2379 26.8789 38.985 26.8518 36.7127C26.8053 33.2869 27.4789 29.9656 28.3227 26.6675C28.7989 24.8055 29.4376 22.9977 30.2311 21.2442C31.0595 19.2351 32.066 17.319 33.1886 15.457C34.528 13.2389 36.0841 11.1834 37.737 9.19372C39.5758 6.9795 41.7474 5.12915 44.0584 3.43752C46.4468 1.69169 49.1488 0.654269 52.0288 0.0581338C52.354 -0.0115444 52.6869 0.00393395 53.0159 0.00393395C54.9708 0.00393395 56.9295 0.011684 58.8844 7.09698e-05C59.9876 -0.00380004 61.0521 0.151033 62.1399 0.379422C63.3864 0.63878 64.6986 0.650391 65.9799 0.812974C66.4135 0.867168 66.8548 0.890403 67.2883 0.979436C69.8432 1.50976 72.429 1.9317 74.922 2.68268C77.9181 3.58462 80.9065 4.5485 83.7827 5.81432C86.3492 6.94466 88.9041 8.08661 91.2925 9.56921C92.9493 10.5989 94.6641 11.5357 96.1893 12.7667C96.2474 12.8325 96.3132 12.8905 96.3751 12.9525Z" fill="#545554"/>
<path d="M0.130204 74.5325C0.064397 73.4409 -0.0633455 72.0589 0.0373008 70.7583C0.285045 67.5028 -0.253024 64.2124 0.497952 60.9878C0.641179 60.3762 0.819245 59.8111 1.48893 59.5904C2.19732 59.3543 2.69281 59.7375 3.18443 60.1711C6.31221 62.9311 9.4245 65.7105 12.8039 68.1686C16.4465 70.8125 20.2169 73.2435 24.146 75.4654C27.0415 77.1029 30.0144 78.5622 33.057 79.8552C35.0351 80.6952 37.1216 81.3145 39.1964 81.9378C44.3178 83.4784 49.5746 83.5558 54.7927 83.1881C57.4599 83.0023 60.158 82.9404 62.8135 82.5881C63.9438 82.4371 65.0664 82.1584 66.2122 82.0384C66.5955 81.9997 66.9826 81.9339 67.3619 81.9687C68.2484 82.05 68.6161 82.8629 68.1981 83.6526C67.4432 85.081 65.9761 85.592 64.7025 86.2772C62.5038 87.4617 60.1812 88.4101 57.8237 89.2307C56.2211 89.7882 54.6108 90.3301 52.9656 90.7714C51.6959 91.112 50.3759 91.2553 49.1411 91.7353C48.4095 92.0217 47.6275 91.9869 46.8727 92.1146C45.3088 92.3817 43.772 92.8734 42.1771 92.8966C40.8068 92.916 39.4635 93.2256 38.0971 93.2217C34.4041 93.214 30.7112 93.2992 27.0221 93.1946C24.1537 93.1134 21.3085 92.7456 18.4788 92.1688C16.1872 91.7043 13.9226 91.1469 11.7394 90.3533C7.63609 88.863 4.02057 86.6333 1.62829 82.8358C0.614082 81.2293 0.269562 79.379 0.14956 77.5055C0.0837533 76.5996 0.130204 75.69 0.130204 74.5325Z" fill="#545554"/>
<path d="M103.827 62.3001C103.827 62.9272 103.753 63.5853 103.61 64.2782C103.467 64.9711 103.242 65.6601 102.936 66.3453C102.631 67.0305 102.24 67.6847 101.756 68.3118C101.272 68.9389 100.691 69.4924 100.006 69.9724C99.3209 70.4524 98.5312 70.8395 97.6332 71.126C96.7351 71.4125 95.7209 71.5557 94.5867 71.5557H82.6833C82.0562 71.5557 81.3981 71.4821 80.7052 71.3389C80.0123 71.1957 79.3233 70.9712 78.6381 70.6653C77.9529 70.3595 77.2987 69.9686 76.6716 69.4847C76.0445 69.0008 75.491 68.4202 75.011 67.735C74.5271 67.0498 74.1439 66.2563 73.8574 65.3505C73.571 64.4446 73.4277 63.4266 73.4277 62.2924V32.5243H80.0278V62.2924C80.0278 63.1053 80.2833 63.7517 80.7904 64.2356C81.2975 64.7195 81.9323 64.9595 82.6949 64.9595H94.5983C95.4267 64.9595 96.0731 64.7156 96.5415 64.224C97.0061 63.7324 97.2383 63.0898 97.2383 62.2962V53.3619C97.2383 52.5336 96.9944 51.8871 96.5028 51.4187C96.0112 50.9542 95.3764 50.7219 94.5983 50.7219H82.6949V44.1218H94.5983C95.2254 44.1218 95.8835 44.1954 96.5764 44.3386C97.2693 44.4818 97.9583 44.7064 98.6435 45.0122C99.3287 45.318 99.9829 45.709 100.61 46.1928C101.237 46.6767 101.787 47.2574 102.259 47.9425C102.731 48.6277 103.115 49.4174 103.401 50.3155C103.687 51.2135 103.831 52.2277 103.831 53.3619V62.3001H103.827Z" fill="#545554"/>
<path d="M121.517 71.5634H118.571C117.623 71.5634 116.613 71.4008 115.54 71.0795C114.464 70.7582 113.462 70.2279 112.533 69.4924C111.604 68.7569 110.833 67.8008 110.222 66.624C109.614 65.4472 109.308 64.0072 109.308 62.2962V32.5281H115.908V62.2962C115.908 63.1091 116.164 63.7556 116.671 64.2395C117.178 64.7233 117.813 64.9633 118.575 64.9633H121.521V71.5634H121.517Z" fill="#545554"/>
<path d="M155.346 68.2421C155.346 68.7144 155.261 69.1557 155.091 69.5621C154.92 69.9686 154.688 70.3208 154.394 70.615C154.1 70.9092 153.751 71.1454 153.352 71.3118C152.954 71.4821 152.528 71.5673 152.071 71.5673H137.148C136.336 71.5673 135.468 71.4744 134.547 71.2886C133.626 71.1028 132.716 70.8008 131.818 70.3866C130.92 69.9724 130.053 69.446 129.217 68.815C128.381 68.1802 127.649 67.4098 127.022 66.504C126.395 65.5982 125.892 64.553 125.512 63.3685C125.133 62.184 124.939 60.8485 124.939 59.3581V44.1296H131.539V59.3581C131.539 60.2214 131.686 60.9956 131.985 61.6807C132.279 62.3659 132.681 62.9543 133.188 63.4459C133.695 63.9375 134.292 64.313 134.977 64.5762C135.662 64.8395 136.401 64.9711 137.199 64.9711H148.746V44.1334H155.346V68.2421Z" fill="#545554"/>
<path d="M191.792 62.3001C191.792 62.9272 191.718 63.5853 191.575 64.2782C191.432 64.9711 191.207 65.6601 190.901 66.3453C190.595 67.0305 190.205 67.6847 189.721 68.3118C189.237 68.9389 188.656 69.4924 187.971 69.9724C187.286 70.4563 186.496 70.8395 185.598 71.126C184.7 71.4125 183.686 71.5557 182.552 71.5557H170.648C170.021 71.5557 169.363 71.4821 168.67 71.3389C167.977 71.1957 167.288 70.9712 166.603 70.6653C165.918 70.3595 165.264 69.9686 164.636 69.4847C164.009 69.0008 163.456 68.4202 162.976 67.735C162.492 67.0498 162.109 66.2563 161.822 65.3505C161.536 64.4446 161.393 63.4266 161.393 62.2924V32.5243H167.985V62.2924C167.985 63.1053 168.24 63.7517 168.747 64.2356C169.255 64.7195 169.889 64.9595 170.652 64.9595H182.555C183.384 64.9595 184.03 64.7156 184.499 64.224C184.963 63.7324 185.195 63.0898 185.195 62.2962V53.3619C185.195 52.5336 184.952 51.8871 184.46 51.4187C183.968 50.9542 183.333 50.7219 182.555 50.7219H170.652V44.1218H182.555C183.183 44.1218 183.841 44.1954 184.533 44.3386C185.226 44.4818 185.915 44.7064 186.601 45.0122C187.286 45.318 187.94 45.709 188.567 46.1928C189.194 46.6767 189.744 47.2574 190.216 47.9425C190.688 48.6277 191.072 49.4174 191.358 50.3155C191.645 51.2135 191.788 52.2277 191.788 53.3619V62.3001H191.792Z" fill="#545554"/>
<path d="M218.44 71.5634H206.536C205.588 71.5634 204.578 71.4008 203.505 71.0795C202.429 70.7582 201.427 70.2279 200.498 69.4924C199.568 68.7569 198.798 67.8008 198.187 66.624C197.579 65.4472 197.273 64.0072 197.273 62.2962V44.1257H203.873V62.2962C203.873 63.1594 204.101 63.8175 204.558 64.2743C205.015 64.7311 205.692 64.9594 206.587 64.9594H218.44V71.5634ZM227.676 74.2034C227.676 75.3376 227.533 76.3557 227.246 77.2615C226.96 78.1673 226.577 78.9609 226.104 79.6461C225.632 80.3312 225.078 80.9158 224.455 81.3958C223.828 81.8796 223.174 82.2706 222.489 82.5764C221.804 82.8822 221.115 83.1067 220.422 83.25C219.729 83.3932 219.067 83.4667 218.444 83.4667H206.54V76.8706H218.444C219.322 76.8706 219.984 76.6422 220.422 76.1854C220.863 75.7286 221.08 75.0705 221.08 74.2073V44.1334H227.68V74.2034H227.676Z" fill="#545554"/>
<path d="M264.373 71.5634H257.773V56.3348C257.773 55.4716 257.626 54.6974 257.328 54.0122C257.034 53.3271 256.631 52.7387 256.124 52.2471C255.617 51.7554 255.021 51.3799 254.336 51.1167C253.65 50.8535 252.911 50.7219 252.114 50.7219H240.566V71.5595H233.966V47.4005C233.966 46.9438 234.051 46.518 234.222 46.1192C234.392 45.7205 234.628 45.376 234.934 45.0779C235.24 44.7837 235.592 44.5476 235.999 44.3812C236.405 44.2108 236.835 44.1257 237.291 44.1257H252.164C252.992 44.1257 253.867 44.2186 254.788 44.4044C255.71 44.5902 256.623 44.8921 257.529 45.3063C258.435 45.7205 259.298 46.247 260.119 46.878C260.94 47.5089 261.667 48.2831 262.302 49.1889C262.937 50.0948 263.44 51.14 263.812 52.3245C264.183 53.509 264.369 54.8445 264.369 56.3348V71.5634H264.373Z" fill="#545554"/>
<path d="M237.868 86.2152C237.52 87.001 237.141 87.7714 236.734 88.5301C236.328 89.2888 235.902 90.0088 235.461 90.6862C235.015 91.3637 234.562 91.9869 234.102 92.5598C233.637 93.1327 233.181 93.6282 232.728 94.0424C232.275 94.4566 231.83 94.7818 231.4 95.014C230.966 95.2502 230.56 95.3663 230.177 95.3663C230.018 95.3663 229.871 95.3392 229.735 95.2811C229.6 95.2231 229.48 95.1457 229.379 95.0489C229.279 94.9482 229.197 94.8321 229.143 94.6966C229.085 94.5611 229.058 94.414 229.058 94.2553V90.1482L224.691 95.0334C224.579 95.1456 224.455 95.2308 224.324 95.285C224.192 95.3392 224.053 95.3663 223.913 95.3663C223.762 95.3663 223.619 95.3392 223.488 95.2811C223.356 95.2231 223.236 95.1457 223.135 95.0489C223.035 94.9482 222.953 94.8321 222.895 94.6966C222.837 94.5611 222.806 94.414 222.806 94.2553V86.2152H225.009V91.4295L229.395 86.5288C229.553 86.3701 229.739 86.2694 229.956 86.2268C230.173 86.1843 230.386 86.2075 230.595 86.3004C230.804 86.3855 230.97 86.5172 231.09 86.703C231.21 86.8849 231.272 87.0862 231.272 87.3069V92.5366C231.744 92.0798 232.174 91.5959 232.557 91.0888C232.941 90.5817 233.297 90.0591 233.63 89.5172C233.959 88.9791 234.268 88.4294 234.562 87.8759C234.853 87.3185 235.135 86.7649 235.414 86.2114H237.868V86.2152Z" fill="#545554"/>
<path d="M240.864 95.3624H238.662V82.3442H240.864V95.3624ZM248.804 95.3624H246.601V89.2966C246.601 89.0101 246.528 88.7895 246.381 88.6424C246.234 88.4914 246.013 88.4179 245.719 88.4179H241.747V86.2152H245.719C245.928 86.2152 246.148 86.2385 246.381 86.2888C246.613 86.3353 246.841 86.4127 247.07 86.5133C247.298 86.6139 247.519 86.7456 247.724 86.9082C247.933 87.0707 248.115 87.2643 248.274 87.4927C248.432 87.7211 248.56 87.9843 248.653 88.2824C248.75 88.5804 248.796 88.9211 248.796 89.2966V95.3624H248.804Z" fill="#545554"/>
<path d="M260.665 89.2424C260.665 89.5482 260.611 89.8772 260.502 90.2295C260.394 90.5817 260.22 90.9108 259.983 91.2127C259.743 91.5146 259.43 91.7663 259.043 91.9714C258.656 92.1727 258.187 92.2772 257.634 92.2772H253.662V90.1869H257.634C257.932 90.1869 258.164 90.094 258.327 89.9121C258.489 89.7301 258.57 89.5017 258.57 89.2307C258.57 88.9443 258.478 88.7159 258.296 88.5533C258.114 88.3907 257.889 88.3094 257.63 88.3094H253.658C253.36 88.3094 253.128 88.4024 252.965 88.5843C252.803 88.7662 252.721 88.9946 252.721 89.2656V92.3392C252.721 92.6334 252.814 92.8618 252.996 93.0243C253.178 93.1869 253.407 93.2682 253.678 93.2682H257.63V95.3663H253.658C253.352 95.3663 253.023 95.3121 252.671 95.2037C252.319 95.0953 251.99 94.9211 251.688 94.685C251.386 94.445 251.134 94.1315 250.929 93.7444C250.728 93.3573 250.623 92.8889 250.623 92.3353V89.2462C250.623 88.9404 250.678 88.6114 250.786 88.2591C250.894 87.9069 251.065 87.5778 251.305 87.2759C251.545 86.974 251.858 86.7223 252.245 86.5172C252.632 86.3159 253.101 86.2114 253.654 86.2114H257.626C257.932 86.2114 258.261 86.2656 258.613 86.3739C258.965 86.4823 259.294 86.6565 259.596 86.8927C259.898 87.1327 260.15 87.4462 260.355 87.8333C260.56 88.2204 260.665 88.6927 260.665 89.2424Z" fill="#545554"/>
<path d="M270.153 88.4139H265.202C264.903 88.4139 264.675 88.4875 264.524 88.6385C264.373 88.7894 264.296 89.0062 264.296 89.2927V95.3624H262.093V89.2965C262.093 88.9172 262.14 88.5804 262.236 88.2823C262.333 87.9842 262.461 87.721 262.62 87.4926C262.782 87.2642 262.964 87.0707 263.173 86.9081C263.382 86.7455 263.599 86.6178 263.827 86.5133C264.056 86.4126 264.288 86.3352 264.52 86.2888C264.752 86.2423 264.973 86.2152 265.174 86.2152H270.145V88.4139H270.153Z" fill="#545554"/>
<path d="M281.409 89.2424C281.409 89.5482 281.355 89.8772 281.247 90.2295C281.138 90.5817 280.964 90.9108 280.728 91.2127C280.488 91.5146 280.175 91.7663 279.787 91.9714C279.4 92.1727 278.932 92.2772 278.378 92.2772H274.407V90.1869H278.378C278.677 90.1869 278.909 90.094 279.071 89.9121C279.234 89.7301 279.315 89.5017 279.315 89.2307C279.315 88.9443 279.222 88.7159 279.04 88.5533C278.858 88.3907 278.634 88.3094 278.375 88.3094H274.403C274.105 88.3094 273.873 88.4024 273.71 88.5843C273.547 88.7662 273.466 88.9946 273.466 89.2656V92.3392C273.466 92.6334 273.559 92.8618 273.741 93.0243C273.923 93.1869 274.151 93.2682 274.422 93.2682H278.375V95.3663H274.403C274.097 95.3663 273.768 95.3121 273.416 95.2037C273.064 95.0953 272.735 94.9211 272.433 94.685C272.131 94.445 271.879 94.1315 271.674 93.7444C271.473 93.3573 271.368 92.8889 271.368 92.3353V89.2462C271.368 88.9404 271.422 88.6114 271.531 88.2591C271.639 87.9069 271.809 87.5778 272.049 87.2759C272.289 86.974 272.603 86.7223 272.99 86.5172C273.377 86.3159 273.845 86.2114 274.399 86.2114H278.371C278.676 86.2114 279.006 86.2656 279.358 86.3739C279.71 86.4823 280.039 86.6565 280.341 86.8927C280.643 87.1327 280.895 87.4462 281.1 87.8333C281.305 88.2204 281.409 88.6927 281.409 89.2424Z" fill="#545554"/>
<path d="M296.715 88.4139H292.871V95.3624H290.646V88.4139H287.785V86.2113H290.646V83.2229H292.871V86.2113H296.715V88.4139Z" fill="#545554"/>
<path d="M308.085 92.2734C308.085 92.6527 308.038 92.9934 307.941 93.2953C307.845 93.5972 307.717 93.8643 307.562 94.0927C307.403 94.3211 307.221 94.5147 307.012 94.6773C306.803 94.8398 306.587 94.9676 306.358 95.0721C306.13 95.1728 305.897 95.2502 305.665 95.2966C305.433 95.3431 305.208 95.3702 304.999 95.3702H301.028C300.722 95.3702 300.389 95.316 300.029 95.2076C299.669 95.0992 299.332 94.925 299.026 94.6773C298.717 94.4334 298.461 94.1121 298.256 93.7211C298.051 93.3302 297.946 92.8463 297.946 92.2772V89.2965C297.946 88.7314 298.051 88.2553 298.256 87.8604C298.461 87.4694 298.717 87.1481 299.026 86.9043C299.332 86.6604 299.669 86.4823 300.029 86.3739C300.389 86.2656 300.722 86.2114 301.028 86.2114H304.999C305.565 86.2114 306.045 86.312 306.439 86.5172C306.834 86.7185 307.152 86.974 307.396 87.2836C307.639 87.5895 307.814 87.9262 307.926 88.2862C308.034 88.6462 308.092 88.983 308.092 89.2927V92.2734H308.085ZM305.882 89.312C305.882 89.0062 305.805 88.7817 305.654 88.6346C305.503 88.4875 305.282 88.414 304.996 88.414H301.043C300.749 88.414 300.528 88.4875 300.374 88.6385C300.219 88.7895 300.145 89.0062 300.145 89.2927V92.2734C300.145 92.5598 300.223 92.7805 300.374 92.9353C300.525 93.0901 300.749 93.1637 301.043 93.1637H304.996C305.294 93.1637 305.518 93.0863 305.665 92.9353C305.812 92.7843 305.886 92.5637 305.886 92.2734V89.312H305.882Z" fill="#545554"/>
<path d="M319.45 87.3068C319.45 87.6165 319.396 87.9533 319.287 88.3133C319.179 88.6733 319.005 89.0101 318.757 89.3197C318.509 89.6294 318.192 89.8888 317.801 90.0939C317.41 90.2991 316.93 90.4036 316.365 90.4036H314.495V92.3856H312.285V89.2965C312.285 89.1455 312.312 89.0023 312.37 88.8707C312.428 88.7391 312.505 88.6191 312.602 88.5185C312.703 88.4178 312.815 88.3365 312.95 88.2784C313.086 88.2204 313.225 88.1894 313.376 88.1894H316.365C316.651 88.1894 316.872 88.1159 317.019 87.9688C317.17 87.8217 317.243 87.601 317.243 87.3068V86.3159C317.243 86.0294 317.17 85.8087 317.023 85.6539C316.876 85.5029 316.655 85.4255 316.361 85.4255H309.3V83.2229H316.361C316.67 83.2229 317.007 83.2771 317.367 83.3894C317.727 83.4978 318.064 83.6758 318.37 83.9197C318.676 84.1636 318.931 84.481 319.136 84.8758C319.338 85.2707 319.442 85.7507 319.442 86.3159V87.3068H319.45ZM314.476 94.2553C314.476 94.4062 314.449 94.5495 314.39 94.6811C314.332 94.8127 314.255 94.9288 314.158 95.0295C314.061 95.1301 313.945 95.2076 313.81 95.2618C313.678 95.3198 313.535 95.3469 313.384 95.3469C313.237 95.3469 313.098 95.3198 312.966 95.2618C312.834 95.2037 312.718 95.1263 312.618 95.0295C312.517 94.9327 312.439 94.8166 312.381 94.6811C312.323 94.5456 312.292 94.4062 312.292 94.2553C312.292 94.1082 312.323 93.9688 312.381 93.8372C312.439 93.7056 312.521 93.5895 312.618 93.4888C312.714 93.3882 312.83 93.3108 312.966 93.2527C313.101 93.1946 313.237 93.1637 313.384 93.1637C313.535 93.1637 313.678 93.1946 313.81 93.2527C313.941 93.3108 314.058 93.3921 314.158 93.4888C314.259 93.5856 314.336 93.7017 314.39 93.8372C314.445 93.9688 314.476 94.1082 314.476 94.2553Z" fill="#545554"/>
</svg>
