<svg width="140" height="26" viewBox="0 0 140 26" fill="none" xmlns="http://www.w3.org/2000/svg">
<path d="M13.8464 5.72727C13.4609 2.11 11.2782 0.0236364 7.31909 0C2.86455 0 0 3.01727 0 7.56546C0 11.8455 2.65364 15.1309 7.31909 15.1309C8.14886 15.183 8.98063 15.0677 9.76502 14.7921C10.5494 14.5165 11.2704 14.0861 11.8853 13.5265C12.5001 12.9668 12.9962 12.2894 13.3442 11.5343C13.6922 10.7792 13.8849 9.9619 13.9109 9.13091H9.53455C9.26727 10.49 8.68909 11.5391 7.19091 11.5391C5.1 11.5391 4.44091 9.51636 4.44091 7.58C4.44091 5.64364 5.10455 3.62091 7.19091 3.62091C7.77712 3.61675 8.34303 3.83546 8.77409 4.23276C9.20515 4.63007 9.46917 5.1763 9.51273 5.76091L13.8464 5.72727ZM20.1382 9.63636L21.5291 5.18182L22.8136 9.63636H20.1382ZM14.0382 14.7945H18.5327L19.1745 12.7291H23.7655L24.3755 14.7945H28.9873L23.7127 0.344546H19.3582L14.0073 14.78L14.0382 14.7945ZM29.5436 14.7945H33.9982V9.74727H36.3618C38.1164 9.74727 38.2455 11.1809 38.3618 12.5655C38.4022 13.3182 38.5241 14.0644 38.7255 14.7909H43.1445C42.8145 13.7943 42.6517 12.7498 42.6627 11.7C42.5018 9.90182 41.7536 8.56455 40.5227 8.10455C41.204 7.78956 41.7735 7.27496 42.1557 6.62896C42.5379 5.98296 42.7147 5.23606 42.6627 4.48727C42.6627 1.76 40.5227 0.356364 37.9545 0.356364H29.5545V14.7909L29.5436 14.7945ZM34.0064 3.78273H36.0855C37.7873 3.78273 38.29 4.30727 38.29 5.21636C38.29 6.51091 37.1555 6.65 36.3318 6.65H34.0073L34.0064 3.78273ZM44.59 14.7827H56.7582V11.0882H49.0309V9.29273H55.8491V5.84727H49.0309V4.04727H56.5218V0.344546H44.58V14.7909L44.59 14.7827ZM58.4264 14.7827H70.5945V11.0882H62.8673V9.29273H69.6855V5.84727H62.8673V4.04727H70.3582V0.344546H58.4164V14.7909L58.4264 14.7827ZM72.2627 14.7827H76.7173V9.74727H79.0809C80.8355 9.74727 80.9646 11.1809 81.0809 12.5655C81.1215 13.3182 81.2434 14.0644 81.4445 14.7909H85.8991C85.569 13.7943 85.4062 12.7498 85.4173 11.7C85.2564 9.90182 84.5082 8.56455 83.2773 8.10455C83.9586 7.78956 84.5281 7.27496 84.9102 6.62896C85.2924 5.98296 85.4692 5.23606 85.4173 4.48727C85.4173 1.76 83.2773 0.356364 80.7091 0.356364H72.2546V14.7909L72.2627 14.7827ZM76.6927 3.78273H78.7836C80.4855 3.78273 80.9882 4.30727 80.9882 5.21636C80.9882 6.51091 79.8536 6.65 79.03 6.65H76.6936L76.6927 3.78273ZM86.3245 9.92909C86.3245 14.5409 91.0327 15.13 92.67 15.13C95.88 15.13 99.3473 13.9209 99.3473 10.1536C99.3473 7.5 97.3245 6.55818 95.2809 5.99091C93.2373 5.42364 91.1718 5.19909 91.0991 4.17273C91.0991 3.35909 92.0945 3.19909 92.6936 3.19909C93.159 3.18498 93.6178 3.31172 94.01 3.56273C94.2034 3.67678 94.356 3.84877 94.4462 4.05434C94.5364 4.25991 94.5597 4.48865 94.5127 4.70818H98.7927C98.6755 1.18727 95.9036 0 92.7682 0C89.7936 0 86.95 1.43364 86.95 4.77273C86.95 7.68182 89.5609 8.31818 91.84 8.95455C94.3227 9.66091 94.9536 9.86364 94.9536 10.6136C94.9536 11.6836 93.8836 11.93 93.1127 11.93C92.689 11.9975 92.2547 11.9305 91.8709 11.7386C91.4871 11.5467 91.173 11.2395 90.9727 10.86C90.8615 10.5549 90.8069 10.232 90.8118 9.90727L86.3245 9.92909Z" fill="#545554"/>
<path d="M70.8826 23.4582L69.5772 25.3518H68.6781L73.2799 18.8673H74.2754L74.4681 25.3518H73.5154V23.4582H70.8826ZM73.4281 22.72V19.8309L71.4163 22.72H73.4281Z" fill="#545554"/>
<path d="M83.8099 20.8155C83.949 19.6809 83.0717 19.4673 82.4399 19.4673C81.7465 19.5396 81.093 19.8272 80.5713 20.2898C80.0496 20.7523 79.6858 21.3666 79.5308 22.0464C79.0172 23.5764 79.1781 24.7427 80.7827 24.7427C81.315 24.7051 81.826 24.5187 82.2575 24.2046C82.6889 23.8905 83.0234 23.4614 83.2226 22.9664H84.0681C83.7726 23.7064 83.2662 24.3433 82.6118 24.7979C81.9574 25.2526 81.1838 25.5049 80.3872 25.5236C78.9108 25.5236 77.7872 24.5709 78.6217 22.0782C78.8639 21.1519 79.3928 20.3259 80.1328 19.7185C80.8728 19.1111 81.786 18.7533 82.7417 18.6964C84.4108 18.6964 84.8817 19.7664 84.6999 20.8364L83.8099 20.8155Z" fill="#545554"/>
<path d="M85.2535 22.0582C85.4287 21.5563 85.7679 21.128 86.2164 20.8427C86.6649 20.5573 87.1965 20.4315 87.7254 20.4855C88.0999 20.4855 89.4372 20.5927 89.0417 21.8018L88.089 24.5291C88.0245 24.7327 88.089 24.8073 88.2599 24.8073H88.5381L88.3454 25.3855C88.1964 25.434 88.0418 25.4627 87.8854 25.4709C87.179 25.4709 87.1899 25.1073 87.2863 24.7536C86.7462 25.2356 86.0518 25.509 85.3281 25.5246C85.1538 25.553 84.9751 25.5343 84.8105 25.4703C84.6459 25.4063 84.5015 25.2993 84.3922 25.1606C84.283 25.0218 84.2129 24.8563 84.1893 24.6813C84.1657 24.5063 84.1895 24.3282 84.2581 24.1655C84.3919 23.7533 84.6477 23.3914 84.9917 23.1278C85.3357 22.8642 85.7516 22.7112 86.1845 22.6891L87.5435 22.5282C87.7363 22.5282 87.9926 22.4427 88.1426 21.9718C88.2926 21.5009 88.0354 21.2009 87.2863 21.2009C86.9878 21.1843 86.6918 21.2636 86.4416 21.4272C86.1914 21.5907 86 21.83 85.8954 22.11L85.2535 22.0582ZM87.8644 22.9355C87.418 23.128 86.9378 23.23 86.4517 23.2355C86.0454 23.2891 85.3817 23.4064 85.189 24.0064C84.9963 24.6064 85.189 24.83 85.7772 24.83C86.1513 24.8384 86.5205 24.7428 86.8436 24.5539C87.1667 24.365 87.431 24.0902 87.6072 23.76L87.8644 22.9355Z" fill="#545554"/>
<path d="M90.1117 25.3482H89.3199L90.8926 20.5755H91.6417L91.3844 21.3564C91.5777 21.0971 91.8232 20.8813 92.105 20.7228C92.3869 20.5643 92.6989 20.4667 93.0208 20.4364C93.0881 20.4238 93.1571 20.4238 93.2244 20.4364L92.9462 21.26H92.6462C92.2787 21.2823 91.9266 21.4157 91.6365 21.6424C91.3464 21.8692 91.1321 22.1787 91.0217 22.53L90.1117 25.3482Z" fill="#545554"/>
<path d="M96.7154 23.8645C96.4245 24.4095 95.9826 24.859 95.4426 25.1591C95.0182 25.3942 94.5363 25.5054 94.0517 25.48C92.7245 25.48 92.2754 24.4745 92.7244 23.1164C92.8937 22.396 93.2916 21.7498 93.8588 21.2745C94.426 20.7993 95.1319 20.5205 95.8708 20.48C97.2299 20.48 97.5399 21.55 96.9408 23.23H93.5381C93.2063 24.2145 93.4845 24.7818 94.3945 24.7818C94.7081 24.7719 95.0139 24.6809 95.282 24.5178C95.5501 24.3547 95.7715 24.1249 95.9245 23.8509L96.7154 23.8645ZM96.3726 22.6127C96.5763 21.8855 96.4899 21.2 95.5272 21.2C95.1277 21.2446 94.749 21.4007 94.4342 21.6506C94.1194 21.9004 93.8813 22.2339 93.7472 22.6127H96.3726Z" fill="#545554"/>
<path d="M101.732 23.8664C101.441 24.4114 100.999 24.8609 100.459 25.1609C100.035 25.3961 99.5526 25.5073 99.0681 25.4818C97.7408 25.4818 97.2917 24.4764 97.7408 23.1182C97.9148 22.3938 98.3203 21.7458 98.8959 21.2727C99.4714 20.7995 100.185 20.527 100.93 20.4964C102.289 20.4964 102.599 21.5664 102 23.2464H98.5544C98.2226 24.2309 98.5008 24.7982 99.4108 24.7982C99.7245 24.7883 100.03 24.6973 100.298 24.5342C100.566 24.3711 100.788 24.1413 100.941 23.8673L101.732 23.8664ZM101.389 22.6146C101.593 21.8873 101.506 21.2018 100.544 21.2018C100.149 21.2509 99.7753 21.4091 99.4653 21.6587C99.1554 21.9082 98.9212 22.2392 98.789 22.6146H101.389Z" fill="#545554"/>
<path d="M103.156 25.3482H102.361L103.934 20.5755H104.683L104.425 21.3564C104.619 21.0971 104.864 20.8813 105.146 20.7228C105.428 20.5643 105.74 20.4667 106.062 20.4364C106.129 20.4238 106.198 20.4238 106.265 20.4364L105.987 21.26H105.687C105.32 21.283 104.969 21.4167 104.68 21.6434C104.39 21.8701 104.176 22.1793 104.066 22.53L103.156 25.3482Z" fill="#545554"/>
<path d="M109.642 19.7664L109.942 18.8673H110.734L110.434 19.7664H109.642ZM108.572 25.3418H107.78L109.364 20.5782H110.155L108.572 25.3418Z" fill="#545554"/>
<path d="M113.58 21.9709C113.665 21.6709 113.73 21.1791 112.724 21.1791C112.477 21.1791 111.761 21.2645 111.557 21.8427C111.429 22.2282 111.643 22.3245 112.199 22.4736L112.926 22.6773C113.825 22.9236 114.05 23.2873 113.835 23.9182C113.65 24.3948 113.32 24.8016 112.892 25.0818C112.465 25.362 111.96 25.5015 111.449 25.4809C109.576 25.4809 109.801 24.4109 109.973 23.8327H110.744C110.647 24.2073 110.562 24.7955 111.674 24.7955C111.948 24.8259 112.224 24.77 112.463 24.6356C112.703 24.5013 112.895 24.2952 113.012 24.0464C113.14 23.6718 112.915 23.5436 112.294 23.3718L111.449 23.1473C110.839 22.9864 110.518 22.6555 110.743 22.0018C110.916 21.5407 111.231 21.1463 111.642 20.8752C112.054 20.6041 112.54 20.4702 113.033 20.4927C114.724 20.4927 114.424 21.7336 114.349 21.9691L113.58 21.9709Z" fill="#545554"/>
<path d="M117.871 22.0582C118.046 21.5563 118.385 21.128 118.834 20.8427C119.282 20.5573 119.814 20.4315 120.343 20.4855C120.717 20.4855 122.054 20.5927 121.659 21.8018L120.75 24.52C120.685 24.7236 120.75 24.7982 120.921 24.7982H121.199L121.006 25.3764C120.857 25.4249 120.703 25.4536 120.546 25.4618C119.84 25.4618 119.851 25.0982 119.947 24.7446C119.407 25.2265 118.713 25.4999 117.989 25.5155C117.815 25.544 117.636 25.5252 117.471 25.4612C117.307 25.3972 117.162 25.2903 117.053 25.1515C116.944 25.0127 116.874 24.8473 116.85 24.6722C116.827 24.4972 116.85 24.3191 116.919 24.1564C117.053 23.7442 117.309 23.3823 117.653 23.1187C117.997 22.8551 118.413 22.7021 118.845 22.68L120.204 22.5127C120.397 22.5127 120.654 22.4273 120.804 21.9564C120.954 21.4855 120.696 21.1855 119.947 21.1855C119.649 21.1689 119.353 21.2482 119.103 21.4117C118.852 21.5753 118.661 21.8145 118.556 22.0946L117.871 22.0582ZM120.482 22.9355C120.035 23.128 119.555 23.23 119.069 23.2355C118.663 23.2891 117.999 23.4064 117.806 24.0064C117.614 24.6064 117.806 24.83 118.394 24.83C118.769 24.8384 119.138 24.7428 119.461 24.5539C119.784 24.365 120.048 24.0902 120.224 23.76L120.482 22.9355Z" fill="#545554"/>
<path d="M125.544 24.5709H128.829L128.572 25.3518H124.474L126.614 18.8673H127.491L125.544 24.5709Z" fill="#545554"/>
<path d="M131.225 19.7664L131.525 18.8673H132.317L132.017 19.7664H131.225ZM130.155 25.3418H129.36L130.89 20.58H131.682L130.155 25.3418Z" fill="#545554"/>
<path d="M133.687 21.2864L132.339 25.3527H131.547L132.895 21.2864H132.243L132.467 20.6227H133.12L133.387 19.8091C133.485 19.4762 133.695 19.1876 133.982 18.9925C134.269 18.7973 134.614 18.7078 134.96 18.7391H135.313L135.077 19.4564H134.756C134.414 19.4564 134.232 19.6273 134.104 20.0018L133.911 20.59H134.703L134.478 21.2536L133.687 21.2864Z" fill="#545554"/>
<path d="M138.095 23.8645C137.805 24.4095 137.363 24.859 136.823 25.1591C136.398 25.3942 135.916 25.5054 135.432 25.48C134.104 25.48 133.655 24.4745 134.104 23.1164C134.274 22.396 134.672 21.7498 135.239 21.2745C135.806 20.7993 136.512 20.5205 137.251 20.48C138.61 20.48 138.92 21.55 138.321 23.23H134.875C134.544 24.2145 134.822 24.7818 135.732 24.7818C136.045 24.7719 136.351 24.6809 136.619 24.5178C136.887 24.3547 137.109 24.1249 137.262 23.8509L138.095 23.8645ZM137.753 22.6127C137.956 21.8855 137.87 21.2 136.907 21.2C136.516 21.2527 136.147 21.4126 135.841 21.6619C135.535 21.9112 135.304 22.2403 135.174 22.6127H137.753Z" fill="#545554"/>
<path d="M107.416 7.58909C109.354 7.58909 112.767 7.58909 112.767 10.7991C112.767 13.6673 110.313 14.2773 108.337 14.2773C105.287 14.2773 103.544 13.0045 103.544 9.99727H102.613C102.613 13.4964 104.753 15.0482 108.231 15.0482C111.891 15.0482 113.685 13.3209 113.685 10.9573C113.736 10.4653 113.683 9.96805 113.529 9.49797C113.376 9.02789 113.124 8.59552 112.792 8.22903C112.46 7.86254 112.054 7.57015 111.601 7.37092C111.149 7.17168 110.659 7.07008 110.164 7.07273C112.005 6.91182 113.321 6.00273 113.321 3.93727C113.321 1.55091 111.437 0.191818 108.412 0.191818C105.202 0.191818 103.061 1.58273 102.997 4.96455H103.928C103.928 2.17182 105.726 1.00545 108.423 1.00545C110.514 1.00545 112.404 1.69 112.404 4.07636C112.404 6.74091 109.611 6.74091 107.427 6.74091V7.55455L107.416 7.58909ZM125.694 3.95273C125.544 1.72727 123.694 0.25 120.9 0.25C115.849 0.25 114.918 3.91 114.918 8.23273C114.918 12.0745 116.234 15.1245 120.536 15.1245C123.9 15.1245 125.951 12.9845 125.951 10.1482C125.951 7.03455 123.65 5.29 120.6 5.29C119.606 5.22739 118.618 5.4803 117.776 6.01267C116.934 6.54503 116.282 7.32964 115.913 8.25455C115.913 4.84091 116.415 1.03091 120.803 1.03091C122.729 1.03091 124.621 1.82273 124.826 3.94L125.694 3.95273ZM120.717 6.09273C123.51 6.09273 124.997 7.83727 124.997 10.1373C125.017 10.7049 124.917 11.2703 124.703 11.7965C124.489 12.3227 124.166 12.7978 123.756 13.1907C123.346 13.5837 122.858 13.8856 122.323 14.0768C121.788 14.2679 121.219 14.344 120.653 14.3C116.834 14.3 116.062 11.6136 116.062 10.1373C116.062 7.79364 117.721 6.09273 120.698 6.09273H120.717ZM139.102 7.66545C139.102 3.70636 137.625 0.174545 133.141 0.174545C128.656 0.174545 127.18 3.67364 127.18 7.66545C127.18 11.6573 128.7 15.1564 133.141 15.1564C137.582 15.1564 139.102 11.7191 139.102 7.66364V7.66545ZM138.171 7.66545C138.171 11.12 137.101 14.3018 133.131 14.3018C129.161 14.3018 128.091 11.0291 128.091 7.66545C128.091 4.30182 129.268 1.02909 133.131 1.02909C136.994 1.02909 138.171 4.23909 138.171 7.66364V7.66545Z" fill="#545554"/>
</svg>
