<?xml version="1.0" encoding="utf-8"?>
<!-- Generator: Adobe Illustrator 27.1.1, SVG Export Plug-In . SVG Version: 6.00 Build 0)  -->
<svg version="1.1" id="Layer_1" xmlns="http://www.w3.org/2000/svg" xmlns:xlink="http://www.w3.org/1999/xlink" x="0px" y="0px"
	 viewBox="0 0 210 80.5" style="enable-background:new 0 0 210 80.5;" xml:space="preserve">
<style type="text/css">
	.st0{fill:#7C7C7C;}
	.st1{fill:#545554;}
</style>
<path class="st0" d="M200.5,21.9c-0.5-0.5-1.5-1.2-2.9-2.1c-1.3-0.9-3-1.7-5-2.5c-1.9-0.8-4-1.5-6.3-2.1c-2.3-0.7-4.6-1-6.9-1
	c-4.1,0-7.2,0.8-9.4,2.3c-2.1,1.5-3.1,3.7-3.1,6.5c0,2.1,0.7,3.8,2,5.1s3.3,2.3,5.9,3.2s5.9,1.8,9.9,2.9c5.1,1.2,9.6,2.8,13.3,4.6
	c3.8,1.8,6.7,4.1,8.7,7c2.1,2.9,3.1,6.7,3.1,11.5c0,4.2-0.8,7.8-2.3,10.8c-1.5,2.9-3.7,5.3-6.4,7.2c-2.7,1.8-5.8,3.2-9.3,4.1
	c-3.5,0.8-7.1,1.2-11,1.2s-7.8-0.4-11.7-1.2c-3.9-0.8-7.6-1.9-11.2-3.4c-3.6-1.5-6.9-3.4-9.9-5.5l6.7-13.1c0.7,0.7,1.8,1.5,3.5,2.6
	c1.7,1,3.7,2.1,6.2,3.2c2.4,1,5.1,1.9,7.9,2.6c2.9,0.7,5.8,1.1,8.7,1.1c4.1,0,7.2-0.7,9.4-2.1s3.2-3.4,3.2-5.9
	c0-2.3-0.8-4.2-2.5-5.5s-4-2.5-7-3.4c-3-1-6.6-2.1-10.7-3.3c-4.9-1.4-9-2.9-12.3-4.6c-3.3-1.8-5.8-4-7.4-6.6
	c0.1-3.2-0.5-7.3-2.4-9.9c0-5.4,1.2-9.8,3.7-13.4c2.6-3.7,6-6.4,10.4-8.3C169.7,2,174.5,1,179.8,1c3.7,0,7.1,0.4,10.4,1.2
	c3.3,0.8,6.4,1.9,9.3,3.2s5.4,2.8,7.7,4.3L200.5,21.9z"/>
<path class="st1" d="M102.1,79V0.8h28.4c8.5,0,15.6,1.8,21.4,5.3c5.7,3.5,10,8.2,12.9,14.1s4.3,12.4,4.3,19.6
	c0,7.9-1.6,14.8-4.7,20.7c-3.2,5.9-7.6,10.4-13.4,13.7c-5.7,3.2-12.5,4.8-20.4,4.8C130.6,79,102.1,79,102.1,79z M153.8,39.8
	c0-5.1-0.9-9.5-2.8-13.3c-1.8-3.9-4.5-6.9-7.9-9c-3.5-2.2-7.6-3.3-12.6-3.3h-13.2v51.6h13.2c5,0,9.2-1.1,12.7-3.3
	c3.5-2.3,6.1-5.4,7.8-9.3C152.9,49.2,153.8,44.7,153.8,39.8z"/>
<path class="st0" d="M106.4,21.9c-0.5-0.5-1.5-1.2-2.9-2.1c-1.3-0.9-3-1.7-5-2.5c-1.9-0.8-4-1.5-6.3-2.1c-2.3-0.7-4.6-1-6.9-1
	c-4.1,0-7.2,0.8-9.4,2.3c-2.1,1.5-3.1,3.7-3.1,6.5c0,2.1,0.7,3.8,2,5.1c1.3,1.2,3.3,2.3,5.9,3.2s5.9,1.8,9.9,2.9
	c5.1,1.2,9.6,2.8,13.3,4.6c3.8,1.8,6.7,4.1,8.7,7c2.1,2.9,3.1,6.7,3.1,11.5c0,4.2-0.8,7.8-2.3,10.8c-1.5,2.9-3.7,5.3-6.4,7.2
	c-2.7,1.8-5.8,3.2-9.3,4.1c-3.5,0.8-7.1,1.2-11,1.2s-7.8-0.4-11.7-1.2c-3.9-0.8-7.6-1.9-11.2-3.4c-3.6-1.5-6.9-3.4-9.9-5.5l6.7-13.1
	c0.7,0.7,1.8,1.5,3.5,2.6c1.7,1,3.7,2.1,6.2,3.2c2.4,1,5.1,1.9,7.9,2.6c2.9,0.7,5.8,1.1,8.7,1.1c4.1,0,7.2-0.7,9.4-2.1
	c2.1-1.4,3.2-3.4,3.2-5.9c0-2.3-0.8-4.2-2.5-5.5s-4-2.5-7-3.4c-3-1-6.6-2.1-10.7-3.3c-4.9-1.4-9-2.9-12.3-4.6
	c-3.3-1.8-5.8-4-7.4-6.6s-2.4-5.9-2.4-9.9c0-5.4,1.2-9.8,3.7-13.4c2.6-3.7,6-6.4,10.4-8.3C75.6,2,80.4,1,85.7,1
	c3.7,0,7.1,0.4,10.4,1.2s6.4,1.9,9.3,3.2s5.4,2.8,7.7,4.3L106.4,21.9z"/>
<path class="st1" d="M0,39.8c0-4.8,0.8-9.4,2.5-14c1.8-4.6,4.3-8.8,7.6-12.6s7.3-6.8,12.1-9s10.3-3.4,16.4-3.4
	c7.2,0,13.4,1.6,18.6,4.7c5.3,3.2,9.2,7.3,11.8,12.3l-11.7,8c-1.3-2.9-3-5.3-5.2-6.9c-2.1-1.8-4.4-3-6.8-3.6
	c-2.4-0.7-4.8-1.1-7.2-1.1c-3.8,0-7.2,0.8-10,2.3s-5.1,3.6-7,6.1s-3.3,5.3-4.3,8.4c-0.9,3.1-1.3,6.2-1.3,9.3c0,3.5,0.6,6.8,1.7,10
	s2.6,6,4.6,8.5c2.1,2.4,4.5,4.4,7.3,5.8c2.9,1.4,6,2.1,9.4,2.1c2.4,0,4.9-0.4,7.4-1.2c2.5-0.8,4.8-2.1,6.9-3.9c2.1-1.8,3.8-4,5-6.8
	L70.1,62c-1.5,3.9-4.1,7.2-7.6,9.9c-3.5,2.7-7.3,4.8-11.7,6.2c-4.3,1.4-8.6,2.1-12.9,2.1c-5.6,0-10.7-1.1-15.3-3.4s-8.6-5.4-12-9.3
	c-3.3-3.9-5.9-8.2-7.8-13C0.9,49.6,0,44.7,0,39.8z"/>
</svg>
