<svg width="171" height="35" viewBox="0 -5 171 35" fill="none" xmlns="http://www.w3.org/2000/svg">
<path d="M10.3375 0.0189209H9.31636C9.18399 0.0189209 9.08944 0.131334 9.08944 0.262481V4.74023C9.08944 4.87138 9.2029 4.98379 9.31636 4.98379C9.67565 4.98379 10.2429 4.98379 10.432 4.98379C14.0627 5.11494 16.8803 8.39363 16.8803 12.1407C16.8803 16.1126 13.0227 19.2976 9.08944 19.2976H5.83694C5.70457 19.2976 5.61002 19.1852 5.61002 19.0541V15.944C5.61002 15.8128 5.49656 15.7004 5.3831 15.7004H0.617806C0.485437 15.7004 0.390888 15.8128 0.390888 15.944V23.7566C0.390888 23.8878 0.504347 24.0002 0.617806 24.0002H9.07053C9.07053 24.0002 9.9593 24.0002 10.432 24.0002C16.9749 24.0002 22.2886 18.6606 22.3075 12.047C22.3453 5.43344 16.8992 0.0189209 10.3375 0.0189209Z" fill="#545554"/>
<path d="M1.97932 4.72134H3.34083C3.41647 4.72134 3.4732 4.66514 3.4732 4.57146V3.18504C3.4732 3.1101 3.41647 3.03516 3.34083 3.03516H1.97932C1.90368 3.03516 1.84695 3.09136 1.84695 3.18504V4.57146C1.84695 4.6464 1.90368 4.72134 1.97932 4.72134Z" fill="#545554"/>
<path d="M2.33861 7.02575H3.00046C3.0761 7.02575 3.13283 6.96955 3.13283 6.87587V6.2014C3.13283 6.12646 3.0761 6.05151 3.00046 6.05151H2.33861C2.26297 6.05151 2.20624 6.10772 2.20624 6.2014V6.87587C2.20624 6.96955 2.26297 7.02575 2.33861 7.02575Z" fill="#545554"/>
<path d="M1.97932 10.0609H3.34083C3.41647 10.0609 3.4732 10.0047 3.4732 9.91106V8.52464C3.4732 8.4497 3.41647 8.37476 3.34083 8.37476H1.97932C1.90368 8.37476 1.84695 8.43096 1.84695 8.52464V9.91106C1.84695 10.0047 1.90368 10.0609 1.97932 10.0609Z" fill="#545554"/>
<path d="M2.33861 12.4403H3.00046C3.0761 12.4403 3.13283 12.3841 3.13283 12.2904V11.6159C3.13283 11.541 3.0761 11.4661 3.00046 11.4661H2.33861C2.26297 11.4661 2.20624 11.5223 2.20624 11.6159V12.2904C2.20624 12.3841 2.26297 12.4403 2.33861 12.4403Z" fill="#545554"/>
<path d="M1.97932 15.4192H3.34083C3.41647 15.4192 3.4732 15.363 3.4732 15.2693V13.8829C3.4732 13.808 3.41647 13.733 3.34083 13.733H1.97932C1.90368 13.733 1.84695 13.7892 1.84695 13.8829V15.2693C1.84695 15.363 1.90368 15.4192 1.97932 15.4192Z" fill="#545554"/>
<path d="M3.85141 2.24824C3.85141 2.32319 3.90814 2.39813 3.98377 2.39813H6.06386C6.1395 2.39813 6.19623 2.34192 6.19623 2.24824V0.149883C6.19623 0.074942 6.1395 0 6.06386 0H3.98377C3.90814 0 3.85141 0.0562067 3.85141 0.149883V2.24824Z" fill="#545554"/>
<path d="M4.66453 4.15935H5.04272C5.09945 4.15935 5.13727 4.12188 5.13727 4.06567V3.69097C5.13727 3.63476 5.09945 3.59729 5.04272 3.59729H4.66453C4.6078 3.59729 4.56998 3.63476 4.56998 3.69097V4.06567C4.56998 4.12188 4.6078 4.15935 4.66453 4.15935Z" fill="#545554"/>
<path d="M6.06386 5.37708H3.98377C3.90814 5.37708 3.85141 5.43328 3.85141 5.52696V7.62532C3.85141 7.70026 3.90814 7.7752 3.98377 7.7752H6.06386C6.1395 7.7752 6.19623 7.719 6.19623 7.62532V5.52696C6.19623 5.43328 6.1395 5.37708 6.06386 5.37708Z" fill="#545554"/>
<path d="M4.66453 9.51751H5.04272C5.09945 9.51751 5.13727 9.48003 5.13727 9.42383V9.04912C5.13727 8.99292 5.09945 8.95544 5.04272 8.95544H4.66453C4.6078 8.95544 4.56998 8.99292 4.56998 9.04912V9.42383C4.56998 9.48003 4.6078 9.51751 4.66453 9.51751Z" fill="#545554"/>
<path d="M6.06386 10.7167H3.98377C3.90814 10.7167 3.85141 10.7729 3.85141 10.8666V12.9649C3.85141 13.0399 3.90814 13.1148 3.98377 13.1148H6.06386C6.1395 13.1148 6.19623 13.0586 6.19623 12.9649V10.8666C6.19623 10.7916 6.1395 10.7167 6.06386 10.7167Z" fill="#545554"/>
<path d="M5.13727 14.3888C5.13727 14.3326 5.09945 14.2952 5.04272 14.2952H4.66453C4.6078 14.2952 4.56998 14.3326 4.56998 14.3888V14.7636C4.56998 14.8198 4.6078 14.8572 4.66453 14.8572H5.04272C5.09945 14.8572 5.13727 14.8198 5.13727 14.7636V14.3888Z" fill="#545554"/>
<path d="M8.52215 13.3959H6.44206C6.36642 13.3959 6.30969 13.4521 6.30969 13.5458V15.6441C6.30969 15.7191 6.36642 15.794 6.44206 15.794H8.52215C8.59779 15.794 8.65452 15.7378 8.65452 15.6441V13.5458C8.65452 13.4708 8.59779 13.3959 8.52215 13.3959Z" fill="#545554"/>
<path d="M8.52215 8.05627H6.44206C6.36642 8.05627 6.30969 8.11248 6.30969 8.20616V10.3045C6.30969 10.3795 6.36642 10.4544 6.44206 10.4544H8.52215C8.59779 10.4544 8.65452 10.3982 8.65452 10.3045V8.20616C8.65452 8.11248 8.59779 8.05627 8.52215 8.05627Z" fill="#545554"/>
<path d="M8.52215 2.69788H6.44206C6.36642 2.69788 6.30969 2.75408 6.30969 2.84776V4.94612C6.30969 5.02106 6.36642 5.096 6.44206 5.096H8.52215C8.59779 5.096 8.65452 5.0398 8.65452 4.94612V2.84776C8.65452 2.75408 8.59779 2.69788 8.52215 2.69788Z" fill="#545554"/>
<path d="M38.4187 19.2413H30.798L28.9259 23.7003H24.4632L34.8447 0.0187988H35.0905L45.4721 23.7003H40.2151L38.4187 19.2413ZM36.9248 15.4755L34.7123 9.92981L32.4053 15.4755H36.9248Z" fill="#545554"/>
<path d="M60.8647 0.917969V5.24584H55.2674V23.7002H50.729V5.24584H45.3586V0.917969H60.8647Z" fill="#545554"/>
<path d="M74.7446 19.2413H67.105L65.2329 23.7003H60.7702L71.1517 0.0187988H71.3975L81.7791 23.7003H76.5221L74.7446 19.2413ZM73.2318 15.4755L71.0193 9.92981L68.7123 15.4755H73.2318Z" fill="#545554"/>
<path d="M92.1795 4.7775C91.1773 4.7775 90.402 4.96485 89.8536 5.3583C89.3052 5.75174 89.0216 6.33253 89.0216 7.11942C89.0216 7.8501 89.4187 8.46837 90.2318 9.03043C91.026 9.57375 92.1039 10.0983 93.4276 10.5855C94.5055 10.9789 95.432 11.4286 96.2073 11.9344C96.9827 12.4403 97.6256 13.1335 98.1362 14.0328C98.6467 14.9133 98.8925 16.0375 98.8925 17.4051C98.8925 18.5855 98.59 19.6721 97.966 20.6651C97.3419 21.6581 96.4532 22.4637 95.2619 23.0445C94.0705 23.6253 92.6523 23.925 91.0071 23.925C89.6267 23.925 88.2652 23.719 86.9226 23.3255C85.5611 22.9321 84.313 22.3138 83.1406 21.4894L85.1451 17.9859C85.9393 18.5667 86.8469 19.0351 87.8681 19.4098C88.8892 19.7845 89.7969 19.9719 90.61 19.9719C91.5744 19.9719 92.4065 19.7658 93.1061 19.3724C93.8058 18.9789 94.1651 18.3232 94.1651 17.4051C94.1651 16.2248 93.0494 15.2131 90.818 14.3325C89.5132 13.8079 88.4165 13.3208 87.5277 12.8524C86.6578 12.3841 85.9014 11.6908 85.2585 10.8103C84.6156 9.92972 84.313 8.8056 84.313 7.47539C84.313 5.50818 84.956 3.93441 86.2607 2.73535C87.5655 1.53628 89.3052 0.880542 91.461 0.786865C93.1628 0.786865 94.6 0.97422 95.7346 1.36766C96.8881 1.74237 98.0038 2.2857 99.0816 2.99764L97.3608 6.42621C95.3942 5.33956 93.6545 4.7775 92.1795 4.7775Z" fill="#545554"/>
<path d="M108.045 17.3489C108.48 18.0047 109.066 18.548 109.804 18.9602C110.541 19.3724 111.316 19.5785 112.148 19.5785C113.037 19.5785 113.869 19.3724 114.626 18.9602C115.382 18.548 115.968 18.0047 116.384 17.3489C116.819 16.6932 117.027 16 117.027 15.2693V0.899292H121.49V15.363C121.49 16.993 121.074 18.4731 120.242 19.7658C119.41 21.0773 118.275 22.1077 116.857 22.8384C115.439 23.5691 113.869 23.9438 112.148 23.9438C110.446 23.9438 108.877 23.5691 107.459 22.8384C106.04 22.1077 104.925 21.0773 104.093 19.7658C103.261 18.4543 102.864 16.993 102.864 15.363V0.899292H107.402V15.2693C107.383 16 107.61 16.6932 108.045 17.3489Z" fill="#545554"/>
<path d="M126.955 0.917969H133.838C136.769 0.917969 139.19 1.48003 141.081 2.60415C142.972 3.72827 144.352 5.18963 145.222 6.96949C146.092 8.74935 146.527 10.6604 146.527 12.7212C146.527 14.9133 145.997 16.843 144.957 18.5105C143.917 20.1779 142.518 21.4707 140.759 22.37C139 23.2693 137.072 23.7189 134.954 23.7189H126.955V0.917969ZM134.178 19.3723C136.523 19.3723 138.395 18.7728 139.776 17.5737C141.156 16.3746 141.837 14.651 141.837 12.4027C141.837 10.5854 141.459 9.14279 140.702 8.07488C139.946 7.00696 139.057 6.25755 138.055 5.84537C137.053 5.43319 136.088 5.2271 135.2 5.2271H131.512V19.3723H134.178Z" fill="#545554"/>
<path d="M170.391 23.7002H165.852V14.4449H155.566V23.7002H151.027V0.917969H155.566V10.117H165.852V0.917969H170.391V23.7002Z" fill="#545554"/>
</svg>
