<svg width="139" height="33" viewBox="0 0 139 33" fill="none" xmlns="http://www.w3.org/2000/svg">
<path d="M16.4055 0C7.39259 0 0 7.34196 0 16.4055C0 25.469 7.34196 32.8109 16.4055 32.8109C20.8106 32.8109 24.9626 31.0894 28.0513 27.9501L27.7982 27.6969L26.6336 26.5323L26.5829 26.5829C23.8993 29.2666 20.2537 30.7856 16.4561 30.7856C8.55717 30.7856 2.076 24.355 2.076 16.4055C2.076 8.45591 8.50654 2.02537 16.4055 2.02537C24.3044 2.02537 30.7856 8.45591 30.7856 16.4055H32.659H32.8616C32.8109 7.34196 25.469 0 16.4055 0Z" fill="#545554"/>
<path d="M16.4042 16.4055H4.25195V18.2283H9.66981C12.4041 18.2283 14.632 20.4562 14.632 23.1905V28.6083H16.4548L16.4042 16.4055Z" fill="#545554"/>
<path d="M16.4062 16.4055H28.5584V14.5827H23.1912C20.457 14.5827 18.2291 12.3548 18.2291 9.62052V4.20267H18.0265H16.4062V16.4055" fill="#545554"/>
<path d="M89.7245 22.836C86.7371 22.836 84.3066 20.4055 84.3066 17.4181C84.3066 14.4307 86.7371 12.0002 89.7245 12.0002C92.7119 12.0002 95.1423 14.4307 95.1423 17.4181C95.1423 20.4055 92.7119 22.836 89.7245 22.836ZM89.7245 14.0762C87.9017 14.0762 86.3826 15.5953 86.3826 17.4181C86.3826 19.2409 87.9017 20.76 89.7245 20.76C91.5473 20.76 93.0664 19.2409 93.0664 17.4181C93.0664 15.5953 91.598 14.0762 89.7245 14.0762Z" fill="#545554"/>
<path d="M97.166 18.4308V12.2535H99.4446V18.0764C99.4446 19.7473 100.204 20.76 101.521 20.76C102.989 20.76 104.052 19.5954 104.052 17.3675V12.3041H106.331V22.6335H104.052V21.2157C103.445 22.279 102.331 22.836 101.014 22.836C98.6344 22.836 97.166 21.1145 97.166 18.4308Z" fill="#545554"/>
<path d="M109.166 12.2534H111.445V14.0763C111.85 12.9117 113.014 12.1522 114.179 12.1522C114.483 12.1522 114.786 12.1522 115.09 12.2534V14.5826C114.685 14.4307 114.381 14.3801 113.976 14.3801C112.66 14.3801 111.495 15.494 111.495 17.57V22.6334H109.217L109.166 12.2534Z" fill="#545554"/>
<path d="M132.914 12.0002C129.977 12.0002 127.598 14.4307 127.598 17.4181C127.598 20.4055 129.977 22.836 132.914 22.836C134.686 22.836 136.307 22.0258 137.421 20.6587L135.699 19.4941C135.092 20.203 134.231 20.8106 132.914 20.8106C131.395 20.8106 130.129 19.6966 129.775 18.2282H138.13C138.18 17.9751 138.18 17.7219 138.18 17.4687C138.231 14.4307 135.851 12.0002 132.914 12.0002ZM129.876 16.5067C130.281 15.1396 131.496 14.0762 132.965 14.0762C134.433 14.0762 135.648 15.0889 136.054 16.5067H129.876Z" fill="#545554"/>
<path d="M124.459 19.4435C123.851 20.1524 122.99 20.76 121.674 20.76C119.851 20.76 118.332 19.241 118.332 17.4182C118.332 15.5953 119.851 14.0763 121.674 14.0763C122.99 14.0763 123.851 14.6839 124.459 15.3928L126.18 14.2282C125.066 12.8105 123.446 12.051 121.674 12.051C118.686 12.051 116.256 14.4814 116.256 17.4688C116.256 20.4562 118.686 22.8867 121.674 22.8867C123.446 22.8867 125.066 22.0765 126.18 20.7094L124.459 19.4435Z" fill="#545554"/>
<path d="M57.0137 26.9373V12.2534H59.2922V13.6205C59.8492 12.8104 61.115 12.0002 62.6341 12.0002C65.4696 12.0002 67.6468 14.4307 67.6468 17.3675C67.6468 20.3043 65.4189 22.7853 62.5834 22.7853C61.115 22.7853 59.8492 22.0258 59.2416 21.165V26.8867L57.0137 26.9373ZM65.267 17.4181C65.267 15.5446 64.0012 14.1269 62.1784 14.1269C60.3555 14.1269 59.0897 15.5953 59.0897 17.4181C59.0897 19.2409 60.3555 20.7093 62.1784 20.7093C64.0012 20.76 65.267 19.2916 65.267 17.4181Z" fill="#545554"/>
<path d="M69.4197 8.45585C69.4197 7.6457 70.1286 6.93682 70.9388 6.93682C71.7995 6.93682 72.4578 7.59507 72.4578 8.45585C72.4578 9.31663 71.7995 9.97487 70.9388 9.97487C70.1286 9.97487 69.4197 9.31663 69.4197 8.45585ZM69.8248 12.2534H72.1033V22.5828H69.8248V12.2534Z" fill="#545554"/>
<path d="M74.584 20.6081L76.2549 19.3928C76.66 20.3043 77.6727 20.8106 78.736 20.8106C79.5461 20.8106 80.2044 20.4562 80.2044 19.6966C80.2044 19.089 79.8499 18.7852 78.6347 18.3802L77.7233 18.127C75.9005 17.6206 74.9891 16.5067 74.9891 14.937C74.9891 13.1142 76.6093 12.0002 78.6853 12.0002C80.255 12.0002 81.4702 12.6079 82.1791 13.7724L80.6094 14.9877C80.1537 14.3294 79.4955 13.9243 78.6347 13.9243C77.9258 13.9243 77.2676 14.2788 77.2676 14.8864C77.2676 15.3927 77.4701 15.7978 78.4828 16.1016L79.5461 16.4054C81.369 16.9624 82.4323 17.8232 82.4323 19.5447C82.4323 21.5195 80.812 22.7347 78.6853 22.7347C76.9132 22.836 75.3435 22.1271 74.584 20.6081Z" fill="#545554"/>
<path d="M49.5197 12.0002C46.5829 12.0002 44.2031 14.4307 44.2031 17.4181C44.2031 20.4055 46.5829 22.836 49.5197 22.836C51.3425 22.836 52.9122 22.0258 54.0262 20.6587L52.3046 19.4941C51.697 20.203 50.8362 20.8106 49.5197 20.8106C48.0007 20.8106 46.7348 19.6966 46.3804 18.2282H54.735C54.7857 17.9751 54.7857 17.7219 54.7857 17.4687C54.8363 14.4307 52.4565 12.0002 49.5197 12.0002ZM46.431 16.5067C46.8361 15.1396 48.0513 14.0762 49.5197 14.0762C50.9881 14.0762 52.2033 15.0889 52.6084 16.5067H46.431Z" fill="#545554"/>
</svg>
