<svg width="247" height="111" viewBox="0 0 247 111" fill="none" xmlns="http://www.w3.org/2000/svg">
<path d="M49.0323 46.671H49.9005V0.10084H39.4301V46.671H49.0323ZM15.7823 109.666H28.1425V65.1869H43.9247V54.2202H0V65.1869H15.7823V109.666ZM102.508 109.666C110.935 109.717 119.465 110.074 127.892 109.309C129.936 109.105 132.081 108.544 134.073 107.983C142.602 105.432 150.315 98.9541 152.664 90.1297C155.218 80.5403 153.685 68.6044 145.718 61.7694C139.946 56.8216 131.979 54.3222 124.47 54.1692C117.167 54.0162 109.863 54.1692 102.508 54.1692C102.508 72.6851 102.355 91.2009 102.508 109.666ZM104.755 46.671C112.008 46.722 119.363 47.2321 126.513 46.365C140.917 44.6307 149.191 34.0211 147.608 19.6369C146.688 11.5266 141.172 4.64054 133.358 2.14116C124.164 -0.817302 114.255 0.151851 104.704 0.151851C104.704 15.6582 104.602 31.1646 104.755 46.671ZM64.0995 110.533C71.914 111.655 80.5457 110.89 87.4409 106.758C92.5995 103.647 96.9409 98.6481 98.8307 92.8842C102.048 83.1927 101.333 70.7978 94.2339 62.8405C86.164 53.7611 73.7016 50.8537 62.0565 53.7611C50.0538 56.7196 42.9032 65.1869 40.9624 77.1737C38.5108 92.5781 48.0618 108.34 64.0995 110.533ZM198.632 46.671H210.43L190.153 0.10084H181.47L161.551 46.161L160.989 44.9878V0.151851H150.519V46.722C157.925 46.8241 165.433 46.8241 172.839 46.722L176.72 36.9795H194.648C195.823 40.244 197.151 43.5085 198.632 46.671ZM85.7554 46.671H99.4436V0.10084H88.9731V32.3888L69.1559 0.10084H55.0081V46.671H65.4785V16.2193C65.4785 15.0462 65.5807 13.873 66.1425 14.8421C72.7312 25.4518 79.2178 36.0614 85.7554 46.671ZM225.242 109.666H226.11L226.161 86.0491C233.159 75.4905 240.105 64.8298 247 54.2202H232.29L219.93 74.7254C216.406 68.4514 212.78 62.2284 209.306 55.9545C208.898 55.1893 208.54 54.8323 208.03 54.2202H192.809L213.75 86.1511V109.717H225.242V109.666ZM194.29 109.666H208.336L184.075 54.2202H173.86L149.804 109.666H163.441L168.14 97.8319H189.438L194.29 109.666ZM172.124 87.4263C173.962 81.7135 176.363 76.1536 178.661 70.5937L185.301 87.4263H172.124ZM179.989 28.0022L185.454 13.975L191.022 28.0022H179.989ZM114.868 98.189C114.613 87.3243 114.817 76.4086 114.868 65.544C122.989 65.0849 130.548 65.2379 136.882 70.8998C142.347 75.7965 141.785 85.029 138.567 90.8439C134.226 98.6991 122.683 98.9031 114.868 98.189ZM115.226 37.0816C115.124 27.9511 115.175 18.8717 115.226 9.74133C121.712 9.43529 128.403 9.48629 133.46 14.077C138.005 18.2086 137.801 25.5538 135.247 30.5526C131.723 37.4386 121.866 37.6426 115.226 37.0816ZM68.9005 99.5662C59.5027 99.1071 53.0161 90.1808 53.4758 81.2544C53.7312 76.1536 55.5699 71.7159 59.2473 68.1964C64.457 63.1976 73.1398 63.1466 79.1667 66.2581C85.2446 69.4206 88.3091 76.7147 87.7473 83.2947C87.2876 88.4465 85.2446 92.9352 81.2097 96.1997C77.9919 98.9031 73.0887 99.8212 68.9005 99.5662Z" fill="#545554"/>
</svg>
