<svg width="281" height="68" viewBox="0 0 281 68" fill="none" xmlns="http://www.w3.org/2000/svg">
<path d="M62.8579 24.4307C63.0164 20.1116 65.1407 17.06 69.0902 15.3581C71.9305 14.1375 74.765 14.4544 77.4938 15.8804C78.7086 16.5142 79.8001 17.3065 80.5454 18.4449C81.3728 19.7066 82.0536 21.0564 82.2238 22.6057C82.4702 24.8591 82.6404 27.1302 83.0277 29.3602C83.3505 31.2323 84.2073 32.9517 85.1404 34.6066C86.1087 36.3202 87.2941 37.8929 88.8257 39.1194C90.0523 40.0995 91.4431 40.8741 92.7987 41.6781C94.5299 42.705 96.4841 43.0337 98.4324 43.3858C100.504 43.7555 101.877 45.0583 102.446 47.0242C103.139 49.4127 102.628 51.584 100.657 53.2506C99.4594 54.26 98.0451 54.5241 96.4958 54.4302C94.5357 54.3128 93.1625 53.2389 92.1297 51.7425C91.6837 51.0911 91.49 50.2049 91.3785 49.3951C90.8034 45.2696 89.1837 41.6429 86.1439 38.7732C84.1486 36.8894 81.7015 35.7392 79.0431 35.0233C77.2121 34.5303 75.3694 34.3543 73.4739 34.3601C71.2028 34.366 68.9728 33.9024 67.1067 32.5468C66.0621 31.7898 65.1701 30.7511 64.3954 29.7006C63.2687 28.1748 62.9166 26.3439 62.8579 24.4307Z" fill="#545554"/>
<path d="M57.6937 34.8766C57.6937 40.3049 57.6937 45.7273 57.6937 51.1556C57.6937 51.8657 57.6996 52.5699 57.6996 53.28C57.6996 53.726 57.4883 53.949 57.0189 53.9373C54.3898 53.8786 54.7595 54.3187 54.736 51.7894C54.7243 50.692 54.7654 49.5887 54.7184 48.4913C54.7067 48.2038 54.4602 47.9221 54.3194 47.6404C54.0025 47.8048 53.58 47.8869 53.3804 48.1451C52.1715 49.6944 50.8218 51.0559 49.161 52.1356C47.2244 53.3974 45.0825 53.9607 42.8524 54.4419C40.3642 54.976 38.0051 54.6004 35.6343 54.0018C34.4371 53.7025 33.2458 53.3622 32.0897 52.9279C31.4266 52.6814 30.7987 52.2648 30.2353 51.8246C29.1849 51.0031 28.064 50.2167 27.2013 49.2191C26.0276 47.8634 25.0065 46.3728 24.6134 44.536C24.3669 43.3799 23.9385 42.2649 23.6392 41.1206C23.516 40.657 23.4455 40.1582 23.4455 39.677C23.4338 32.0245 23.4397 24.3721 23.4221 16.7255C23.4221 16.1328 23.6216 15.8687 24.226 15.8922C24.7366 15.9157 25.253 15.8804 25.7636 15.857C26.2448 15.8335 26.5088 16.0565 26.5441 16.526C26.5734 16.9133 26.5793 17.3065 26.5793 17.6997C26.5793 24.2488 26.5675 30.8039 26.5969 37.3531C26.6027 38.7673 26.5851 40.2169 26.902 41.5783C27.4595 44.0079 28.3809 46.2965 30.3175 48.0571C33.2576 50.7213 36.7493 51.7073 40.6224 51.5958C41.6494 51.5664 42.7351 51.6779 43.6799 51.3728C45.2644 50.8622 46.7784 50.1228 48.2749 49.3775C48.9615 49.0371 49.5718 48.509 50.1411 47.9925C51.4791 46.7836 52.371 45.2696 53.1692 43.6557C54.3781 41.2203 54.6539 38.6382 54.6597 35.9916C54.6773 29.9529 54.6656 23.9143 54.6656 17.8757C54.6656 17.6058 54.6715 17.3358 54.6539 17.0717C54.5952 15.9802 54.648 15.9157 55.7689 15.9215C57.9754 15.9274 57.6703 15.7631 57.6879 17.7173C57.7289 23.439 57.6996 29.1548 57.6996 34.8766C57.7113 34.8766 57.6996 34.8766 57.6937 34.8766Z" fill="#545554"/>
<path d="M109.183 32.5938C109.183 28.3626 109.183 24.1373 109.183 19.9062C109.183 18.7736 109.001 18.5975 107.857 18.5975C106.977 18.5975 106.097 18.5917 105.216 18.6093C104.676 18.6151 104.418 18.4039 104.407 17.8346C104.354 15.9978 104.389 15.9509 106.237 15.9509C106.824 15.9509 107.411 15.9509 107.998 15.9391C108.972 15.9157 109.142 15.7631 109.154 14.7596C109.178 11.8253 109.178 8.89113 109.189 5.95691C109.189 5.76325 109.195 5.56372 109.195 5.37007C109.195 4.88885 109.436 4.67172 109.917 4.63651C110.498 4.6013 111.073 4.49568 111.654 4.47807C111.801 4.4722 112.035 4.66 112.088 4.81258C112.165 5.02971 112.106 5.29378 112.106 5.54026C112.112 8.62119 112.112 11.7021 112.124 14.783C112.129 15.7455 112.311 15.9391 113.291 15.945C116.883 15.9567 120.48 15.9391 124.072 15.9685C124.441 15.9685 125.075 16.1269 125.128 16.3323C125.281 16.9368 125.286 17.6175 125.169 18.2337C125.134 18.4156 124.524 18.5975 124.171 18.5975C120.674 18.621 117.182 18.6151 113.685 18.6093C112.247 18.6034 112.1 18.7619 112.1 20.1996C112.106 27.5586 112.047 34.9177 112.141 42.2708C112.17 44.2719 112.358 46.3787 113.045 48.2332C113.726 50.0817 115.363 51.4021 117.505 51.5547C119.031 51.6603 120.592 51.6251 122.112 51.4608C123.027 51.361 123.919 50.9385 124.788 50.5747C125.204 50.3986 125.427 50.4103 125.586 50.827C125.639 50.962 125.68 51.1028 125.732 51.2436C126.401 52.9337 126.36 53.0687 124.553 53.5265C122.88 53.949 121.202 54.4126 119.5 54.6063C118.473 54.7236 117.358 54.4654 116.337 54.1837C115.087 53.8375 113.831 53.4737 112.769 52.6169C111.085 51.2613 110.064 49.5418 109.606 47.4526C108.861 44.0666 109.307 40.6335 109.201 37.224C109.142 35.6747 109.183 34.1372 109.183 32.5938Z" fill="#545554"/>
<path d="M13.3166 37.0655C13.3166 30.3403 13.3166 23.6151 13.3166 16.8957C13.3166 16.0272 13.434 15.9039 14.2849 15.9215C16.2625 15.9568 16.2391 15.6164 16.2391 17.8523C16.2332 30.8332 16.2567 43.8201 16.2215 56.8011C16.2156 58.233 16.11 59.7177 15.7168 61.0792C14.9187 63.8197 13.387 65.9969 10.5584 67.1354C9.38473 67.6107 8.24038 67.8161 7.01387 67.8161C5.37658 67.822 3.73342 67.8396 2.17829 67.2351C1.59144 67.0063 0.992867 66.7657 0.458839 66.4429C0.235838 66.3079 0.112601 65.95 0.0187061 65.6683C-0.0341098 65.504 0.0363085 65.281 0.0891245 65.0932C0.476441 63.5674 0.4823 63.6261 1.94941 64.1484C4.82494 65.1753 7.72396 65.4101 10.5232 63.8725C10.9516 63.6378 11.3565 63.227 11.5854 62.7986C12.0197 61.9946 12.2837 61.1026 12.6828 60.2752C13.5924 58.3797 13.3049 56.3492 13.3166 54.3715C13.3577 48.6029 13.3342 42.8283 13.3342 37.0596C13.3225 37.0655 13.3225 37.0655 13.3166 37.0655Z" fill="#545554"/>
<path d="M133.391 45.7919C133.391 43.2978 133.391 40.8037 133.391 38.3096C133.391 37.8812 133.367 37.4235 133.972 37.4059C134.57 37.3942 134.746 37.7521 134.77 38.3096C134.787 38.7087 134.946 39.1019 135.046 39.5009C135.404 39.2897 135.82 39.1429 136.102 38.8554C137.886 37.0714 140.955 36.4728 143.314 37.4352C144.846 38.0632 146.09 38.9493 146.712 40.5514C146.765 40.6805 147 40.8741 147.052 40.8448C147.322 40.7157 147.616 40.5631 147.804 40.3401C148.273 39.7885 148.596 39.0725 149.147 38.6383C151.084 37.1301 153.267 36.5902 155.679 37.3061C158.907 38.2627 160.708 40.4692 160.814 43.8436C160.914 47.0653 160.873 50.2988 160.884 53.5206C160.884 54.0722 160.708 54.5241 160.063 54.4948C159.458 54.4655 159.441 53.996 159.441 53.5265C159.447 50.3751 159.452 47.2179 159.447 44.0666C159.441 42.4704 159.042 40.9974 157.809 39.9C157.234 39.3894 156.583 38.8495 155.873 38.6383C152.434 37.623 149.728 38.7498 148.226 42.0537C147.886 42.8049 147.809 43.7204 147.798 44.5654C147.757 47.5466 147.786 50.5277 147.804 53.5148C147.809 53.996 147.792 54.4596 147.193 54.4889C146.565 54.5183 146.372 54.0957 146.378 53.5206C146.383 50.3927 146.372 47.259 146.389 44.1311C146.401 42.6581 146.049 41.326 145.034 40.2169C144.042 39.1312 142.856 38.3977 141.36 38.3742C140.468 38.3624 139.511 38.3331 138.69 38.6207C136.612 39.3425 135.427 40.8683 135.069 43.0807C134.517 46.4668 134.94 49.8587 134.811 53.2507C134.805 53.4678 134.881 53.7378 134.782 53.8962C134.629 54.1309 134.371 54.4009 134.124 54.4478C133.948 54.4772 133.62 54.2014 133.526 53.9842C133.397 53.685 133.397 53.3152 133.397 52.9807C133.385 50.5864 133.391 48.1862 133.391 45.7919Z" fill="#545554"/>
<path d="M151.636 19.5188C151.636 16.9778 151.63 14.4368 151.642 11.8899C151.642 11.4556 151.571 10.9451 152.246 10.9392C152.88 10.9275 152.915 11.4028 152.927 11.8547C152.938 12.195 152.868 12.5413 152.897 12.8758C152.944 13.3629 153.279 13.4861 153.654 13.1692C153.877 12.9814 154.118 12.7878 154.276 12.553C155.022 11.4615 156.166 10.9744 157.363 10.7338C159.593 10.2819 161.7 10.6634 163.484 12.1657C163.918 12.5295 164.153 13.1164 164.529 13.5506C164.787 13.8499 165.115 14.2255 165.456 14.2725C165.667 14.3018 166.007 13.8206 166.201 13.5154C167.111 12.0659 168.46 11.2326 170.063 10.8218C173.009 10.0707 175.544 10.8394 177.492 13.1809C178.719 14.648 179.035 16.4849 179.076 18.3334C179.141 21.2442 179.106 24.1549 179.106 27.0598C179.106 27.2535 179.141 27.4999 179.035 27.629C178.859 27.8579 178.566 28.1807 178.366 28.1513C178.114 28.1102 177.873 27.7875 177.692 27.541C177.609 27.4295 177.674 27.2065 177.674 27.0363C177.68 23.9554 177.733 20.8745 177.668 17.7935C177.627 15.8922 176.976 14.1434 175.415 12.9814C173.531 11.573 171.395 11.3265 169.27 12.4415C167.263 13.492 166.107 15.1527 166.107 17.5001C166.107 20.7277 166.113 23.9554 166.113 27.183C166.113 27.6642 166.113 28.1865 165.45 28.1865C164.787 28.1865 164.711 27.6994 164.711 27.1595C164.722 24.1256 164.752 21.0975 164.711 18.0635C164.687 16.2795 164.141 14.6598 162.78 13.3981C160.761 11.5378 157.786 11.3265 155.544 12.8171C153.778 13.9966 153.085 15.7396 153.044 17.7583C152.991 20.7395 153.032 23.7265 153.038 26.7077C153.038 27.0246 153.097 27.3708 152.997 27.6525C152.915 27.8814 152.627 28.1924 152.446 28.1865C152.199 28.1748 151.912 27.9342 151.741 27.7112C151.63 27.5703 151.683 27.2887 151.683 27.0715C151.683 24.554 151.683 22.0364 151.683 19.5188C151.665 19.5188 151.653 19.5188 151.636 19.5188Z" fill="#545554"/>
<path d="M223.295 28.8966C224.128 29.6243 224.621 30.217 224.621 31.197C224.598 38.65 224.61 46.1029 224.621 53.5558C224.621 54.0663 224.498 54.4419 223.935 54.483C223.366 54.5241 223.154 54.1544 223.143 53.6556C223.125 53.0922 223.148 52.5288 223.119 51.9713C223.107 51.7777 222.984 51.5899 222.914 51.3962C222.761 51.4901 222.579 51.5605 222.45 51.6837C221.535 52.5523 220.643 53.4326 219.451 53.9783C216.03 55.5511 211.916 54.8468 209.44 52.3821C207.861 50.8093 207.362 48.7319 207.198 46.5606C207.022 44.2837 207.591 42.1945 208.853 40.3225C209.264 39.7063 209.845 39.1546 210.455 38.738C211.987 37.6817 213.724 37.0655 215.584 37.0537C218.242 37.0361 220.549 37.9516 222.327 40.0114C222.479 40.1875 222.749 40.2638 222.961 40.387C223.025 40.1405 223.137 39.8941 223.137 39.6417C223.137 36.3906 223.119 33.1454 223.119 29.8942C223.131 29.6184 223.219 29.3485 223.295 28.8966ZM208.583 46.0148C208.583 46.3552 208.554 46.7015 208.589 47.0418C208.824 49.577 209.974 51.5253 212.292 52.6931C213.953 53.5264 215.742 53.6262 217.515 53.2917C218.888 53.0335 220.126 52.3586 221.106 51.3199C222.691 49.6415 223.289 47.6052 223.137 45.34C222.967 42.8283 221.94 40.7978 219.71 39.4774C216.664 37.6699 213.683 37.9751 210.983 40.0584C209.111 41.502 208.495 43.6675 208.583 46.0148Z" fill="#545554"/>
<path d="M200.819 19.6304C200.819 22.0716 200.819 24.5188 200.819 26.9601C200.819 27.1537 200.884 27.3943 200.796 27.5352C200.643 27.7934 200.426 28.1337 200.185 28.1866C199.757 28.2863 199.434 28.0105 199.422 27.5234C199.411 27.0363 199.463 26.5434 199.422 26.0563C199.399 25.7688 199.252 25.4871 199.158 25.1995C198.912 25.3228 198.642 25.4108 198.419 25.5751C197.515 26.2265 196.699 27.0363 195.719 27.5352C194.1 28.3567 192.321 28.5504 190.52 28.2159C188.208 27.7875 186.16 26.8251 184.874 24.7711C183.531 22.6291 182.809 20.3111 183.542 17.7407C183.677 17.2771 183.701 16.7724 183.871 16.3206C185.491 12.0894 188.871 10.6282 192.327 10.6927C194.645 10.7338 196.705 11.6376 198.266 13.4509C198.348 13.5448 198.407 13.668 198.507 13.7209C198.712 13.8265 198.976 14.0025 199.146 13.9439C199.299 13.891 199.428 13.5683 199.44 13.357C199.469 12.9228 199.399 12.4767 199.411 12.0425C199.422 11.5613 199.235 10.9333 200.056 10.9099C200.842 10.8864 200.801 11.4791 200.807 11.9838C200.825 13.6446 200.813 15.3053 200.813 16.972C200.819 17.8757 200.819 18.756 200.819 19.6304ZM199.499 19.6245C199.769 15.5225 196.318 11.8078 192.034 12.0014C187.697 12.2009 184.957 14.8769 184.71 19.3076C184.47 23.6444 187.932 26.9718 191.928 27.0187C196.752 27.0833 199.522 23.5857 199.499 19.6245Z" fill="#545554"/>
<path d="M246.499 45.9973C246.499 48.4151 246.499 50.8329 246.499 53.2507C246.499 53.4443 246.558 53.7025 246.458 53.8258C246.258 54.0781 245.947 54.442 245.718 54.4185C245.478 54.395 245.149 53.9901 245.096 53.7143C245.008 53.2448 245.161 52.7401 245.114 52.2589C245.085 51.9831 244.926 51.631 244.715 51.496C244.592 51.4139 244.199 51.6486 243.999 51.8188C243.295 52.4115 242.696 53.1626 241.922 53.6262C239.744 54.9232 237.421 55.111 234.962 54.3774C232.52 53.6497 230.789 52.1415 229.803 49.8646C228.982 47.9632 228.729 45.9855 229.24 43.8729C229.674 42.0595 230.461 40.5162 231.828 39.319C234.838 36.6899 239.709 36.3554 242.919 38.9082C243.354 39.2544 243.653 39.7591 244.064 40.1347C244.269 40.3225 244.592 40.387 244.862 40.5044C244.95 40.2462 245.085 39.9938 245.108 39.7298C245.143 39.2662 245.114 38.8026 245.108 38.339C245.102 37.8519 245.184 37.4294 245.795 37.4352C246.399 37.4411 246.569 37.8519 246.569 38.3742C246.569 39.6183 246.564 40.8682 246.564 42.1124C246.564 43.4093 246.564 44.7003 246.564 45.9973C246.54 45.9973 246.522 45.9973 246.499 45.9973ZM237.808 53.415C241.963 53.6262 245.19 50.3223 245.231 46.056C245.272 41.5901 241.869 38.4505 237.749 38.4035C233.63 38.3566 230.279 41.7779 230.314 45.9679C230.355 50.1462 233.406 53.6204 237.808 53.415Z" fill="#545554"/>
<path d="M182.621 45.9855C182.621 48.4796 182.621 50.9737 182.621 53.4678C182.621 53.6614 182.65 53.9314 182.545 54.0311C182.316 54.2424 182.011 54.4595 181.729 54.4771C181.565 54.4889 181.254 54.1368 181.218 53.9079C181.136 53.4091 181.201 52.8809 181.16 52.3704C181.136 52.0946 181.025 51.8246 180.954 51.5547C180.69 51.6955 180.397 51.807 180.162 51.983C179.388 52.564 178.695 53.28 177.862 53.7494C175.667 54.9818 173.367 55.1462 170.955 54.2835C167.95 53.2096 166.06 51.1556 165.468 48.0747C164.963 45.4515 165.186 42.8283 166.858 40.5865C170.151 36.1852 176.723 36.1148 180.227 39.8999C180.409 40.0995 180.679 40.2168 180.902 40.3753C180.995 40.0936 181.13 39.8119 181.166 39.5244C181.213 39.137 181.16 38.7439 181.172 38.3507C181.183 37.9223 181.107 37.3941 181.776 37.4C182.445 37.4059 182.627 37.8225 182.615 38.427C182.592 39.5537 182.603 40.6746 182.603 41.8013C182.603 43.1921 182.603 44.5888 182.603 45.9796C182.609 45.9855 182.615 45.9855 182.621 45.9855ZM173.994 53.4736C174.746 53.3856 175.52 53.4032 176.236 53.1919C179.434 52.2412 181.336 49.4127 181.336 46.0735C181.336 43.5266 180.538 41.3964 178.507 39.8823C174.851 37.1594 169.341 38.2685 167.387 42.4292C165.925 45.5336 166.266 48.4092 168.284 51.0148C169.658 52.787 171.671 53.5851 173.994 53.4736Z" fill="#545554"/>
<path d="M273.118 46.631C270.824 46.631 268.523 46.631 266.229 46.631C265.313 46.631 265.149 46.8306 265.284 47.7284C265.718 50.6568 268.635 53.1744 271.469 53.4032C274.081 53.6145 276.393 52.9865 278.47 51.3903C278.658 51.2436 279.069 51.3786 279.374 51.3845C279.356 51.6662 279.421 51.9889 279.304 52.2178C279.163 52.4819 278.893 52.7107 278.623 52.8692C276.557 54.084 274.392 55.0053 271.921 54.7823C268.793 54.5006 266.293 53.2154 264.785 50.3047C262.772 46.4257 263.782 41.1793 267.391 38.6969C269.292 37.3941 271.405 36.7897 273.758 37.1535C275.794 37.4646 277.631 38.0983 279.045 39.6945C280.647 41.502 281.058 43.6557 280.994 45.9679C280.982 46.455 280.724 46.6369 280.237 46.6369C277.86 46.6193 275.489 46.631 273.118 46.631ZM273.048 45.428C273.048 45.4163 273.048 45.4104 273.048 45.3987C275.025 45.3987 277.003 45.3987 278.981 45.3987C279.444 45.3987 279.832 45.2989 279.785 44.7121C279.691 43.5032 279.403 42.3295 278.723 41.3319C276.71 38.38 273.734 37.7756 270.413 38.5971C267.52 39.3131 265.9 41.5138 265.284 44.4187C265.102 45.2696 265.266 45.428 266.164 45.428C268.459 45.4221 270.753 45.428 273.048 45.428Z" fill="#545554"/>
<path d="M70.8683 44.5595C73.8671 44.671 75.8917 46.9421 75.8917 49.6064C75.8917 51.9303 73.427 54.2835 71.1794 54.2776C67.9224 54.2659 65.9858 51.7366 66.1501 49.2191C66.3379 46.2848 68.4858 44.7414 70.8683 44.5595Z" fill="#545554"/>
<path d="M90.6333 22.277C90.6274 20.9097 91.1145 19.6597 92.1473 18.844C93.0041 18.1633 94.1133 17.5295 95.1637 17.4297C97.6695 17.1891 100.334 19.6597 100.357 21.9484C100.387 24.7418 98.362 27.0481 95.8327 27.1009C92.7694 27.1654 90.692 25.2288 90.6333 22.277Z" fill="#545554"/>
<path d="M139.881 28.3392C137.874 28.3333 135.943 27.6877 134.224 26.4202C133.895 26.1796 133.637 25.8392 133.367 25.534C133.074 25.1995 133.197 24.9061 133.508 24.6596C133.819 24.4132 134.083 24.3897 134.4 24.7066C136.524 26.7782 139.071 27.3533 141.959 26.9425C143.285 26.7547 144.459 26.4378 145.386 25.3873C146.653 23.9554 146.137 21.7782 144.4 20.9801C143.22 20.4344 141.994 20.2466 140.738 20.0353C139.236 19.7771 137.733 19.4367 136.284 18.9673C134.905 18.5213 133.878 17.5412 133.526 16.0859C133.174 14.6246 134.066 12.7702 135.363 11.8841C136.472 11.127 137.745 10.8395 139.019 10.6928C141.243 10.4404 143.408 10.7808 145.386 11.931C145.656 12.0895 145.973 12.2714 146.102 12.5237C146.213 12.7467 146.172 13.1458 146.031 13.357C145.949 13.4803 145.456 13.4979 145.286 13.3746C142.915 11.6552 140.31 11.4674 137.616 12.2596C136.589 12.5589 135.55 13.1047 135.081 14.2079C134.488 15.5988 135.298 17.3652 136.83 17.8757C137.98 18.2572 139.195 18.4508 140.386 18.7267C141.736 19.0435 143.103 19.3135 144.441 19.6832C145.679 20.0294 146.724 20.8275 147.099 22.0188C147.616 23.6561 147.446 25.9096 145.562 27.0892C144.077 28.0223 141.489 28.4859 139.881 28.3392Z" fill="#545554"/>
<path d="M187.762 45.9445C187.762 43.5267 187.762 41.103 187.762 38.6852C187.762 38.4387 187.709 38.1688 187.803 37.9634C187.897 37.7521 188.149 37.4704 188.319 37.4822C188.548 37.4939 188.877 37.7052 188.965 37.9106C189.082 38.1805 188.976 38.5326 189.018 38.8495C189.059 39.1723 189.164 39.4833 189.241 39.8002C189.557 39.6593 189.91 39.5713 190.18 39.3718C190.643 39.0197 191.007 38.5209 191.494 38.2157C193.489 36.9482 195.631 36.8308 197.902 37.3883C201.459 38.2627 203.231 41.2145 203.243 44.9234C203.254 47.8106 203.266 50.692 203.272 53.5793C203.272 54.0664 203.231 54.5593 202.568 54.5534C201.916 54.5476 201.858 54.0722 201.864 53.5734C201.869 50.9561 201.916 48.3388 201.875 45.7273C201.858 44.6123 201.734 43.4856 201.529 42.3882C201.277 41.0619 200.32 40.1523 199.281 39.4188C197.421 38.0984 195.262 37.9868 193.243 38.738C191.16 39.5068 189.481 41.0561 189.293 43.4152C189.035 46.6721 189.082 49.9526 188.988 53.2213C188.976 53.7319 189.164 54.4713 188.378 54.4713C187.597 54.4713 187.762 53.726 187.762 53.2213C187.744 50.7801 187.756 48.3623 187.762 45.9445Z" fill="#545554"/>
<path d="M224.545 18.222C224.545 19.9062 224.51 21.5963 224.563 23.2805C224.586 24.0024 224.721 24.7476 224.938 25.4343C225.326 26.6432 226.728 27.3122 228.277 27.0892C228.858 27.007 229.428 26.8662 229.997 26.7194C230.425 26.6079 230.789 26.7136 230.836 27.1478C230.86 27.3415 230.56 27.6701 230.337 27.7758C228.853 28.4624 227.333 28.4976 225.783 27.9518C224.011 27.3356 223.377 25.8685 223.313 24.2371C223.16 20.628 223.19 17.0072 223.148 13.3922C223.131 12.019 223.049 11.9368 221.681 11.9721C221.118 11.9838 220.549 12.0249 219.997 11.9486C219.774 11.9193 219.592 11.6258 219.387 11.4556C219.586 11.2854 219.768 10.9803 219.979 10.9627C220.731 10.8981 221.494 10.9157 222.251 10.9275C222.867 10.9392 223.137 10.6693 223.131 10.0472C223.113 8.97329 223.131 7.89349 223.148 6.81957C223.154 6.55549 223.131 6.221 223.278 6.04495C223.448 5.83955 223.794 5.65762 224.046 5.66936C224.222 5.6811 224.516 6.03321 224.522 6.24447C224.569 7.36535 224.557 8.49209 224.539 9.61883C224.522 10.7749 224.645 10.9158 225.83 10.9216C227.051 10.9275 228.277 10.9157 229.498 10.9334C229.88 10.9392 230.414 10.8981 230.337 11.4498C230.308 11.6669 229.78 11.9545 229.469 11.9662C228.201 12.019 226.928 11.9779 225.654 11.9721C224.733 11.9662 224.498 12.242 224.51 13.1575C224.533 14.8417 224.516 16.5318 224.516 18.2161C224.533 18.222 224.539 18.222 224.545 18.222Z" fill="#545554"/>
<path d="M253.124 45.0642C253.124 43.3799 253.113 41.6898 253.13 40.0056C253.142 38.6206 252.913 38.3741 251.558 38.38C251.018 38.38 250.478 38.427 249.95 38.3624C249.715 38.3331 249.515 38.069 249.298 37.9105C249.515 37.7638 249.727 37.5115 249.955 37.4939C250.613 37.4352 251.276 37.4704 251.933 37.4586C252.784 37.4469 253.019 37.2474 253.06 36.3789C253.107 35.4517 253.083 34.5244 253.095 33.5972C253.101 33.3038 253.124 33.0104 253.142 32.717C253.171 32.2416 253.512 32.0421 253.893 32.1418C254.104 32.2005 254.369 32.5585 254.38 32.7932C254.427 33.9904 254.392 35.1876 254.392 36.3847C254.392 37.2709 254.568 37.4587 255.466 37.4645C256.763 37.4704 258.054 37.4528 259.351 37.4411C259.374 37.4411 259.398 37.4352 259.421 37.4352C259.826 37.4176 260.302 37.3941 260.272 37.934C260.26 38.1042 259.75 38.3683 259.462 38.3741C258.195 38.4152 256.921 38.3741 255.654 38.3741C254.539 38.3741 254.392 38.5443 254.392 39.6417C254.398 42.7696 254.363 45.8975 254.41 49.0253C254.421 49.9408 254.592 50.868 254.809 51.76C255.067 52.8339 255.783 53.3973 256.874 53.3856C257.89 53.3797 258.905 53.1978 259.92 53.1685C260.184 53.1626 260.454 53.4267 260.718 53.5675C260.566 53.7905 260.46 54.125 260.249 54.2248C259.239 54.7001 258.171 54.9055 257.045 54.7705C254.885 54.5123 253.447 53.1626 253.195 51.003C253.078 50.0112 253.101 49.0019 253.083 48.0042C253.066 47.0242 253.077 46.0501 253.077 45.07C253.101 45.0642 253.113 45.0642 253.124 45.0642Z" fill="#545554"/>
<path d="M205.737 19.4602C205.737 16.9895 205.737 14.5248 205.737 12.0542C205.737 11.8371 205.678 11.5612 205.784 11.4087C205.936 11.1798 206.212 10.904 206.441 10.8981C206.658 10.8981 206.998 11.1857 207.063 11.4087C207.163 11.7666 207.034 12.1892 207.098 12.5647C207.145 12.8406 207.292 13.2513 207.486 13.3159C207.703 13.3863 208.16 13.2044 208.278 12.999C209.616 10.6458 214.123 10.2878 216.136 11.4028C216.629 11.6786 216.593 12.0542 216.323 12.3593C216.159 12.5413 215.672 12.6704 215.49 12.5589C214.023 11.6669 212.509 11.8136 211.071 12.4356C208.354 13.6093 207.151 15.8041 207.163 18.7207C207.175 21.4319 207.169 24.149 207.169 26.8602C207.169 27.1302 207.245 27.453 207.122 27.6525C206.969 27.899 206.664 28.1572 206.4 28.1924C206.218 28.2159 205.889 27.8931 205.807 27.6584C205.69 27.3239 205.725 26.9365 205.725 26.5727C205.719 24.2018 205.725 21.831 205.725 19.4602C205.725 19.4602 205.731 19.4602 205.737 19.4602Z" fill="#545554"/>
<path d="M17.4656 2.7058C17.4656 4.20812 16.2097 5.31726 14.4844 5.32899C13.2521 5.34073 11.9258 4.0262 11.9023 2.77622C11.8788 1.50864 13.3459 0.0180471 14.6429 0.000441751C15.975 -0.0289004 17.4656 1.40888 17.4656 2.7058Z" fill="#545554"/>
</svg>
