<svg width="137" height="25" viewBox="0 0 137 25" fill="none" xmlns="http://www.w3.org/2000/svg">
<path d="M26.107 15.0116C25.9277 15.0116 25.8679 14.8921 25.8679 14.7128V14.3541C25.8679 14.1151 25.9875 14.0553 26.1668 14.0553H27.0036V5.26871H26.1668C25.9875 5.26871 25.9277 5.14916 25.9277 4.96985V4.61121C25.9277 4.43189 26.0472 4.31235 26.2266 4.31235H29.1554C29.3347 4.31235 29.4543 4.43189 29.4543 4.61121V4.96985C29.4543 5.20894 29.3945 5.26871 29.2152 5.26871H28.2588V14.0553H32.4429L32.5625 12.8598C32.5625 12.6805 32.682 12.6207 32.8613 12.6207H33.2797C33.3993 12.6207 33.5188 12.6805 33.5188 12.8001V12.8598C33.5188 12.9196 33.5188 13.5173 33.459 14.7128C33.459 14.9519 33.3395 15.0116 33.22 15.0116H26.107Z" fill="#545554"/>
<path d="M34.535 15.0117C34.3557 15.0117 34.2959 14.8921 34.2959 14.7128V14.3542C34.2959 14.1748 34.3557 14.0553 34.535 14.0553H34.5948H35.3718V8.43667H34.5948C34.4154 8.43667 34.3557 8.31712 34.3557 8.1378V7.77917C34.3557 7.59985 34.4154 7.4803 34.5948 7.4803H34.6545H36.2086C36.3879 7.4803 36.5075 7.59985 36.5075 7.83894V14.1151H37.2845C37.4638 14.1151 37.5834 14.2346 37.5834 14.4139V14.7726C37.5834 14.8921 37.5236 15.0117 37.3443 15.0714H37.2845L34.535 15.0117ZM35.7902 5.7469C35.4316 5.80667 35.0729 5.56758 35.0132 5.14917C35.0132 5.0894 35.0132 5.02963 35.0132 4.96985C35.0132 4.4319 35.2523 4.19281 35.7902 4.19281C36.2684 4.19281 36.5075 4.4319 36.5075 4.96985C36.5075 5.50781 36.2684 5.7469 35.7902 5.7469Z" fill="#545554"/>
<path d="M39.0777 15.0117C38.8984 15.0117 38.8386 14.8921 38.8386 14.7128V14.3542C38.8386 14.1748 38.8984 14.0553 39.0777 14.0553H39.1375H39.9145V8.43666H39.1375C38.9582 8.43666 38.8386 8.37689 38.8386 8.1378V7.77916C38.8386 7.59985 38.9582 7.4803 39.1375 7.4803H39.9145V6.22508C39.9145 5.20894 40.0939 4.49167 40.5123 4.07326C41.0502 3.65485 41.7077 3.41576 42.425 3.47554C42.8434 3.47554 43.202 3.53531 43.6204 3.59508C43.74 3.65485 43.7998 3.71463 43.7998 3.83417C43.7998 4.01349 43.74 4.13303 43.74 4.31235C43.74 4.4319 43.6204 4.49167 43.5009 4.49167L43.0227 4.55144C42.8434 4.49167 42.6641 4.49167 42.425 4.49167C41.9468 4.4319 41.5284 4.61121 41.2295 4.91008C40.9904 5.32849 40.9307 5.86644 40.9904 6.34462V7.4803H42.6043C42.7238 7.4803 42.8434 7.54007 42.9032 7.71939V7.77916V8.25735C42.9032 8.43666 42.7836 8.49644 42.6043 8.49644H40.9904V14.1151H42.1859C42.3652 14.1151 42.4848 14.2346 42.4848 14.4737V14.8323C42.4848 15.0117 42.3652 15.1312 42.1859 15.1312H39.0777V15.0117Z" fill="#545554"/>
<path d="M45.2342 11.5448C45.2342 12.6207 45.4733 13.338 45.832 13.7564C46.3102 14.1748 46.9677 14.4139 47.6252 14.3541C48.2827 14.3541 48.9999 14.2346 49.6574 13.9955C49.777 13.9357 49.8965 13.9357 50.0161 13.876C50.1356 13.876 50.1954 13.9357 50.1954 14.0553C50.3747 14.4139 50.4345 14.653 50.0758 14.7726C49.2988 15.1312 48.4022 15.2507 47.5056 15.2507C46.2504 15.2507 45.3538 14.9519 44.8756 14.3541C44.3377 13.7564 44.0986 12.7403 44.0986 11.3057C44.0986 8.49643 45.294 7.30098 47.5654 7.30098C48.8206 7.30098 49.5976 7.65962 50.0161 8.37689C50.3747 9.09416 50.4942 9.81143 50.4942 11.0667C50.4942 11.246 50.4942 11.3655 50.3747 11.5448C50.3149 11.6046 50.1954 11.6046 50.0758 11.6046L45.2342 11.5448ZM49.4183 10.6482C49.4183 10.5287 49.4183 10.4092 49.4183 10.2896C49.4183 8.85507 48.9999 8.19757 47.5056 8.19757C45.8917 8.19757 45.294 9.03439 45.2342 10.6482H49.4183V10.6482Z" fill="#545554"/>
<path d="M52.2875 15.0116C52.1081 15.0116 51.9288 14.8921 51.9288 14.7128V14.653V13.9357C51.9288 13.6966 52.0484 13.5771 52.2875 13.5771H52.945V5.74689H52.2875C52.0484 5.74689 51.9288 5.62735 51.9288 5.32848V4.67098C51.9288 4.43189 52.0484 4.31235 52.2875 4.31235H58.9222C59.1613 4.31235 59.2211 4.43189 59.2211 4.67098V6.70325C59.2211 6.94234 59.1015 7.00212 58.8625 7.00212H58.1452C57.9061 7.00212 57.7865 6.88257 57.7865 6.70325L57.7268 5.74689H54.6784V9.03439H57.7865C57.9659 8.97461 58.1452 9.15393 58.205 9.33325C58.205 9.39302 58.205 9.39302 58.205 9.45279V10.2298C58.205 10.4689 58.0854 10.5885 57.7865 10.5885H54.6784V13.6369H55.6347C55.8738 13.6369 55.9934 13.7564 55.9934 13.9955V14.7128C55.9934 14.9519 55.8738 15.0714 55.6347 15.0714L52.2875 15.0116Z" fill="#545554"/>
<path d="M65.9156 14.3541C65.3179 14.9519 64.4213 15.191 63.166 15.191C62.2097 15.2507 61.2533 14.9519 60.4763 14.3541C59.8786 13.7564 59.6395 12.7403 59.6395 11.1862C59.6395 9.63211 59.9981 8.49643 60.6556 7.95848C61.3729 7.42052 62.3292 7.12166 63.2258 7.18143C64.4213 7.18143 65.1385 7.36075 65.796 7.8987C66.4535 8.43666 66.7524 9.51256 66.7524 11.1264C66.7524 12.7403 66.4535 13.7564 65.9156 14.3541ZM64.6604 9.15393C64.3017 8.73552 63.7638 8.5562 63.2258 8.61597C62.6879 8.5562 62.1499 8.73552 61.7913 9.15393C61.4326 9.75165 61.3131 10.4689 61.3729 11.1862C61.3729 12.2621 61.4924 12.9196 61.7913 13.338C62.1499 13.6966 62.6879 13.9357 63.2258 13.876C64.5408 13.876 65.019 13.5173 65.0788 11.3057C65.1385 10.5287 65.019 9.81143 64.6604 9.15393Z" fill="#545554"/>
<path d="M68.3663 15.0117C68.1869 15.0117 68.0076 14.8921 68.0076 14.7128V14.653V13.9357C68.0076 13.7564 68.1272 13.5771 68.3065 13.5771H68.3663H68.964V8.85507H68.3663C68.1869 8.85507 68.0076 8.73553 68.0076 8.55621V8.49644V7.77916C68.0076 7.54007 68.1272 7.42053 68.3663 7.42053H70.2192C70.3985 7.42053 70.5778 7.54007 70.6376 7.71939C70.6376 7.77916 70.6376 7.77916 70.6376 7.83894V8.19757C70.7572 7.89871 71.056 7.65962 71.3549 7.54007C71.7135 7.36076 72.1319 7.24121 72.5503 7.24121C72.7894 7.24121 72.9688 7.24121 73.2078 7.30098C73.3872 7.36076 73.5067 7.4803 73.4469 7.65962C73.4469 7.95848 73.4469 8.31712 73.3274 8.61598C73.3274 8.73553 73.1481 8.85507 73.0285 8.85507C72.9688 8.85507 72.8492 8.85507 72.6101 8.85507C72.371 8.85507 72.2515 8.85507 72.1319 8.85507C71.7135 8.85507 71.2951 8.91484 70.9365 9.09416C70.8169 9.15393 70.7572 9.27348 70.6974 9.39303C70.6376 9.51257 70.6376 9.69189 70.6376 9.81143V13.6369H71.5342C71.7733 13.6369 71.8929 13.7564 71.8929 13.9955V14.653C71.8929 14.8921 71.7733 15.0117 71.5342 15.0117H68.3663Z" fill="#545554"/>
<path d="M77.5713 13.8162C78.1093 13.8162 78.707 13.7564 79.2449 13.5771C79.3645 13.5173 79.5438 13.4576 79.6633 13.4576C79.7829 13.4576 79.9024 13.5173 79.9622 13.6966C80.0818 13.9357 80.1415 14.1748 80.1415 14.4139C80.1415 14.5932 80.022 14.7128 79.9024 14.7726C79.1254 15.0714 78.2288 15.2507 77.392 15.191C76.4954 15.2507 75.539 14.9519 74.8815 14.3541C74.3436 13.7564 74.1045 12.8001 74.1045 11.3057C74.1045 9.81142 74.4034 8.85506 74.8815 8.19756C75.4195 7.54006 76.3759 7.18143 77.6908 7.18143C78.3483 7.18143 79.0656 7.2412 79.7231 7.36075C79.9024 7.42052 80.022 7.59984 80.022 7.77915V9.57233C80.022 9.81142 79.9024 9.8712 79.6633 9.8712H78.8863C78.707 9.8712 78.5874 9.75165 78.5277 9.57233V9.51256L78.4679 8.5562C78.169 8.49642 77.8702 8.49642 77.6311 8.49642C76.1965 8.49642 75.7781 9.45279 75.7781 11.0666C75.7781 13.0391 76.1368 13.8162 77.5713 13.8162Z" fill="#545554"/>
<path d="M82.8313 11.7839C82.891 13.3978 83.4887 13.876 84.8635 13.876C85.521 13.876 86.1785 13.7564 86.7762 13.5771C86.8958 13.5173 87.0751 13.5173 87.1946 13.5173C87.3142 13.5173 87.4337 13.5771 87.4935 13.7564C87.6131 13.9955 87.6131 14.2346 87.6728 14.4737C87.6728 14.653 87.5533 14.7726 87.4337 14.8323C86.5969 15.191 85.6406 15.3703 84.6842 15.3105C83.3692 15.3105 82.4128 15.0116 81.8749 14.3541C81.3369 13.7564 81.0978 12.7403 81.0978 11.3057C81.0978 8.43666 82.1737 7.2412 84.6842 7.2412C85.521 7.18143 86.3578 7.42052 87.0153 7.95848C87.2544 8.19757 87.4337 8.49643 87.5533 8.79529C87.7924 9.57234 87.9119 10.3494 87.8521 11.1862C87.8521 11.4253 87.7924 11.6046 87.6728 11.6644C87.5533 11.7242 87.4337 11.7839 87.3142 11.7242L82.8313 11.7839ZM86.1785 10.4689C86.1785 10.4092 86.1785 10.2896 86.1785 10.2298C86.1785 9.03438 85.8797 8.5562 84.6244 8.5562C83.3692 8.5562 82.891 9.2137 82.8313 10.4689H86.1785Z" fill="#545554"/>
<path d="M89.5258 15.0116C89.3465 15.0116 89.2269 14.8921 89.2269 14.7128V14.3541C89.2269 14.1748 89.2867 14.0553 89.466 14.0553H89.5258H90.3626V5.26871H89.466C89.2867 5.26871 89.2269 5.14916 89.2269 4.91007V4.61121C89.2269 4.43189 89.3465 4.31235 89.466 4.31235H89.5258H96.1008C96.2801 4.31235 96.3399 4.37212 96.3399 4.61121V6.40439C96.3399 6.58371 96.2801 6.64348 96.1008 6.64348H95.6824C95.5628 6.64348 95.4433 6.58371 95.3835 6.46416C95.3835 6.46416 95.3835 6.46416 95.3835 6.40439L95.3237 5.32848H91.4385V9.33325H94.9651C95.1444 9.33325 95.264 9.39302 95.264 9.63211V10.0505C95.264 10.2298 95.1444 10.3494 94.9651 10.3494H91.4385V14.1151H92.634C92.8133 14.1151 92.9328 14.2346 92.9328 14.4737V14.8323C92.9328 15.0116 92.8731 15.1312 92.634 15.1312H89.5258V15.0116Z" fill="#545554"/>
<path d="M97.6549 15.0117C97.4755 15.0117 97.4158 14.8921 97.4158 14.7128V14.3542C97.4158 14.1748 97.4755 14.0553 97.6549 14.0553H97.7146H98.4917V8.43667H97.7146C97.5353 8.43667 97.4755 8.31712 97.4755 8.1378V7.77917C97.4755 7.59985 97.5353 7.4803 97.7146 7.4803H97.7744H99.3285C99.5078 7.4803 99.6274 7.59985 99.6274 7.83894V14.1151H100.404C100.584 14.1151 100.703 14.2346 100.703 14.4139V14.7726C100.703 14.8921 100.643 15.0117 100.464 15.0714H100.404L97.6549 15.0117ZM98.8503 5.7469C98.4917 5.80667 98.133 5.56758 98.0733 5.14917C98.0733 5.0894 98.0733 5.02963 98.0733 4.96985C98.0733 4.4319 98.3124 4.19281 98.8503 4.19281C99.3883 4.19281 99.5676 4.4319 99.5676 4.96985C99.5676 5.50781 99.3285 5.7469 98.8503 5.7469Z" fill="#545554"/>
<path d="M103.811 8.43666V12.8598C103.811 13.876 103.931 14.2346 104.708 14.2346C104.887 14.2346 105.067 14.2346 105.246 14.2346L105.605 14.1748C105.724 14.1748 105.844 14.2346 105.844 14.3542C105.903 14.4737 105.903 14.653 105.903 14.7726C105.903 14.8921 105.784 15.0117 105.664 15.0714C105.246 15.191 104.828 15.191 104.349 15.191C103.871 15.2507 103.333 15.0714 103.034 14.653C102.736 14.1748 102.676 13.5771 102.676 13.0392V8.43666H101.839C101.66 8.43666 101.6 8.37689 101.6 8.19757V7.77917C101.6 7.59985 101.66 7.4803 101.899 7.4803H102.736C102.736 7.12167 102.736 6.58371 102.736 5.7469C102.736 5.50781 102.855 5.38826 103.034 5.38826H103.513C103.692 5.38826 103.752 5.50781 103.752 5.7469V7.4803H105.306C105.485 7.4803 105.605 7.54007 105.605 7.71939V8.19757C105.605 8.37689 105.485 8.43666 105.306 8.43666H103.811V8.43666Z" fill="#545554"/>
<path d="M107.099 15.0116C106.92 15.0116 106.86 14.9519 106.86 14.7128V14.3541C106.86 14.2346 106.92 14.0553 107.099 14.0553H107.159H107.936V8.43666H107.159C106.979 8.43666 106.92 8.31711 106.92 8.1378V7.77916C106.92 7.54007 107.039 7.4803 107.218 7.4803H108.713C108.892 7.4803 109.012 7.59984 109.012 7.77916V8.19757C109.191 7.83893 109.609 7.54007 110.028 7.54007C110.566 7.36075 111.104 7.30098 111.642 7.30098C112.957 7.30098 113.495 7.59984 113.734 8.25734C113.853 8.73552 113.913 9.2137 113.853 9.75166V14.1151H114.63C114.81 14.1151 114.929 14.2346 114.929 14.4737V14.8323C114.929 14.9519 114.869 15.0714 114.75 15.1312H114.69H113.076C112.837 15.1312 112.777 15.0116 112.777 14.7726V9.99075C112.777 9.63211 112.777 9.27348 112.718 8.97461C112.598 8.5562 112.239 8.37689 111.343 8.37689C110.685 8.31711 110.028 8.43666 109.43 8.73552C109.311 8.7953 109.191 8.91484 109.131 8.97461C109.071 9.09416 109.071 9.27348 109.071 9.39302V14.1151H109.848C110.028 14.1151 110.147 14.2346 110.147 14.4737V14.8323C110.147 15.0116 110.088 15.1312 109.908 15.1312L107.099 15.0116Z" fill="#545554"/>
<path d="M117.44 11.5448C117.44 12.6207 117.679 13.338 118.037 13.7564C118.516 14.1748 119.173 14.4139 119.831 14.3541C120.488 14.3541 121.205 14.2346 121.863 13.9955C121.982 13.9357 122.102 13.9357 122.221 13.876C122.341 13.876 122.401 13.9357 122.401 14.0553C122.58 14.4139 122.64 14.653 122.281 14.7726C121.504 15.1312 120.608 15.2507 119.711 15.2507C118.456 15.2507 117.559 14.9519 117.081 14.3541C116.543 13.7564 116.364 12.6805 116.364 11.3057C116.364 8.49643 117.499 7.30098 119.831 7.30098C121.086 7.30098 121.863 7.65962 122.281 8.37689C122.64 9.09416 122.759 9.81143 122.759 11.0667C122.759 11.246 122.759 11.3655 122.64 11.5448C122.58 11.6046 122.461 11.6046 122.341 11.6046H117.44V11.5448ZM121.624 10.6482C121.624 10.5287 121.624 10.4092 121.624 10.2896C121.624 8.85507 121.205 8.19757 119.711 8.19757C118.097 8.19757 117.499 9.03439 117.44 10.6482H121.624V10.6482Z" fill="#545554"/>
<path d="M129.394 9.27348C129.394 9.39303 129.334 9.51257 129.215 9.51257H129.155H128.796C128.617 9.51257 128.557 9.4528 128.498 9.27348L128.438 8.31712C128.019 8.25735 127.601 8.19757 127.123 8.19757C125.748 8.19757 125.389 8.61598 125.389 9.4528C125.389 10.1103 125.628 10.3494 126.764 10.6483L127.84 10.9471C129.095 11.246 129.693 11.7839 129.693 12.9794C129.693 14.4737 128.737 15.2507 126.764 15.2507C125.987 15.2507 125.15 15.1312 124.433 14.8921C124.313 14.8323 124.194 14.653 124.194 14.5335C124.134 13.9357 124.134 13.4576 124.134 13.0989C124.134 12.9196 124.254 12.8001 124.373 12.8001H124.732C124.851 12.8001 125.031 12.8598 125.031 13.0392C125.031 13.0392 125.031 13.0392 125.031 13.0989L125.15 14.1151C125.688 14.2944 126.226 14.3542 126.764 14.3542C128.199 14.3542 128.557 13.876 128.557 13.0989C128.557 12.5012 128.318 12.1426 127.123 11.8437L125.927 11.5448C124.732 11.246 124.194 10.5885 124.194 9.51257C124.194 8.01825 125.15 7.24121 127.063 7.24121C127.721 7.24121 128.378 7.30098 129.036 7.42053C129.215 7.42053 129.275 7.59985 129.275 7.77916L129.394 9.27348Z" fill="#545554"/>
<path d="M136.208 9.27348C136.208 9.39303 136.148 9.51257 136.029 9.51257H135.969H135.61C135.431 9.51257 135.371 9.4528 135.312 9.27348L135.252 8.31712C134.833 8.25735 134.415 8.19757 133.937 8.19757C132.562 8.19757 132.203 8.61598 132.203 9.4528C132.203 10.1103 132.443 10.3494 133.578 10.6483L134.654 10.9471C135.909 11.246 136.507 11.7839 136.507 12.9794C136.507 14.4737 135.551 15.2507 133.578 15.2507C132.801 15.2507 131.964 15.1312 131.247 14.8921C131.128 14.8323 131.008 14.653 131.008 14.5335C130.948 13.9357 130.948 13.4576 130.948 13.0989C130.948 12.9196 131.008 12.8001 131.187 12.8001H131.546C131.666 12.8001 131.785 12.8598 131.845 13.0392C131.845 13.0392 131.845 13.0392 131.845 13.0989L131.964 14.1151C132.502 14.2944 133.04 14.3542 133.578 14.3542C135.013 14.3542 135.371 13.876 135.371 13.0989C135.371 12.5012 135.132 12.1426 133.937 11.8437L132.741 11.5448C131.606 11.246 131.008 10.5885 131.008 9.51257C131.008 8.01825 131.964 7.24121 133.877 7.24121C134.535 7.24121 135.192 7.30098 135.85 7.42053C136.029 7.42053 136.089 7.59985 136.089 7.77916L136.208 9.27348Z" fill="#545554"/>
<path d="M29.275 21.2878C29.2152 21.2878 29.0956 21.228 29.0956 21.1682C29.0956 21.1682 29.0956 21.1682 29.0956 21.1085V18.4187C29.0956 18.2991 29.2152 18.2394 29.275 18.2991C29.3347 18.2991 29.3945 18.3589 29.3945 18.4187V20.9291H31.1279C31.1877 20.9291 31.3072 20.9889 31.3072 21.1085C31.3072 21.1682 31.2475 21.2878 31.1279 21.2878H29.275V21.2878Z" fill="#545554"/>
<path d="M32.0843 18.2991C32.0843 18.1796 32.1441 18.1198 32.2636 18.1198C32.3832 18.1198 32.4429 18.1796 32.4429 18.2991V21.1085C32.4429 21.228 32.3832 21.2878 32.2636 21.2878C32.1441 21.2878 32.0843 21.228 32.0843 21.1085V18.2991Z" fill="#545554"/>
<path d="M33.459 18.4785C33.459 18.3589 33.5786 18.2991 33.6981 18.2991H35.6109C35.6706 18.2991 35.7304 18.4187 35.7304 18.4785C35.7304 18.5382 35.6706 18.598 35.6109 18.598H33.8177V19.7935H35.5511C35.6109 19.7935 35.6706 19.8532 35.6706 19.913C35.6706 19.9728 35.6109 20.0326 35.5511 20.0326H33.8177V21.1682C33.8177 21.2878 33.7579 21.3476 33.6384 21.3476C33.5188 21.3476 33.459 21.2878 33.459 21.1682V18.4785Z" fill="#545554"/>
<path d="M38.8984 18.2394C39.0179 18.2394 39.0777 18.2991 39.0777 18.4187C39.0777 18.5382 39.0179 18.598 38.8984 18.598H37.8225C37.8225 19.4348 37.8225 20.3314 37.8225 21.1682C37.8225 21.2878 37.7627 21.3475 37.6431 21.3475C37.5236 21.3475 37.4638 21.2878 37.4638 21.1682V18.598H36.4477C36.3281 18.598 36.2684 18.5382 36.2684 18.4187C36.2684 18.2991 36.3281 18.2394 36.4477 18.2394H38.8984Z" fill="#545554"/>
<path d="M42.4848 20.7498L43.5009 18.6578C43.5607 18.5382 43.6204 18.5382 43.74 18.5382C43.7998 18.5382 43.7998 18.598 43.7998 18.598L44.8159 20.69L45.8918 18.2394C45.9516 18.1198 46.0113 18.1198 46.1309 18.1198C46.2504 18.1796 46.2504 18.2394 46.2504 18.3589L44.9952 21.1085C44.9354 21.1682 44.8757 21.228 44.7561 21.228C44.6963 21.228 44.6963 21.1682 44.6366 21.1085L43.6204 18.9566L42.6043 21.1085C42.5445 21.228 42.425 21.228 42.3652 21.1682C42.3054 21.1682 42.3054 21.1085 42.3054 21.1085L41.11 18.3589C41.11 18.2394 41.1698 18.1796 41.2295 18.1198C41.2893 18.1198 41.4088 18.1198 41.4088 18.2394L42.4848 20.7498Z" fill="#545554"/>
<path d="M47.4459 20.9291H49.2988C49.3586 20.9291 49.4781 20.9889 49.4781 21.1085C49.4781 21.1682 49.4184 21.2878 49.2988 21.2878H47.3263C47.2068 21.2878 47.0872 21.228 47.0872 21.1085V18.5382C47.0872 18.4187 47.2068 18.3589 47.2665 18.3589H49.239C49.2988 18.3589 49.4183 18.4187 49.4183 18.5382C49.4183 18.598 49.3586 18.7176 49.239 18.7176H47.3861V19.7935H49.1195C49.1793 19.7935 49.239 19.913 49.239 19.9728C49.239 20.0326 49.1793 20.0923 49.1195 20.0923H47.3861V20.9291H47.4459Z" fill="#545554"/>
<path d="M50.3748 18.2991C50.3748 18.1796 50.4943 18.1198 50.6138 18.1796C50.6736 18.1796 50.7334 18.2394 50.7334 18.2991V21.1085C50.7334 21.228 50.6138 21.2878 50.4943 21.228C50.4345 21.228 50.3748 21.1682 50.3748 21.1085V18.2991Z" fill="#545554"/>
<path d="M54.26 20.7498C53.722 21.4073 52.7656 21.5269 52.1679 20.9889C51.8093 20.69 51.5702 20.2119 51.5702 19.7337C51.5702 18.8969 52.1679 18.2394 53.0047 18.1796H53.0645C53.4829 18.1796 53.9013 18.2991 54.1404 18.598C54.26 18.7773 54.0209 19.0164 53.9013 18.8371C53.6622 18.5382 53.2438 18.4187 52.8254 18.5382C52.1679 18.7175 51.7495 19.375 51.9288 20.0325C52.0484 20.5705 52.5266 20.9291 53.0645 20.9889C53.4231 20.9889 53.7818 20.8096 53.9611 20.5705V19.9728H53.1243C53.0645 19.9728 52.945 19.913 52.945 19.8532C52.945 19.7935 53.0047 19.6739 53.0645 19.6739H53.1243H54.1404C54.26 19.6739 54.3197 19.7337 54.3197 19.8532V20.6303C54.3197 20.6303 54.26 20.69 54.26 20.7498Z" fill="#545554"/>
<path d="M55.6945 19.6739H57.4279V18.3589C57.4279 18.2394 57.5474 18.1796 57.6072 18.2394C57.667 18.2394 57.7267 18.2991 57.7267 18.3589V21.1085C57.7267 21.228 57.667 21.2878 57.6072 21.2878C57.4876 21.2878 57.4279 21.228 57.4279 21.1682V21.1085V19.913H55.6945V21.1085C55.6945 21.228 55.6347 21.2878 55.5151 21.2878C55.3956 21.2878 55.3358 21.228 55.3358 21.1085V18.3589C55.3358 18.2394 55.3956 18.1796 55.5151 18.1796C55.6347 18.1796 55.6945 18.2394 55.6945 18.3589V19.6739Z" fill="#545554"/>
<path d="M61.074 18.2394C61.1936 18.2394 61.2534 18.2991 61.2534 18.4187C61.2534 18.5382 61.1936 18.598 61.074 18.598H60.0579V21.1682C60.0579 21.2878 59.9981 21.3475 59.8786 21.3475C59.8188 21.3475 59.6993 21.2878 59.7591 21.1682V18.598H58.7429C58.6234 18.598 58.5636 18.5382 58.5636 18.4187C58.5636 18.2991 58.6234 18.2394 58.7429 18.2394H61.074Z" fill="#545554"/>
<path d="M62.0303 21.0487C62.0303 21.1682 61.9706 21.228 61.851 21.228C61.7315 21.228 61.6119 21.1682 61.6119 21.0487C61.6119 20.9291 61.6717 20.8096 61.7913 20.8096H61.851C61.9108 20.8694 62.0303 20.9291 62.0303 21.0487Z" fill="#545554"/>
<path d="M64.6006 21.2878C64.5408 21.2878 64.4213 21.228 64.4213 21.1682C64.4213 21.1682 64.4213 21.1682 64.4213 21.1085V18.4187C64.4213 18.2991 64.5408 18.2394 64.6006 18.2991C64.6604 18.2991 64.7201 18.3589 64.7201 18.4187V20.9291H66.4535C66.5133 20.9291 66.6329 20.9889 66.6329 21.1085C66.6329 21.1682 66.5731 21.2878 66.4535 21.2878H64.6006V21.2878Z" fill="#545554"/>
<path d="M67.0513 19.7337C67.0513 19.0164 67.5892 18.3589 68.3065 18.2394C68.4858 18.2394 68.6651 18.2394 68.7847 18.2394C69.5019 18.3589 70.0997 18.9566 70.0997 19.7337C70.1595 20.5705 69.502 21.2878 68.6651 21.3475H68.6054C67.7685 21.3475 67.111 20.69 67.0513 19.913C67.0513 19.7935 67.0513 19.7337 67.0513 19.7337ZM67.4099 19.6739C67.4099 20.3314 67.9479 20.8096 68.6054 20.8096C69.2629 20.8096 69.741 20.2716 69.741 19.6141C69.741 19.0164 69.3226 18.5382 68.7249 18.4785C68.6054 18.4785 68.426 18.4785 68.3065 18.4785C67.7685 18.598 67.3501 19.136 67.4099 19.6739Z" fill="#545554"/>
<path d="M71.1158 20.5107C71.2354 20.9291 71.7733 20.9889 72.1319 20.9889C72.4906 20.9889 73.1481 20.8694 73.1481 20.3912C73.1481 19.913 72.6699 19.9728 72.1319 19.913C71.4744 19.8532 70.817 19.7935 70.817 19.0762C70.817 18.3589 71.5342 18.1796 72.1319 18.1796C72.7297 18.1796 73.2676 18.2991 73.4469 18.8371C73.5067 19.0164 73.2079 19.136 73.1481 18.9566C73.0285 18.598 72.4906 18.5382 72.1319 18.5382C71.7733 18.5382 71.2354 18.6578 71.2354 19.136C71.2354 19.6141 71.7135 19.6141 72.2515 19.6141C72.909 19.6739 73.5665 19.7337 73.5665 20.3912C73.5665 21.1085 72.7894 21.3475 72.1917 21.3475C71.7135 21.3475 70.9963 21.1682 70.817 20.6303C70.6974 20.451 71.056 20.3912 71.1158 20.5107Z" fill="#545554"/>
<path d="M74.7021 20.9291H76.5551C76.6149 20.9291 76.7344 20.9889 76.7344 21.1085C76.7344 21.1682 76.6746 21.2878 76.5551 21.2878H74.5826C74.4631 21.2878 74.3435 21.228 74.3435 21.1085V18.5382C74.3435 18.4187 74.463 18.3589 74.5228 18.3589H76.4953C76.5551 18.3589 76.6746 18.4187 76.6746 18.5382C76.6746 18.598 76.6149 18.7176 76.4953 18.7176H74.7021V19.7935H76.4355C76.4953 19.7935 76.5551 19.913 76.5551 19.9728C76.5551 20.0326 76.4953 20.0923 76.4355 20.0923H74.7021V20.9291Z" fill="#545554"/>
<path d="M80.3208 20.7498L81.337 18.6578C81.3967 18.5382 81.5163 18.5382 81.576 18.598C81.6358 18.598 81.6358 18.6578 81.6358 18.6578L82.6519 20.7498L83.7279 18.2991C83.7876 18.1796 83.8474 18.1796 83.9669 18.1796C84.0865 18.2394 84.0865 18.2991 84.0865 18.4187L82.8313 21.1682C82.7715 21.228 82.7117 21.2878 82.5922 21.2878C82.5324 21.2878 82.5324 21.228 82.4726 21.1682L81.4565 19.0164L80.4404 21.1682C80.3806 21.2878 80.261 21.2878 80.2013 21.228C80.1415 21.228 80.1415 21.1682 80.1415 21.1682L78.946 18.4187C78.946 18.2991 79.0058 18.2394 79.0656 18.1796C79.1254 18.1796 79.2449 18.1796 79.2449 18.2991L80.3208 20.7498Z" fill="#545554"/>
<path d="M85.3417 20.9291H87.1946C87.2544 20.9291 87.3739 20.9889 87.3739 21.1085C87.3739 21.1682 87.3142 21.2878 87.1946 21.2878H85.2221C85.1026 21.2878 84.983 21.228 84.983 21.1085V18.5382C84.983 18.4187 85.1026 18.3589 85.1624 18.3589H87.1349C87.1946 18.3589 87.3142 18.4187 87.3142 18.5382C87.3142 18.598 87.2544 18.7176 87.1349 18.7176H85.2819V19.7935H87.0153C87.0751 19.7935 87.1349 19.913 87.1349 19.9728C87.1349 20.0326 87.0751 20.0923 87.0153 20.0923H85.2819V20.9291H85.3417Z" fill="#545554"/>
<path d="M88.2706 18.2991C88.2706 18.1796 88.3901 18.1198 88.5097 18.1796C88.5694 18.1796 88.6292 18.2394 88.6292 18.2991V21.1085C88.6292 21.228 88.5097 21.2878 88.3901 21.228C88.3303 21.228 88.2706 21.1682 88.2706 21.1085V18.2991Z" fill="#545554"/>
<path d="M92.096 20.7498C91.5581 21.4073 90.6017 21.5269 90.004 20.9889C89.6453 20.69 89.4062 20.2119 89.4062 19.7337C89.4062 18.8969 90.004 18.2394 90.8408 18.1796H90.9006C91.319 18.1796 91.7374 18.2991 91.9765 18.598C92.096 18.7773 91.8569 19.0164 91.7374 18.8371C91.4983 18.5382 91.0799 18.4187 90.6615 18.5382C90.004 18.7175 89.5856 19.375 89.7649 20.0325C89.8844 20.5705 90.3626 20.9291 90.9006 20.9889C91.2592 20.9889 91.5581 20.8096 91.7972 20.5705V19.9728H90.9603C90.9006 19.9728 90.781 19.913 90.781 19.8532C90.781 19.7935 90.8408 19.6739 90.9006 19.6739H90.9603H91.9765C92.096 19.6739 92.1558 19.7337 92.1558 19.8532V20.6303C92.1558 20.6303 92.1558 20.69 92.096 20.7498Z" fill="#545554"/>
<path d="M93.5903 19.6739H95.3237V18.3589C95.3237 18.2394 95.4433 18.1796 95.5031 18.2394C95.5628 18.2394 95.6226 18.2991 95.6226 18.3589V21.1085C95.6226 21.228 95.5628 21.2878 95.5031 21.2878C95.3835 21.2878 95.3237 21.228 95.3237 21.1682V21.1085V19.913H93.5903V21.1085C93.5903 21.228 93.5306 21.2878 93.411 21.2878C93.2915 21.2878 93.2317 21.228 93.2317 21.1085V18.3589C93.2317 18.2394 93.2915 18.1796 93.411 18.1796C93.5306 18.1796 93.5903 18.2394 93.5903 18.3589V19.6739Z" fill="#545554"/>
<path d="M98.9101 18.2394C99.0296 18.2394 99.0894 18.2991 99.0894 18.4187C99.0894 18.5382 99.0296 18.598 98.9101 18.598H97.8939V21.1682C97.8939 21.2878 97.8342 21.3475 97.7146 21.3475C97.5951 21.3475 97.5353 21.2878 97.5353 21.1682V18.598H96.5192C96.3996 18.598 96.3398 18.5382 96.3398 18.4187C96.3398 18.2991 96.3996 18.2394 96.5192 18.2394H98.9101Z" fill="#545554"/>
<path d="M99.8665 21.0487C99.8665 21.1682 99.8067 21.228 99.6872 21.228C99.5676 21.228 99.4481 21.1682 99.4481 21.0487C99.4481 20.9291 99.5078 20.8096 99.6274 20.8096H99.6872C99.8067 20.8694 99.8665 20.9291 99.8665 21.0487Z" fill="#545554"/>
<path d="M102.317 18.4785C102.317 18.3589 102.437 18.2991 102.496 18.2991H104.409C104.469 18.2991 104.589 18.3589 104.589 18.4187C104.589 18.4785 104.588 18.5382 104.529 18.5382H104.469H102.676V19.7337H104.409C104.469 19.7337 104.529 19.7935 104.529 19.8532C104.529 19.913 104.469 19.9728 104.409 19.9728H102.676V21.1085C102.676 21.228 102.616 21.2878 102.496 21.2878C102.377 21.2878 102.317 21.228 102.317 21.1085V18.4785Z" fill="#545554"/>
<path d="M105.844 20.9291H107.697C107.756 20.9291 107.876 20.9889 107.876 21.1085C107.876 21.1682 107.816 21.2878 107.697 21.2878H105.724C105.605 21.2878 105.485 21.228 105.485 21.1085V18.5382C105.485 18.4187 105.605 18.3589 105.664 18.3589H107.637C107.697 18.3589 107.816 18.4187 107.816 18.5382C107.816 18.598 107.756 18.7176 107.637 18.7176H105.784V19.7935H107.517C107.577 19.7935 107.637 19.913 107.637 19.9728C107.637 20.0326 107.577 20.0923 107.517 20.0923H105.784V20.9291H105.844Z" fill="#545554"/>
<path d="M109.131 20.9291H110.984C111.044 20.9291 111.163 20.9889 111.163 21.1085C111.163 21.1682 111.104 21.2878 110.984 21.2878H109.012C108.892 21.2878 108.773 21.228 108.773 21.1085V18.5382C108.773 18.4187 108.892 18.3589 108.952 18.3589H110.924C110.984 18.3589 111.104 18.4187 111.104 18.5382C111.104 18.598 111.044 18.7176 110.924 18.7176H109.071V19.7935H110.805C110.865 19.7935 110.924 19.913 110.924 19.9728C110.924 20.0326 110.865 20.0923 110.805 20.0923H109.071L109.131 20.9291Z" fill="#545554"/>
<path d="M112.239 21.2878C112.12 21.2878 112.06 21.228 112.06 21.1085V18.4187C112.06 18.2991 112.12 18.2394 112.239 18.2394C112.359 18.2394 112.419 18.2991 112.419 18.4187V20.9291H114.152C114.212 20.9291 114.331 20.9889 114.331 21.1085C114.331 21.1682 114.272 21.2878 114.152 21.2878H112.239V21.2878Z" fill="#545554"/>
<path d="M119.113 20.7498C118.575 21.4073 117.619 21.5269 117.021 20.9889C116.663 20.69 116.423 20.2119 116.423 19.7337C116.423 18.8969 117.021 18.2394 117.858 18.1796H117.918C118.336 18.1796 118.755 18.2991 118.994 18.598C119.113 18.7773 118.874 19.0164 118.755 18.8371C118.516 18.5382 118.097 18.4187 117.679 18.5382C117.021 18.7175 116.603 19.375 116.782 20.0325C116.902 20.5705 117.38 20.9291 117.918 20.9889C118.276 20.9889 118.635 20.8694 118.814 20.5705V19.9728H117.978C117.918 19.9728 117.798 19.913 117.798 19.8532C117.798 19.7935 117.858 19.6739 117.918 19.6739H117.978H118.994C119.113 19.6739 119.173 19.7337 119.173 19.8532V20.6303C119.173 20.6303 119.173 20.69 119.113 20.7498Z" fill="#545554"/>
<path d="M120.608 20.2119V21.1085C120.608 21.228 120.488 21.2878 120.428 21.228C120.368 21.228 120.309 21.1682 120.309 21.1085V18.4187C120.309 18.3589 120.368 18.2394 120.488 18.2394H121.624C122.461 18.2394 122.879 18.7175 122.879 19.2555C122.879 19.7337 122.52 20.1521 122.042 20.1521L122.819 20.9889C122.998 21.1682 122.759 21.3475 122.58 21.228L121.624 20.2119H120.608ZM120.608 19.913H121.564C122.162 19.913 122.461 19.6141 122.461 19.2555C122.461 18.8969 122.162 18.5382 121.564 18.5382H120.608V19.913Z" fill="#545554"/>
<path d="M123.955 20.9291H125.808C125.868 20.9291 125.987 20.9889 125.987 21.1085C125.987 21.1682 125.927 21.2878 125.808 21.2878H123.835C123.716 21.2878 123.596 21.228 123.596 21.1085V18.5382C123.596 18.4187 123.716 18.3589 123.776 18.3589H125.748C125.808 18.3589 125.927 18.4187 125.927 18.5382C125.927 18.598 125.868 18.7176 125.748 18.7176H123.895V19.7935H125.628C125.688 19.7935 125.748 19.913 125.748 19.9728C125.748 20.0326 125.688 20.0923 125.628 20.0923H123.895V20.9291H123.955Z" fill="#545554"/>
<path d="M127.242 20.451L126.824 21.1682C126.764 21.3476 126.406 21.228 126.525 21.0487L127.96 18.2394C127.96 18.1796 128.079 18.1198 128.139 18.1198C128.199 18.1198 128.258 18.1796 128.258 18.2394L129.693 21.0487C129.813 21.228 129.454 21.3476 129.394 21.1682L129.036 20.451H127.242ZM128.139 18.7176L127.362 20.2119H128.856L128.139 18.7176Z" fill="#545554"/>
<path d="M132.263 18.2394C132.383 18.2394 132.443 18.2991 132.443 18.4187C132.443 18.5382 132.383 18.598 132.263 18.598H131.187C131.187 19.4348 131.187 20.3314 131.187 21.1682C131.187 21.2878 131.128 21.3475 131.008 21.3475C130.888 21.3475 130.829 21.2878 130.829 21.1682V18.598H129.813C129.693 18.598 129.633 18.5382 129.633 18.4187C129.633 18.2991 129.693 18.2394 129.813 18.2394H132.263Z" fill="#545554"/>
<path d="M133.279 21.0487C133.279 21.1682 133.22 21.228 133.1 21.228C132.981 21.228 132.861 21.1682 132.861 21.0487C132.861 20.9291 132.921 20.8096 133.04 20.8096H133.1C133.16 20.8694 133.22 20.9291 133.279 21.0487Z" fill="#545554"/>
<path d="M17.1411 11.246C16.663 10.5885 16.6032 9.75166 16.902 8.97461C17.9182 6.40439 17.978 4.31235 16.9618 2.75826C15.2882 0.128264 11.4627 -0.0510538 9.84888 0.00871884C9.49024 0.00871884 9.19138 0.00871884 8.83274 0.00871884C7.27865 -0.0510538 3.45321 0.128264 1.77957 2.81803C0.82321 4.37212 0.882982 6.40439 1.89912 8.97461C2.19798 9.75166 2.13821 10.5885 1.66003 11.246C-0.790651 14.7726 -0.491788 19.4946 2.31753 22.7223C3.0348 23.4994 3.99116 23.9178 5.00729 23.9178H7.99592C8.23502 23.9178 8.41433 23.7385 8.41433 23.4994V22.1246C8.0557 21.8855 7.81661 21.5269 7.81661 21.0487V17.4623C7.81661 17.283 7.93615 17.1635 8.0557 17.1635C8.23502 17.1037 8.41433 17.2232 8.41433 17.4026V17.4623V19.4348C8.41433 19.5544 8.53388 19.6739 8.7132 19.6739C8.83274 19.6739 8.95229 19.5544 9.01206 19.4348V17.4623C9.01206 17.283 9.1316 17.1635 9.25115 17.1635C9.43047 17.1037 9.60979 17.2232 9.60979 17.4026V17.4623V19.4348C9.60979 19.5544 9.72933 19.6739 9.90865 19.6739C10.0282 19.6739 10.1477 19.5544 10.2075 19.4348V17.5221C10.2075 17.3428 10.3271 17.2232 10.5064 17.2232C10.6857 17.2232 10.865 17.283 10.865 17.4623V17.5221V21.1682C10.865 21.5866 10.6857 22.005 10.3271 22.2441V23.6787C10.3271 23.9178 10.5064 24.0971 10.7455 24.0971H13.7341C14.7502 24.0971 15.7664 23.6787 16.4239 22.9016C19.2332 19.4946 19.532 14.7726 17.1411 11.246ZM9.66956 16.2669C9.66956 16.2669 10.4466 13.9357 13.5548 11.4253C13.5548 11.4253 11.3432 12.5012 9.25115 15.6691C9.25115 15.5496 9.19138 15.4301 9.1316 15.3703C8.11547 13.7564 6.7407 12.3817 5.06707 11.4253C8.17524 13.9955 8.95229 16.2669 8.95229 16.2669C8.95229 16.2669 3.99116 16.3864 4.23025 10.708C4.23025 10.708 8.7132 11.3655 9.31092 14.8323C9.90865 11.3655 14.3916 10.708 14.3916 10.708C14.6905 16.4462 9.72933 16.2669 9.66956 16.2669ZM11.8811 7.54007C10.2673 7.06189 8.53388 7.06189 6.92002 7.54007C5.18661 7.95848 3.45321 6.58371 3.81184 4.8503C3.87161 4.61121 3.93139 4.37212 4.05093 4.1928C4.7682 2.99735 6.92002 2.63871 8.7132 2.69849C9.13161 2.69849 9.55001 2.69849 9.90865 2.69849C11.7018 2.63871 13.8536 2.99735 14.6307 4.1928C14.7502 4.43189 14.8698 4.67098 14.9296 4.91007C15.2882 6.58371 13.5548 7.95848 11.8811 7.54007Z" fill="#545554"/>
</svg>
