<svg width="93" height="24" viewBox="0 0 93 24" fill="none" xmlns="http://www.w3.org/2000/svg">
<path d="M29.9011 20.1649C29.1604 20.1649 28.5978 20.7463 28.5978 21.5151C28.5978 22.2934 29.1604 22.8841 29.9011 22.8841C30.3043 22.8841 30.7637 22.6684 31.1013 22.3215L31.8326 23.1091C31.3169 23.6529 30.5481 23.9999 29.8355 23.9999C28.3821 23.9999 27.3038 22.9403 27.3038 21.5245C27.3038 20.1368 28.4103 19.0867 29.8823 19.0867C30.5949 19.0867 31.345 19.4055 31.8326 19.9118L31.1013 20.7838C30.7825 20.4087 30.323 20.1649 29.9011 20.1649Z" fill="#545554"/>
<path d="M36.2676 22.087C36.2676 23.2309 35.4519 23.9904 34.233 23.9904C33.0047 23.9904 32.2077 23.2309 32.2077 22.087C32.2077 20.9431 33.014 20.193 34.233 20.193C35.4519 20.193 36.2676 20.9525 36.2676 22.087ZM33.436 22.1058C33.436 22.659 33.7548 23.0246 34.233 23.0246C34.7112 23.0246 35.0393 22.6496 35.0393 22.1058C35.0393 21.5526 34.7205 21.1775 34.233 21.1775C33.7548 21.1775 33.436 21.5526 33.436 22.1058Z" fill="#545554"/>
<path d="M40.8245 21.6088V23.9529H39.6056V21.9557C39.6056 21.5338 39.3618 21.2712 38.9774 21.2712C38.5648 21.2806 38.2929 21.5619 38.246 21.9838V23.9529H37.0177V20.2305H38.246V20.8399C38.5085 20.418 38.9305 20.1836 39.4743 20.1836C40.29 20.1836 40.8245 20.7368 40.8245 21.6088Z" fill="#545554"/>
<path d="M45.5877 21.6088V23.9529H44.3688V21.9557C44.3688 21.5338 44.125 21.2712 43.7405 21.2712C43.328 21.2806 43.0561 21.5619 43.0092 21.9838V23.9529H41.7809V20.2305H43.0092V20.8399C43.2717 20.418 43.6937 20.1836 44.2375 20.1836C45.0532 20.1836 45.5877 20.7368 45.5877 21.6088Z" fill="#545554"/>
<path d="M50.0602 22.4152H47.4723C47.5848 22.8371 47.8943 23.0715 48.3162 23.0715C48.635 23.0715 48.9444 22.9402 49.1882 22.6964L49.8258 23.334C49.4507 23.756 48.8881 23.9904 48.2037 23.9904C46.9848 23.9904 46.2346 23.2403 46.2346 22.1057C46.2346 20.9525 47.0129 20.1836 48.1755 20.1836C49.4882 20.193 50.1446 21.065 50.0602 22.4152ZM48.8788 21.7682C48.8788 21.3463 48.6069 21.0556 48.1943 21.0556C47.7911 21.0556 47.538 21.3463 47.4536 21.7682H48.8788Z" fill="#545554"/>
<path d="M52.498 21.2056C52.0573 21.2056 51.7573 21.5713 51.7573 22.1057C51.7573 22.6496 52.0573 23.0059 52.498 23.0059C52.8168 23.0059 53.0793 22.8746 53.2294 22.5839L54.1295 23.0996C53.8295 23.6716 53.2294 23.9904 52.4418 23.9904C51.2978 23.9904 50.529 23.2403 50.529 22.1057C50.529 20.9525 51.2979 20.1836 52.4511 20.1836C53.2012 20.1836 53.7919 20.5024 54.1107 21.065L53.22 21.5807C53.0606 21.3463 52.8168 21.2056 52.498 21.2056Z" fill="#545554"/>
<path d="M57.2425 23.756C56.9705 23.9154 56.6049 23.9998 56.2392 23.9998C55.5172 24.0092 54.9921 23.5779 54.9921 22.809V21.2151H54.4764V20.3993H54.9921V19.3679H56.2111V20.3993H57.1768V21.2151H56.2111V22.6215C56.2111 22.8934 56.3329 23.0247 56.5486 23.0153C56.6705 23.0153 56.8299 22.9684 57.008 22.8934L57.2425 23.756Z" fill="#545554"/>
<path d="M30.6606 15.1392V6.36297L37.9085 15.1673C38.4804 15.8612 39.3243 16.2644 40.2244 16.2644H41.0683V1.63731H39.4743C38.8555 1.63731 38.3492 2.14363 38.3492 2.76247V11.5387L31.1013 2.72496C30.5293 2.03111 29.6854 1.62793 28.7853 1.62793H27.9414V16.255H29.5354C30.1636 16.2644 30.6606 15.758 30.6606 15.1392Z" fill="#545554"/>
<path d="M69.9849 15.533L76.0326 1.58105H75.3012C74.1011 1.58105 73.0228 2.29366 72.5446 3.39069L68.4378 12.8701L64.3684 3.40006C63.8996 2.30303 62.812 1.58105 61.6118 1.58105H60.6554L66.7313 15.533C66.9094 15.9456 67.3126 16.2081 67.7627 16.2081H68.9535C69.4035 16.2175 69.8067 15.9456 69.9849 15.533Z" fill="#545554"/>
<path d="M91.0628 2.09681V1.3467H91.3535V1.20605H90.6034V1.3467H90.8941V2.09681H91.0628ZM91.6348 2.09681V1.51547L91.9255 1.99367H92.0005L92.2911 1.5061V2.09681H92.4505V1.20605H92.3099L91.963 1.79676L91.6067 1.20605H91.4754V2.09681H91.6348Z" fill="#545554"/>
<path d="M84.6682 16.2174C86.159 16.2174 87.4998 15.8987 88.7 15.2517C89.9002 14.6047 90.8378 13.714 91.5223 12.5701C92.2067 11.4355 92.5443 10.1416 92.5443 8.71639C92.5443 7.28181 92.2067 5.99726 91.5223 4.86272C90.8378 3.72819 89.9002 2.82806 88.7 2.18109C87.4998 1.53413 86.159 1.21533 84.6682 1.21533C83.1773 1.21533 81.8365 1.53413 80.6363 2.18109C79.4362 2.82806 78.4985 3.71881 77.8141 4.8721C77.1296 6.01601 76.7921 7.30056 76.7921 8.71639C76.7921 10.1322 77.1296 11.4168 77.8141 12.5607C78.4985 13.7046 79.4362 14.6047 80.6363 15.2517C81.8365 15.8893 83.1773 16.2174 84.6682 16.2174ZM84.6682 13.8359C83.693 13.8359 82.8117 13.6202 82.0334 13.1795C81.2552 12.7388 80.6363 12.1294 80.1957 11.3418C79.7456 10.5541 79.5299 9.68215 79.5299 8.70701C79.5299 7.73188 79.755 6.85988 80.1957 6.07227C80.6457 5.28465 81.2552 4.6752 82.0334 4.23451C82.8117 3.79382 83.693 3.57817 84.6682 3.57817C85.6433 3.57817 86.5247 3.79382 87.3029 4.23451C88.0811 4.6752 88.6906 5.28465 89.1407 6.07227C89.5907 6.85988 89.8064 7.73188 89.8064 8.70701C89.8064 9.68215 89.5814 10.5541 89.1407 11.3418C88.6906 12.1294 88.0811 12.7388 87.3029 13.1795C86.5153 13.6202 85.6433 13.8359 84.6682 13.8359Z" fill="#545554"/>
<path d="M51.8698 16.2174C53.3607 16.2174 54.7015 15.8987 55.9016 15.2517C57.1018 14.6047 58.0394 13.714 58.7239 12.5701C59.4084 11.4355 59.7459 10.1416 59.7459 8.71639C59.7459 7.28181 59.4084 5.99726 58.7239 4.86272C58.0394 3.72819 57.1018 2.82806 55.9016 2.18109C54.7015 1.53413 53.3607 1.21533 51.8698 1.21533C50.379 1.21533 49.0382 1.53413 47.838 2.18109C46.6378 2.82806 45.7002 3.71881 45.0157 4.8721C44.3313 6.01601 43.9937 7.30056 43.9937 8.71639C43.9937 10.1322 44.3313 11.4168 45.0157 12.5607C45.7002 13.7046 46.6378 14.6047 47.838 15.2517C49.0382 15.8893 50.379 16.2174 51.8698 16.2174ZM51.8698 13.8359C50.8947 13.8359 50.0133 13.6202 49.2351 13.1795C48.4568 12.7388 47.838 12.1294 47.3973 11.3418C46.9473 10.5541 46.7316 9.68215 46.7316 8.70701C46.7316 7.73188 46.9566 6.85988 47.3973 6.07227C47.8474 5.28465 48.4568 4.6752 49.2351 4.23451C50.0133 3.79382 50.8947 3.57817 51.8698 3.57817C52.845 3.57817 53.7263 3.79382 54.5046 4.23451C55.2828 4.6752 55.9016 5.28465 56.3423 6.07227C56.7924 6.85988 57.008 7.73188 57.008 8.70701C57.008 9.68215 56.783 10.5541 56.3423 11.3418C55.8923 12.1294 55.2828 12.7388 54.5046 13.1795C53.717 13.6202 52.845 13.8359 51.8698 13.8359Z" fill="#545554"/>
<path d="M6.08523 10.8823C6.08523 10.8823 6.01022 13.9296 9.5826 14.3328C12.5268 14.6704 17.3556 12.3075 17.3556 12.3075C17.3556 12.3075 13.3425 14.7547 11.7579 18.0458C9.91077 21.8807 12.8549 23.1841 12.8549 23.1841C12.8549 23.1841 4.61315 21.2338 6.08523 10.8823Z" fill="#545554"/>
<path d="M11.2985 12.4296C10.9703 13.2172 10.1171 13.6297 9.39509 13.3484C8.67311 13.0671 8.35432 12.1951 8.69186 11.4075C9.02004 10.6199 9.87328 10.2074 10.5953 10.4887C11.3079 10.7793 11.6267 11.6419 11.2985 12.4296Z" fill="#545554"/>
<path d="M23.0376 11.7731C23.0376 11.1355 22.9814 10.5167 22.8876 9.90723C16.6992 12.2419 12.8831 17.3708 12.3299 20.1462C11.8704 22.434 13.2956 22.9497 13.8488 23.0622C19.0996 21.9839 23.0376 17.3333 23.0376 11.7731Z" fill="#545554"/>
<path d="M4.97883 14.6423C3.90993 8.3789 6.45091 2.46244 7.06975 1.14038C2.91604 2.88438 0 6.98183 0 11.7638C0 18.1303 5.15698 23.2873 11.5235 23.2873C11.561 23.2873 11.6079 23.2873 11.6454 23.2873C10.7265 23.0435 6.13212 21.4589 4.97883 14.6423Z" fill="#545554"/>
<path d="M6.8541 8.99774C7.40819 8.99774 7.85736 8.54856 7.85736 7.99448C7.85736 7.44039 7.40819 6.99121 6.8541 6.99121C6.30001 6.99121 5.85083 7.44039 5.85083 7.99448C5.85083 8.54856 6.30001 8.99774 6.8541 8.99774Z" fill="#545554"/>
<path d="M10.3421 8.62256C10.3421 9.02575 10.0139 9.36329 9.60136 9.36329C9.19817 9.36329 8.86063 9.03512 8.86063 8.62256C8.86063 8.21938 9.1888 7.88184 9.60136 7.88184C10.0139 7.88184 10.3421 8.21001 10.3421 8.62256Z" fill="#545554"/>
<path d="M9.42467 5.30992C9.91698 4.74984 9.86203 3.8967 9.30194 3.4044C8.74185 2.9121 7.88872 2.96704 7.39642 3.52713C6.90411 4.08722 6.95906 4.94035 7.51915 5.43266C8.07924 5.92496 8.93237 5.87001 9.42467 5.30992Z" fill="#545554"/>
<path d="M21.8187 9.03517C21.8187 9.46648 21.4624 9.82278 21.0311 9.82278C20.5998 9.82278 20.2435 9.46648 20.2435 9.03517C20.2435 8.60386 20.5998 8.24756 21.0311 8.24756C21.4624 8.24756 21.8187 8.59448 21.8187 9.03517Z" fill="#545554"/>
<path d="M15.3708 10.0392C15.383 9.35065 14.8347 8.78257 14.1461 8.77039C13.4575 8.75821 12.8894 9.30655 12.8772 9.99514C12.8651 10.6837 13.4134 11.2518 14.102 11.264C14.7906 11.2762 15.3587 10.7278 15.3708 10.0392Z" fill="#545554"/>
<path d="M14.4366 1.98833C14.6127 1.24247 14.1508 0.495052 13.405 0.318932C12.6591 0.142813 11.9117 0.604681 11.7356 1.35054C11.5595 2.09641 12.0213 2.84382 12.7672 3.01994C13.5131 3.19606 14.2605 2.73419 14.4366 1.98833Z" fill="#545554"/>
<path d="M12.7143 6.48486C12.4143 6.93492 11.8142 7.05682 11.3641 6.76615C10.914 6.46611 10.7922 5.86602 11.0828 5.41596C11.3829 4.96589 11.9829 4.844 12.433 5.13467C12.8924 5.42533 13.0143 6.0348 12.7143 6.48486Z" fill="#545554"/>
<path d="M17.5712 2.87491C17.3556 3.20308 16.9055 3.29684 16.5773 3.08118C16.2492 2.86553 16.1554 2.41547 16.3711 2.08729C16.5867 1.75912 17.0368 1.66536 17.365 1.88102C17.7025 2.09667 17.7869 2.54674 17.5712 2.87491Z" fill="#545554"/>
<path d="M16.2023 5.99725C15.7991 6.60671 14.9834 6.77549 14.3739 6.37231C13.7644 5.96912 13.5957 5.15338 13.9988 4.54392C14.402 3.93446 15.2178 3.76569 15.8272 4.16887C16.4367 4.57205 16.6055 5.38779 16.2023 5.99725Z" fill="#545554"/>
<path d="M20.7217 6.38178C20.281 7.0475 19.3809 7.23502 18.7151 6.79434C18.0494 6.35365 17.8619 5.45352 18.3026 4.7878C18.7433 4.12209 19.6434 3.93456 20.3091 4.37525C20.9748 4.81593 21.1624 5.71606 20.7217 6.38178Z" fill="#545554"/>
<path d="M10.2952 0.849766C10.2952 1.16856 10.0327 1.4311 9.71387 1.4311C9.39508 1.4311 9.13254 1.16856 9.13254 0.849766C9.13254 0.530971 9.39508 0.268433 9.71387 0.268433C10.0327 0.268433 10.2952 0.530971 10.2952 0.849766Z" fill="#545554"/>
<path d="M18.6776 8.9508C18.3776 9.40086 17.7775 9.52276 17.3274 9.23209C16.8774 8.93205 16.7555 8.33196 17.0462 7.8819C17.3462 7.43184 17.9463 7.30994 18.3963 7.60061C18.8464 7.89128 18.9777 8.50074 18.6776 8.9508Z" fill="#545554"/>
<path d="M13.5394 10.8824L15.6678 5.58482L11.7673 6.30679L12.7612 1.44986L8.00737 4.44091L7.90424 4.29088L13.0237 1.06543L12.0017 6.08176L15.9679 5.34103L13.8957 10.4699L17.7963 8.34146L19.184 5.74421L16.8961 2.53751L17.0461 2.425L19.3996 5.73484L17.9275 8.4821L13.5394 10.8824Z" fill="#545554"/>
<path d="M19.2777 5.82851L15.4991 5.18154L12.7706 1.8717L16.7461 2.35927L16.718 2.53742L13.2019 2.10611L15.5928 5.01277L19.3058 5.65036L19.2777 5.82851Z" fill="#545554"/>
<path d="M9.73175 0.747658L9.69423 0.931396L13.0566 1.61809L13.0942 1.43435L9.73175 0.747658Z" fill="#545554"/>
<path d="M8.40215 4.88516L8.23378 4.94336L9.51422 8.64749L9.68259 8.58929L8.40215 4.88516Z" fill="#545554"/>
<path d="M19.9339 5.79652L19.7581 5.86182L20.9465 9.06114L21.1223 8.99585L19.9339 5.79652Z" fill="#545554"/>
<path d="M11.9598 6.15323L11.8034 6.23853L13.9987 10.2637L14.1551 10.1784L11.9598 6.15323Z" fill="#545554"/>
<path d="M8.30593 4.48836L6.67667 8.04248L6.83861 8.11672L8.46787 4.56259L8.30593 4.48836Z" fill="#545554"/>
<path d="M9.33098 4.64246L9.24712 4.81018L11.6456 6.0094L11.7294 5.84168L9.33098 4.64246Z" fill="#545554"/>
</svg>
