<svg width="134" height="41" viewBox="0 0 134 41" fill="none" xmlns="http://www.w3.org/2000/svg">
<path d="M25.7727 26.0183C25.1473 28.4527 24.522 30.954 23.919 33.5223C26.6213 35.2643 29.279 37.0063 31.9367 38.4803C29.9043 34.6167 27.872 30.3957 25.7727 26.0183Z" fill="#545554"/>
<path d="M25.7726 26.0183C28.1846 27.738 30.552 29.5023 32.897 31.1103C32.5843 33.4777 32.2493 35.9343 31.9366 38.458C29.9043 34.6167 27.872 30.3957 25.7726 26.0183Z" fill="#545554"/>
<path d="M25.7726 26.0183C25.1473 28.4527 24.522 30.954 23.919 33.5223C21.2166 31.7803 18.4473 29.9937 15.678 28.4303C19.0056 27.336 22.4003 26.4873 25.7726 26.0183Z" fill="#545554"/>
<path d="M25.7726 26.0183C23.3606 24.2987 20.8816 22.579 18.3803 21.0603C17.4646 23.4723 16.5713 25.9513 15.678 28.4303C19.0056 27.336 22.4003 26.4873 25.7726 26.0183Z" fill="#545554"/>
<path d="M28.5196 16.0577C28.1176 17.4423 27.6933 18.894 27.269 20.368C29.4353 22.11 31.557 23.8967 33.6116 25.6163C31.959 22.6237 30.2616 19.3853 28.5196 16.0577Z" fill="#545554"/>
<path d="M28.5197 16.0577C30.4627 17.822 32.361 19.631 34.1923 21.4177C34.0137 22.78 33.8127 24.1647 33.6117 25.6163C31.959 22.6237 30.2617 19.3853 28.5197 16.0577Z" fill="#545554"/>
<path d="M25.7726 26.0183C26.264 24.0753 26.7776 22.1993 27.2913 20.368C29.4576 22.11 31.5793 23.8967 33.634 25.6163C31.088 25.4823 28.4526 25.6163 25.7726 26.0183Z" fill="#545554"/>
<path d="M25.7726 26.0183C28.1846 27.738 30.552 29.5023 32.897 31.1103C33.1426 29.2343 33.3883 27.403 33.634 25.6163C31.088 25.4823 28.4526 25.6163 25.7726 26.0183Z" fill="#545554"/>
<path d="M28.5197 16.0577C28.8547 14.8963 29.212 13.7797 29.547 12.7077C31.3113 14.472 33.0087 16.3257 34.639 18.1347C32.7183 17.1967 30.6637 16.5043 28.5197 16.0577Z" fill="#545554"/>
<path d="M28.5197 16.0577C30.4627 17.822 32.361 19.631 34.1923 21.4177C34.3487 20.301 34.4827 19.1843 34.639 18.1347C32.7183 17.1967 30.6637 16.5043 28.5197 16.0577Z" fill="#545554"/>
<path d="M28.5196 16.0577C28.8546 14.8963 29.212 13.7797 29.547 12.7077C27.7827 10.9433 25.9513 9.22367 24.0753 7.61567C25.594 10.452 27.0903 13.2883 28.5196 16.0577Z" fill="#545554"/>
<path d="M28.5197 16.0577C26.5767 14.2933 24.5444 12.596 22.4897 11.0103C23.0257 9.84901 23.5394 8.71 24.0754 7.61567C25.594 10.452 27.0903 13.2883 28.5197 16.0577Z" fill="#545554"/>
<path d="M10.8764 17.1073C9.69268 19.564 8.57602 22.0207 7.45935 24.455C10.1394 25.4377 12.9087 26.8223 15.678 28.408C14.0924 24.522 12.4844 20.7253 10.8764 17.1073Z" fill="#545554"/>
<path d="M10.8763 17.1073C13.3553 18.157 15.879 19.5193 18.3803 21.038C17.4647 23.45 16.5713 25.929 15.678 28.408C14.0923 24.522 12.4843 20.7253 10.8763 17.1073Z" fill="#545554"/>
<path d="M10.8763 17.1073C9.69267 19.564 8.57601 22.0207 7.45934 24.455C4.80167 23.4723 2.23334 22.8693 0.0223389 22.8917C3.19367 20.3233 6.90101 18.3803 10.8763 17.1073Z" fill="#545554"/>
<path d="M10.8763 17.1073C8.41967 16.0577 6.00767 15.343 3.79667 15.0527C2.479 17.688 1.22833 20.3233 0 22.8693C3.19367 20.3233 6.901 18.3803 10.8763 17.1073Z" fill="#545554"/>
<path d="M16.214 6.78933C15.3876 8.241 14.5613 9.75967 13.7573 11.3007C11.4793 10.1617 9.20131 9.29067 7.05731 8.77701C9.93831 7.57101 13.0426 6.901 16.214 6.78933Z" fill="#545554"/>
<path d="M16.214 6.78933C14.1146 5.561 11.993 4.556 9.93831 3.86367C8.95564 5.44934 7.99531 7.102 7.05731 8.79933C9.93831 7.571 13.0426 6.901 16.214 6.78933Z" fill="#545554"/>
<path d="M10.8763 17.1073C11.8143 15.1643 12.7746 13.2213 13.7573 11.323C11.4793 10.184 9.20131 9.313 7.05731 8.79933C8.30798 11.4123 9.58098 14.204 10.8763 17.1073Z" fill="#545554"/>
<path d="M10.8764 17.1073C8.41969 16.0577 6.00769 15.343 3.79669 15.0527C4.84636 12.9533 5.94069 10.854 7.07969 8.777C8.30803 11.4123 9.58103 14.204 10.8764 17.1073Z" fill="#545554"/>
<path d="M16.214 6.78933C16.9063 5.58333 17.621 4.39967 18.3357 3.26067C20.2787 4.556 22.2217 6.03 24.0977 7.61567C21.507 6.968 18.8493 6.7 16.214 6.78933Z" fill="#545554"/>
<path d="M16.214 6.78934C18.3357 8.01767 20.435 9.44701 22.4897 11.0103C23.0257 9.84901 23.5393 8.71 24.0753 7.61567C21.507 6.968 18.8493 6.7 16.214 6.78934Z" fill="#545554"/>
<path d="M16.214 6.78933C16.9063 5.58333 17.621 4.39967 18.3356 3.26067C16.3926 1.96533 14.4273 0.871 12.4843 0C13.735 2.18867 14.9856 4.46667 16.214 6.78933Z" fill="#545554"/>
<path d="M16.214 6.78933C14.1147 5.561 11.993 4.556 9.93835 3.86367C10.7647 2.546 11.6134 1.25067 12.462 0C13.735 2.18867 14.9857 4.46667 16.214 6.78933Z" fill="#545554"/>
<path d="M48.6866 40.6467C43.483 40.6467 39.8427 36.6937 39.8427 31.892C39.8427 27.0903 43.5276 23.0927 48.7313 23.0927C53.935 23.0927 57.5753 27.0457 57.5753 31.8473C57.5753 36.649 53.8903 40.6467 48.6866 40.6467ZM48.6866 25.862C45.3143 25.862 42.9693 28.542 42.9693 31.8697C42.9693 35.1973 45.359 37.922 48.7313 37.922C52.1036 37.922 54.4487 35.242 54.4487 31.9143C54.4487 28.5867 52.059 25.862 48.6866 25.862Z" fill="#545554"/>
<path d="M66.6873 34.907H63.315V40.3563H60.3447V23.4053H67.0223C70.9753 23.4053 73.4543 25.6387 73.4543 29.1003C73.4767 32.9193 70.417 34.907 66.6873 34.907ZM66.7767 26.13H63.315V32.227H66.7767C69.0323 32.227 70.4393 30.9987 70.4393 29.1673C70.4393 27.1573 69.01 26.13 66.7767 26.13Z" fill="#545554"/>
<path d="M83.214 40.3563H80.199V26.1747H74.839V23.4053H88.5963V26.1747H83.214V40.3563Z" fill="#545554"/>
<path d="M105.726 33.031C105.726 38.1007 102.867 40.6467 98.4454 40.6467C94.0457 40.6467 91.2317 38.1007 91.2317 33.1873V23.4277H94.202V33.0757C94.202 36.2247 95.8324 37.922 98.49 37.922C101.125 37.922 102.756 36.314 102.756 33.2097V23.45H105.726V33.031Z" fill="#545554"/>
<path d="M117.317 36.2023H117.228L111.912 28.2517V40.3563H108.987V23.4053H112.158L117.317 31.423L122.476 23.4053H125.647V40.3563H122.677V28.207L117.317 36.2023Z" fill="#545554"/>
<path d="M128.908 25.4153C128.908 24.0083 130.025 22.847 131.454 22.847C132.883 22.847 134 24.0083 134 25.393V25.4153C134 26.8 132.883 27.9837 131.454 27.9837C130.025 27.9613 128.908 26.8 128.908 25.4153ZM133.71 25.4153C133.71 24.1647 132.749 23.1373 131.454 23.1373C130.181 23.1373 129.198 24.187 129.198 25.4153V25.4377C129.198 26.6883 130.159 27.6933 131.454 27.6933C132.727 27.6933 133.71 26.6437 133.71 25.4153ZM130.494 24.0753H131.633C132.169 24.0753 132.593 24.3433 132.593 24.857C132.593 25.2813 132.325 25.527 131.968 25.6387L132.682 26.6213H132.169L131.521 25.6833H130.918V26.6213H130.494V24.0753ZM131.588 25.3707C131.945 25.3707 132.169 25.1697 132.169 24.9017C132.169 24.589 131.945 24.455 131.588 24.455H130.896V25.3707H131.588Z" fill="#545554"/>
</svg>
