<svg width="306" height="133" viewBox="0 0 306 133" fill="none" xmlns="http://www.w3.org/2000/svg">
<path d="M96.6116 93.5054C103.514 85.6804 110.265 78.0397 117 70.3876C123.749 62.7186 130.484 55.0382 137.304 47.2699C123.792 31.9147 110.294 16.5738 96.6258 1.04291C97.3115 1.0089 97.7506 0.969226 98.187 0.969226C107.169 0.966392 116.153 0.955056 125.135 0.994733C125.605 0.997567 126.211 1.28665 126.526 1.64374C134.791 10.9708 143.027 20.3233 151.264 29.6786C151.49 29.9366 151.64 30.2625 151.907 30.6848C153.533 28.8426 154.927 27.2668 156.318 25.6854C163.291 17.7584 170.27 9.83145 177.228 1.89031C177.798 1.2413 178.381 0.943719 179.282 0.946553C188.159 0.980562 197.039 0.963558 205.916 0.966392C206.329 0.966392 206.743 1.00324 207.474 1.03441C193.82 16.5511 180.328 31.8836 166.785 47.2756C180.322 62.6591 193.806 77.9859 207.457 93.4941C206.922 93.5252 206.57 93.5621 206.219 93.5621C197.096 93.5649 187.975 93.5734 178.852 93.5394C178.407 93.5366 177.835 93.2702 177.54 92.9357C170.505 84.9833 163.498 77.0053 156.485 69.0329C155.046 67.3977 153.598 65.7681 152.06 64.0251C151.02 65.2041 150.042 66.3207 149.059 67.4288C143.424 73.7971 137.78 80.1596 132.15 86.5363C130.311 88.6194 128.532 90.7563 126.673 92.8224C126.347 93.1851 125.772 93.5281 125.31 93.5309C116.048 93.5734 106.786 93.5677 97.524 93.5677C97.3143 93.5677 97.1075 93.5422 96.6116 93.5054Z" fill="#545554"/>
<path d="M211.387 47.1734C211.404 21.1167 232.804 -0.394129 259.44 0.00547936C285.113 0.390917 306.057 21.3604 306 47.4228C305.943 73.6042 284.305 95.0753 257.678 94.5425C232.396 94.0352 211.324 73.2613 211.387 47.1734ZM258.615 73.4398C272.567 73.6467 284.906 62.231 284.906 47.2981C284.906 32.7648 273.337 21.2726 259.182 21.0883C244.245 20.8956 232.501 32.6146 232.512 47.3576C232.518 61.7605 244.214 73.4455 258.615 73.4398Z" fill="#545554"/>
<path d="M47.3121 94.5283C21.3475 94.6672 -0.443636 73.179 0.00686245 46.3996C0.431861 21.23 21.1463 -0.221302 47.7937 0.00259151C73.543 0.220817 94.6513 21.2838 94.6173 47.3575C94.5861 73.4879 73.1662 94.6473 47.3121 94.5283ZM47.2157 73.4398C61.0055 73.675 73.2937 62.452 73.5232 47.7373C73.7527 33.0085 62.0935 21.2867 47.8334 21.0855C32.9556 20.8757 21.1435 32.5834 21.1236 47.23C21.1066 61.7179 32.7544 73.4171 47.2157 73.4398Z" fill="#545554"/>
<path d="M76.424 120.806C76.424 122.677 76.424 124.409 76.424 126.201C52.1962 126.201 28.0393 126.201 3.80017 126.201C3.80017 124.387 3.80017 122.629 3.80017 120.806C28.0279 120.806 52.1849 120.806 76.424 120.806Z" fill="#545554"/>
<path d="M229.617 126.17C229.617 124.409 229.617 122.672 229.617 120.84C253.684 120.84 277.767 120.84 301.915 120.84C301.915 122.612 301.915 124.344 301.915 126.17C277.852 126.17 253.794 126.17 229.617 126.17Z" fill="#545554"/>
<path d="M98.0355 125.797C98.0355 128.248 98.0355 130.569 98.0355 132.947C96.786 132.947 95.6499 132.947 94.4514 132.947C94.4145 132.687 94.355 132.454 94.355 132.225C94.3522 125.873 94.3692 119.519 94.338 113.168C94.3352 112.346 94.5619 112.08 95.392 112.1C98.6022 112.171 101.821 112.071 105.023 112.241C108.332 112.417 110.743 114.415 111.307 117.139C112.041 120.67 110.536 123.518 107.213 124.901C107.029 124.978 106.844 125.046 106.536 125.165C108.366 127.744 110.148 130.258 112.083 132.987C110.553 132.987 109.253 133.015 107.955 132.959C107.728 132.947 107.479 132.604 107.306 132.366C105.887 130.382 104.501 128.37 103.053 126.406C102.83 126.103 102.354 125.848 101.98 125.825C100.73 125.752 99.4749 125.797 98.0355 125.797ZM98.1092 122.288C100.424 122.288 102.691 122.444 104.926 122.237C106.646 122.079 107.714 120.582 107.731 118.95C107.745 117.36 106.867 116.011 105.125 115.767C102.838 115.447 100.495 115.509 98.1064 115.404C98.1092 117.873 98.1092 120.12 98.1092 122.288Z" fill="#545554"/>
<path d="M131.241 120.801C131.241 121.994 131.241 122.994 131.241 124.102C127.779 124.102 124.37 124.102 120.815 124.102C120.815 125.902 120.792 127.602 120.854 129.297C120.86 129.456 121.415 129.719 121.716 129.722C124.999 129.756 128.283 129.748 131.57 129.751C131.913 129.751 132.256 129.751 132.689 129.751C132.689 130.825 132.689 131.819 132.689 132.908C127.586 132.908 122.444 132.908 117.236 132.908C117.236 125.998 117.236 119.103 117.236 112.182C122.367 112.182 127.45 112.182 132.647 112.182C132.647 113.114 132.649 113.979 132.647 114.84C132.644 115.58 132.08 115.413 131.661 115.413C128.445 115.421 125.232 115.453 122.016 115.396C121.064 115.379 120.721 115.625 120.783 116.615C120.868 117.964 120.806 119.321 120.806 120.801C124.314 120.801 127.717 120.801 131.241 120.801Z" fill="#545554"/>
<path d="M136.554 132.993C137.426 130.994 138.217 129.183 139.007 127.373C141.13 122.518 143.269 117.669 145.363 112.802C145.643 112.153 146.023 112.046 146.68 111.941C148.646 111.629 149.485 112.479 150.219 114.27C152.775 120.488 155.557 126.613 158.342 132.976C157.039 132.976 155.852 133.007 154.67 132.944C154.475 132.933 154.242 132.536 154.126 132.273C153.619 131.125 153.123 129.971 152.675 128.801C152.463 128.245 152.185 127.97 151.539 127.976C148.746 128.007 145.949 127.968 143.153 128.01C142.838 128.016 142.388 128.316 142.246 128.602C141.651 129.821 141.161 131.094 140.597 132.329C140.484 132.582 140.237 132.947 140.036 132.959C138.948 133.024 137.843 132.993 136.554 132.993ZM150.964 124.703C149.768 121.934 148.638 119.318 147.386 116.419C146.133 119.341 145.008 121.971 143.835 124.703C146.249 124.703 148.496 124.703 150.964 124.703Z" fill="#545554"/>
<path d="M210.212 132.947C208.914 132.947 207.781 132.947 206.503 132.947C206.503 131.261 206.364 129.617 206.537 128.007C206.784 125.706 206.013 123.853 204.715 122.019C202.585 119.001 200.618 115.866 198.59 112.777C198.496 112.635 198.44 112.474 198.278 112.142C199.698 112.142 201.004 112.097 202.301 112.179C202.571 112.196 202.862 112.652 203.061 112.958C204.809 115.688 206.537 118.431 208.37 121.33C209.427 119.698 210.419 118.167 211.405 116.634C212.232 115.345 213.028 114.033 213.884 112.76C214.071 112.482 214.439 112.171 214.743 112.154C215.918 112.083 217.1 112.125 218.463 112.125C218.199 112.564 218.038 112.859 217.854 113.137C215.491 116.716 213.108 120.279 210.782 123.884C210.447 124.4 210.257 125.094 210.24 125.715C210.175 128.078 210.212 130.453 210.212 132.947Z" fill="#545554"/>
<path d="M184.995 115.526C182.686 115.526 180.569 115.526 178.374 115.526C178.374 114.361 178.374 113.301 178.374 112.176C184.001 112.176 189.571 112.176 195.206 112.176C195.206 113.276 195.206 114.31 195.206 115.464C193.081 115.464 190.971 115.464 188.698 115.464C188.698 121.347 188.698 127.115 188.698 132.942C187.401 132.942 186.259 132.942 184.995 132.942C184.995 127.191 184.995 121.449 184.995 115.526Z" fill="#545554"/>
<path d="M163.163 112.176C164.367 112.176 165.504 112.176 166.776 112.176C166.776 117.978 166.776 123.751 166.776 129.629C170.49 129.629 174.071 129.629 177.726 129.629C177.726 130.762 177.726 131.788 177.726 132.91C172.896 132.91 168.068 132.91 163.16 132.91C163.163 126.015 163.163 119.128 163.163 112.176Z" fill="#545554"/>
</svg>
