<svg width="150" height="29" viewBox="0 0 150 29" fill="none" xmlns="http://www.w3.org/2000/svg">
<path d="M77.8501 15.8432C77.9049 15.5015 78.0073 15.1596 78.0069 14.8179C78.003 11.7954 77.9834 8.77303 77.9622 5.75054C77.9581 5.18607 78.0638 5.07997 78.62 5.09911C79.0359 5.1134 79.4541 5.11007 79.8694 5.08441C80.4068 5.05126 80.5746 5.19398 80.5736 5.71115C80.563 11.4975 80.5515 17.2838 80.5484 23.0702C80.5477 24.2723 80.5632 24.2695 79.3704 24.2627C78.9528 24.2603 78.5347 24.2693 78.1173 24.2846C77.7079 24.2996 77.4807 24.1266 77.3733 23.7217C76.5688 20.6841 75.7359 17.6538 74.9453 14.6126C74.6632 13.5273 74.4747 12.4181 74.2401 11.3205C74.2093 11.1764 74.1592 11.0363 73.9843 10.8741C73.932 10.9965 73.8407 11.117 73.8341 11.2419C73.8043 11.8092 73.7873 12.3779 73.7856 12.9459C73.7764 16.1934 73.7722 19.4407 73.7685 22.6881C73.7681 23.0332 73.7779 23.3785 73.7913 23.7235C73.8064 24.1118 73.6321 24.3018 73.2333 24.2947C72.7469 24.2861 72.2604 24.2928 71.774 24.2877C71.2812 24.2825 71.1159 24.0968 71.146 23.6193C71.1742 23.1719 71.204 22.7235 71.2044 22.2754C71.2086 17.3698 71.2086 12.464 71.205 7.55837C71.2045 6.93718 71.1881 6.31529 71.1566 5.69493C71.1354 5.27913 71.2957 5.08455 71.7259 5.08996C72.5778 5.1005 73.4301 5.10397 74.2819 5.08927C74.7224 5.08164 74.9558 5.28218 75.0637 5.69063C75.4788 7.26047 75.9294 8.82157 76.315 10.3983C76.7289 12.0906 77.0829 13.7972 77.4692 15.4963C77.497 15.6184 77.5739 15.7293 77.6282 15.8454C77.7019 15.8446 77.7761 15.8439 77.8501 15.8432Z" fill="#545554"/>
<path d="M122.332 24.2712C121.566 24.2712 120.8 24.2845 120.034 24.2672C119.365 24.252 119.239 24.0849 119.324 23.4463C119.352 23.2417 119.361 23.0334 119.361 22.8269C119.363 17.4025 119.363 11.9781 119.359 6.55374C119.359 6.27844 119.342 6.00106 119.305 5.72839C119.251 5.33396 119.41 5.11912 119.808 5.12023C121.409 5.12467 123.016 5.05935 124.611 5.1721C126.386 5.29762 127.781 6.15071 128.038 8.48043C128.181 9.78079 128.327 11.1122 127.769 12.3607C127.563 12.8205 127.203 13.2167 126.888 13.6222C126.681 13.8885 126.518 14.1391 126.933 14.3221C127.927 14.7605 128.377 15.6245 128.462 16.5819C128.589 18.0187 128.63 19.4808 128.514 20.917C128.357 22.866 126.642 24.2673 124.421 24.2863C123.725 24.2923 123.028 24.2873 122.332 24.2873C122.332 24.2816 122.332 24.2763 122.332 24.2712ZM122.324 18.527C122.323 18.527 122.323 18.527 122.322 18.527C122.322 19.3206 122.311 20.1144 122.325 20.9077C122.335 21.4799 122.524 21.6336 123.101 21.6092C123.362 21.5982 123.631 21.557 123.881 21.605C124.776 21.7767 125.661 20.8418 125.648 20.0395C125.632 19.1084 125.676 18.1755 125.633 17.246C125.59 16.2909 124.918 15.6622 123.954 15.5922C123.659 15.5708 123.363 15.5724 123.069 15.5498C122.499 15.5061 122.338 15.6302 122.328 16.1984C122.314 16.9744 122.324 17.7508 122.324 18.527ZM122.327 10.3536C122.329 10.3536 122.332 10.3536 122.334 10.3536C122.334 10.8011 122.37 11.2522 122.328 11.6958C122.206 12.9718 122.324 12.9307 123.621 12.9002C123.639 12.8998 123.656 12.899 123.673 12.8974C124.358 12.8404 124.987 12.2965 125.025 11.6198C125.073 10.7455 125.08 9.86373 125.017 8.99137C124.995 8.69346 124.749 8.37905 124.533 8.13467C124.127 7.67561 123.537 7.83316 123.014 7.77713C122.551 7.72762 122.327 7.93454 122.327 8.39111C122.327 9.04518 122.327 9.69938 122.327 10.3536Z" fill="#545554"/>
<path d="M91.9849 14.7233C91.9849 16.3286 92.0493 17.9374 91.9659 19.5385C91.8895 21.0072 91.7023 22.4838 90.3418 23.46C89.5807 24.0061 88.7264 24.2639 87.8033 24.2761C86.3942 24.2949 84.9845 24.285 83.5753 24.273C82.786 24.2663 82.6657 24.1162 82.7527 23.3554C82.7702 23.2016 82.7715 23.0453 82.7716 22.8902C82.7725 17.3828 82.7722 11.8754 82.772 6.368C82.772 6.28173 82.7734 6.19519 82.7695 6.10906C82.7228 5.09329 82.7224 5.10966 83.7856 5.12353C85.1078 5.14087 86.4317 5.08955 87.7523 5.1374C89.2661 5.19232 90.6866 5.62892 91.3457 7.09654C91.7438 7.98291 91.8804 9.02684 91.9395 10.0115C92.0335 11.5769 91.9646 13.1521 91.9646 14.7231C91.9713 14.7233 91.9782 14.7233 91.9849 14.7233ZM85.7765 14.6496C85.7742 14.6496 85.7722 14.6496 85.7699 14.6496C85.7699 16.6882 85.7716 18.727 85.769 20.7656C85.768 21.5015 85.9029 21.6298 86.6582 21.6014C86.9015 21.5922 87.1456 21.6003 87.3893 21.6062C87.9715 21.6202 88.4392 21.3381 88.6826 20.8707C88.8791 20.4936 88.9383 20.0113 88.9404 19.5751C88.9567 16.2926 88.9449 13.0098 88.9378 9.72709C88.9372 9.48618 88.9258 9.24181 88.8845 9.00506C88.7615 8.29968 88.177 7.81551 87.4598 7.80872C87.1988 7.80622 86.9367 7.82813 86.6768 7.81191C85.8576 7.76101 85.7755 7.83327 85.7759 8.63712C85.7773 10.6413 85.7765 12.6456 85.7765 14.6496Z" fill="#545554"/>
<path d="M108.273 13.1495C108.273 10.645 108.275 8.14056 108.27 5.63608C108.269 5.27895 108.383 5.08118 108.779 5.09075C109.422 5.10642 110.066 5.10961 110.709 5.1006C111.165 5.09422 111.307 5.31155 111.306 5.74315C111.293 10.6313 111.291 15.5196 111.285 20.4079C111.285 20.9683 111.427 21.4544 111.903 21.8213C112.572 22.3362 113.593 22.1963 113.971 21.4458C114.182 21.0292 114.328 20.5313 114.33 20.0691C114.355 15.6989 114.344 11.3285 114.337 6.95822C114.336 6.5452 114.31 6.12996 114.261 5.71985C114.217 5.34955 114.353 5.14581 114.725 5.12889C115.367 5.09963 116.01 5.06911 116.652 5.073C117.092 5.07563 117.166 5.38602 117.166 5.7573C117.158 10.4729 117.172 15.1887 117.138 19.904C117.133 20.6491 116.989 21.4139 116.781 22.1326C116.301 23.7828 115.118 24.6557 113.413 24.745C112.625 24.7862 111.791 24.763 111.04 24.551C109.499 24.1158 108.714 22.9319 108.391 21.4331C108.298 20.9984 108.285 20.5409 108.283 20.0936C108.273 17.779 108.278 15.4643 108.278 13.1495C108.277 13.1495 108.275 13.1495 108.273 13.1495Z" fill="#545554"/>
<path d="M97.8229 14.7002C97.8229 12.8346 97.8426 10.9686 97.815 9.10351C97.8001 8.098 98.0935 7.2004 98.5909 6.34842C99.1965 5.31129 100.126 4.76152 101.307 4.65917C102.384 4.56569 103.465 4.51784 104.445 5.13696C105.338 5.70143 105.993 6.46506 106.163 7.49816C106.341 8.583 106.374 9.6917 106.455 10.7912C106.489 11.2417 106.222 11.4662 105.792 11.4832C105.22 11.5056 104.645 11.5173 104.073 11.4997C103.604 11.4852 103.535 11.1338 103.539 10.7622C103.546 10.1406 103.549 9.51847 103.58 8.89783C103.613 8.23114 103.26 7.78109 102.761 7.42535C102.164 7.00013 101.208 7.4051 100.972 8.19287C100.879 8.50131 100.857 8.83972 100.856 9.16467C100.849 12.8441 100.841 16.5236 100.867 20.2028C100.87 20.6635 100.962 21.1875 101.2 21.5661C101.476 22.0044 101.987 22.2867 102.564 22.0546C103.179 21.8072 103.544 21.3241 103.568 20.6612C103.596 19.8505 103.567 19.0378 103.566 18.2259C103.565 18.0364 103.56 17.8445 103.587 17.6581C103.63 17.3575 103.81 17.2151 104.129 17.2248C104.685 17.2416 105.242 17.2462 105.798 17.2403C106.209 17.236 106.43 17.4249 106.422 17.8276C106.4 18.9142 106.423 20.0063 106.319 21.0858C106.066 23.7288 104.104 25.011 101.598 24.7669C99.4629 24.559 97.9307 23.0147 97.8607 20.8664C97.7938 18.8131 97.8462 16.7559 97.8462 14.7004C97.8383 14.7004 97.8306 14.7004 97.8229 14.7002Z" fill="#545554"/>
<path d="M147.699 10.1695C147.251 10.1695 146.937 10.1844 146.625 10.1657C146.249 10.1432 146.092 9.94514 146.09 9.55209C146.088 9.09316 146.048 8.62439 145.943 8.17864C145.82 7.65744 145.399 7.38907 144.894 7.28228C144.384 7.17452 143.959 7.36313 143.656 7.77144C143.075 8.55671 143.108 9.40646 143.419 10.2848C143.802 11.368 144.487 12.2247 145.286 13.0467C146.309 14.0981 147.36 15.1689 148.14 16.3938C149.291 18.2004 149.331 20.2428 148.615 22.2328C148.089 23.6942 146.963 24.5673 145.378 24.7358C144.076 24.8742 142.777 24.8234 141.703 23.9546C140.832 23.2506 140.347 22.3034 140.25 21.1803C140.202 20.6301 140.156 20.0793 140.13 19.5277C140.114 19.1686 140.249 18.9315 140.677 18.9502C141.232 18.9745 141.788 18.9718 142.344 18.9758C142.867 18.9796 143.005 19.1396 143.022 19.6655C143.038 20.1608 143.039 20.6715 143.165 21.1447C143.337 21.7946 143.982 22.179 144.595 22.1093C145.292 22.0301 145.838 21.4734 145.947 20.8072C146.273 18.8188 145.342 17.3473 144.007 16.0235C142.976 14.9996 141.854 14.048 141.145 12.7486C140.108 10.8484 139.903 8.85087 140.747 6.85983C141.289 5.58346 142.35 4.75561 143.8 4.65936C144.606 4.60583 145.458 4.6068 146.229 4.80942C147.716 5.19984 148.518 6.32018 148.838 7.76617C148.964 8.33439 148.992 8.93089 149.003 9.51561C149.015 10.1132 148.837 10.2419 148.241 10.2001C148.016 10.184 147.79 10.1745 147.699 10.1695Z" fill="#545554"/>
<path d="M41.2104 19.0223C41.5108 19.0069 41.7714 18.9847 42.0322 18.9822C42.5597 18.9772 42.6818 19.1347 42.7054 19.6676C42.728 20.179 42.742 20.7069 42.8821 21.1927C43.0654 21.828 43.6878 22.1777 44.2928 22.109C44.9676 22.0323 45.5569 21.5 45.6419 20.8605C45.8436 19.3438 45.5261 17.9795 44.4256 16.8464C43.7257 16.1256 43.0597 15.3711 42.339 14.6717C40.9804 13.3531 40.0996 11.7908 39.9691 9.90271C39.8329 7.93178 40.3637 5.84435 42.214 5.03453C44.6188 3.98187 48.2288 4.55064 48.6299 8.32539C48.6755 8.75408 48.7 9.18624 48.7062 9.61715C48.7123 10.0417 48.4961 10.2406 48.0486 10.2131C47.5456 10.1823 47.0403 10.1935 46.5361 10.1806C45.8945 10.1641 45.8015 10.0338 45.8013 9.40565C45.8011 8.9979 45.7732 8.56976 45.6476 8.18628C45.3103 7.15609 44.043 6.92045 43.3649 7.76605C42.7521 8.53023 42.807 9.40329 43.1195 10.2751C43.5111 11.3667 44.1616 12.2735 45.0067 13.0832C45.868 13.9084 46.7107 14.7749 47.4255 15.7243C48.928 17.72 49.0948 19.9748 48.3033 22.2685C47.8488 23.5852 46.8418 24.497 45.4014 24.6594C44.4851 24.7627 43.5099 24.7513 42.615 24.5525C41.0604 24.207 40.3433 22.9873 40.0217 21.5423C39.8803 20.9073 39.8636 20.2413 39.831 19.5873C39.8037 19.0415 39.9671 18.92 40.5202 18.9706C40.763 18.9925 41.0062 19.0071 41.2104 19.0223Z" fill="#545554"/>
<path d="M53.4156 20.4921C53.4156 21.5618 53.4107 22.6317 53.4183 23.7013C53.4209 24.0801 53.2722 24.2953 52.8714 24.2916C52.2456 24.2856 51.6193 24.2924 50.9943 24.2662C50.4261 24.2423 50.2937 24.067 50.3558 23.5175C50.3752 23.3464 50.3943 23.174 50.3943 23.002C50.3961 17.4264 50.3981 11.8507 50.3931 6.27509C50.3919 5.10648 50.3793 5.11661 51.5985 5.12923C52.7118 5.14088 53.8252 5.13256 54.9386 5.12327C56.313 5.11175 57.4979 5.55404 58.2761 6.70295C58.653 7.25952 59.002 7.93674 59.0569 8.58498C59.179 10.0233 59.2171 11.4872 59.0916 12.9236C58.8506 15.6823 56.5245 16.8457 54.3385 16.6296C53.4513 16.5419 53.3547 16.6394 53.3621 17.54C53.3703 18.5238 53.3639 19.5077 53.3639 20.4916C53.3813 20.4921 53.3985 20.4921 53.4156 20.4921ZM53.3617 10.9488C53.3671 10.9488 53.3727 10.9488 53.3781 10.9488C53.3781 11.5182 53.4245 12.0919 53.3691 12.6558C53.2249 14.1235 53.4895 13.9419 54.6488 13.9332C55.6066 13.926 56.1 13.4583 56.1148 12.5015C56.1316 11.3979 56.1213 10.2932 56.0939 9.18981C56.07 8.23479 55.6374 7.83536 54.6573 7.80041C54.4836 7.79417 54.3098 7.79015 54.1362 7.78183C53.5142 7.75187 53.3705 7.87974 53.3638 8.51661C53.3553 9.32739 53.3617 10.1382 53.3617 10.9488Z" fill="#545554"/>
<path d="M65.5079 24.2723C64.3591 24.2723 63.2102 24.281 62.0617 24.269C61.3705 24.2618 61.2705 24.1281 61.3486 23.469C61.379 23.2127 61.386 22.9524 61.3861 22.6939C61.3877 17.3228 61.3871 11.9516 61.3847 6.58051C61.3846 6.32199 61.3729 6.0625 61.3486 5.80523C61.2936 5.21843 61.3903 5.11469 62.0051 5.11705C63.9022 5.12426 65.7994 5.13286 67.6965 5.13327C68.1133 5.13341 68.5306 5.10845 68.947 5.08307C69.4534 5.05214 69.6209 5.19721 69.6217 5.69039C69.6225 6.17331 69.6234 6.65624 69.6238 7.13916C69.6243 7.71153 69.4317 7.86811 68.8699 7.85147C67.5318 7.81181 66.1928 7.79766 64.8542 7.7738C64.432 7.76631 64.3862 8.06006 64.3846 8.37156C64.3793 9.33865 64.3818 10.3059 64.3809 11.273C64.3807 11.532 64.3864 11.7913 64.3772 12.0501C64.3479 12.8793 64.3755 12.9058 65.188 12.9023C66.093 12.8984 66.9983 12.9148 67.903 12.9008C68.3259 12.8941 68.5084 13.0551 68.4881 13.4827C68.4659 13.9479 68.4828 14.4149 68.4797 14.881C68.4759 15.4598 68.3548 15.6136 67.791 15.6136C66.8699 15.6136 65.9471 15.6004 65.0281 15.5449C64.6005 15.5191 64.3911 15.648 64.3897 16.0686C64.3843 17.7264 64.3808 19.3843 64.3826 21.0422C64.383 21.4462 64.5888 21.6284 65.0094 21.613C66.3468 21.564 67.6848 21.5343 69.0225 21.492C69.3959 21.4802 69.585 21.6841 69.6014 22.0171C69.6308 22.6195 69.6331 23.2241 69.6224 23.8272C69.6156 24.2145 69.3376 24.2935 69.0057 24.2924C67.8398 24.2888 66.6739 24.291 65.508 24.291C65.5079 24.2844 65.5079 24.2783 65.5079 24.2723Z" fill="#545554"/>
<path d="M134.974 24.272C133.86 24.272 132.747 24.283 131.633 24.2683C130.836 24.2577 130.724 24.1159 130.809 23.3489C130.824 23.212 130.826 23.0733 130.826 22.9353C130.828 17.4102 130.828 11.885 130.828 6.35971C130.828 6.32518 130.833 6.28981 130.827 6.25625C130.598 4.94965 131.039 5.12564 131.958 5.12523C134.132 5.12454 136.306 5.09763 138.48 5.07045C138.87 5.06559 139.078 5.22037 139.083 5.60676C139.091 6.15833 139.096 6.71032 139.083 7.26162C139.072 7.75383 138.898 7.86908 138.392 7.85508C137.036 7.81749 135.68 7.7996 134.324 7.77866C133.909 7.77228 133.854 8.0645 133.854 8.37933C133.854 9.24254 133.866 10.1059 133.862 10.9691C133.861 11.3828 133.84 11.7968 133.815 12.2098C133.781 12.7479 133.91 12.9029 134.452 12.9055C135.392 12.9102 136.332 12.9036 137.271 12.903C137.896 12.9026 137.986 13.0137 137.958 13.6397C137.939 14.0697 137.963 14.5015 137.965 14.9326C137.967 15.3681 137.768 15.6255 137.308 15.6177C136.386 15.6023 135.464 15.5933 134.544 15.551C134.019 15.5269 133.86 15.6123 133.856 16.1271C133.842 17.75 133.839 19.3729 133.848 20.9956C133.85 21.4975 134.045 21.6261 134.589 21.6072C135.909 21.5616 137.229 21.5284 138.549 21.491C138.906 21.4809 139.06 21.704 139.072 22.01C139.094 22.6127 139.094 23.217 139.081 23.8203C139.073 24.2018 138.811 24.293 138.471 24.291C137.305 24.2844 136.14 24.2885 134.974 24.2885C134.974 24.2833 134.974 24.2776 134.974 24.272Z" fill="#545554"/>
<path d="M33.6463 20.2438C33.6463 20.7101 33.6409 21.1764 33.6478 21.6425C33.6545 22.081 33.4762 22.3968 33.0876 22.6193C32.1987 23.1279 31.3251 23.6628 30.4309 24.162C30.2713 24.2511 30.0094 24.2915 29.8577 24.2209C29.7403 24.1663 29.6688 23.9037 29.6674 23.7327C29.659 22.7321 29.6915 21.731 29.6798 20.7305C29.6751 20.3249 29.8736 20.0856 30.1898 19.8976C31.1143 19.3481 32.0384 18.7978 32.966 18.2535C33.3399 18.0341 33.5985 18.1757 33.6195 18.6376C33.6439 19.172 33.6252 19.7083 33.6252 20.2438C33.6322 20.2438 33.6393 20.2438 33.6463 20.2438Z" fill="#545554"/>
<path d="M29.693 12.2483C29.693 11.8344 29.7217 11.4179 29.6853 11.0069C29.6451 10.5524 29.8215 10.2418 30.1969 10.0143C31.1301 9.44887 32.0613 8.87983 32.9964 8.31757C33.3392 8.11148 33.6078 8.28637 33.6233 8.75639C33.6448 9.41129 33.625 10.0674 33.6308 10.723C33.6456 12.3529 33.8925 12.1205 32.2892 13.0387C31.7172 13.3663 31.1603 13.7215 30.5778 14.029C30.3666 14.1405 30.0279 14.265 29.8798 14.1734C29.7277 14.0792 29.6945 13.7294 29.6856 13.4888C29.6704 13.0767 29.7148 12.6623 29.7341 12.249C29.7204 12.2489 29.7066 12.2486 29.693 12.2483Z" fill="#545554"/>
<path d="M19.5545 16.9724C19.5545 17.4549 19.5768 17.939 19.5439 18.4193C19.5301 18.6204 19.4495 18.8843 19.3043 18.9865C19.2003 19.0596 18.9163 18.9492 18.75 18.8554C17.9508 18.405 17.1742 17.9143 16.3695 17.4739C15.8646 17.1977 15.6733 16.8372 15.7118 16.256C15.7652 15.4499 15.7016 14.6368 15.7221 13.8274C15.7287 13.5695 15.8431 13.3145 15.9082 13.0582C16.161 13.1246 16.4378 13.1462 16.6619 13.2655C17.3954 13.6562 18.0987 14.1031 18.8352 14.4879C19.3386 14.751 19.5997 15.0928 19.5426 15.6798C19.5012 16.107 19.5346 16.5412 19.5346 16.9724C19.5411 16.9726 19.5478 16.9724 19.5545 16.9724Z" fill="#545554"/>
<path d="M19.4929 26.9304C19.5158 27.413 19.5654 27.8966 19.5483 28.3779C19.5412 28.5746 19.4365 28.8354 19.2866 28.936C19.1856 29.0038 18.9108 28.8722 18.7436 28.7779C17.9587 28.335 17.1982 27.8477 16.4007 27.4295C15.9037 27.1689 15.6963 26.8212 15.7117 26.2719C15.7356 25.4268 15.6992 24.5803 15.7209 23.7352C15.7267 23.5148 15.7937 23.2241 15.9445 23.104C16.0501 23.02 16.3713 23.1255 16.5522 23.225C17.3891 23.685 18.2039 24.1844 19.0404 24.6448C19.409 24.8475 19.5526 25.1299 19.5427 25.5307C19.5311 25.9967 19.5401 26.4631 19.5401 26.9293C19.5243 26.9297 19.5087 26.9301 19.4929 26.9304Z" fill="#545554"/>
<path d="M24.823 15.3465C24.823 15.7948 24.8085 16.2437 24.8274 16.6912C24.8439 17.0812 24.6868 17.3467 24.3522 17.5395C23.4961 18.0327 22.6516 18.5461 21.788 19.0259C21.6104 19.1245 21.315 19.2053 21.1741 19.1238C21.0372 19.0447 20.9779 18.7474 20.9735 18.5441C20.9551 17.7008 20.9939 16.8559 20.9644 16.0134C20.946 15.4913 21.0932 15.1513 21.5873 14.8882C22.4244 14.4423 23.2124 13.9064 24.0328 13.4282C24.1803 13.3422 24.4206 13.2753 24.5514 13.3378C24.6809 13.3995 24.7871 13.6319 24.797 13.7957C24.8278 14.3111 24.8083 14.8295 24.8083 15.3467C24.8129 15.3467 24.8179 15.3467 24.823 15.3465Z" fill="#545554"/>
<path d="M10.8388 11.8505C10.8388 12.3852 10.8609 12.9212 10.8283 13.4538C10.8149 13.6733 10.7414 13.9618 10.5875 14.0758C10.4774 14.1575 10.1648 14.043 9.98277 13.9435C9.31418 13.5779 8.67348 13.1617 8.00141 12.8029C7.18883 12.3691 7.07521 12.1681 7.10309 11.2573C7.12777 10.4471 7.08427 9.63509 7.09571 8.82416C7.09835 8.6361 7.15272 8.33999 7.26996 8.28868C7.43265 8.21739 7.70644 8.27786 7.88195 8.37342C8.65926 8.7967 9.40549 9.27726 10.1891 9.68793C10.6734 9.94173 10.867 10.29 10.8306 10.8149C10.8068 11.1586 10.8262 11.5053 10.8262 11.8507C10.8303 11.8507 10.8345 11.8505 10.8388 11.8505Z" fill="#545554"/>
<path d="M7.1533 14.6257C7.1533 15.1604 7.17533 15.6964 7.14271 16.229C7.12932 16.4486 7.05586 16.737 6.90196 16.851C6.79183 16.9327 6.47928 16.8182 6.29722 16.7187C5.62864 16.3531 4.98794 15.9369 4.31587 15.5781C3.50328 15.1443 3.38967 14.9433 3.41755 14.0326C3.44222 13.2223 3.39873 12.4103 3.41016 11.5994C3.41281 11.4113 3.46717 11.1152 3.58441 11.0639C3.7471 10.9926 4.02089 11.0531 4.1964 11.1486C4.97372 11.5719 5.71995 12.0525 6.50354 12.4631C6.98783 12.7169 7.18146 13.0652 7.14508 13.5901C7.12124 13.9338 7.14062 14.2805 7.14062 14.6259C7.1448 14.6259 7.14898 14.6257 7.1533 14.6257Z" fill="#545554"/>
<path d="M3.7451 18.1837C3.7451 18.7183 3.76712 19.2543 3.7345 19.7869C3.72112 20.0065 3.64766 20.2949 3.49375 20.4089C3.38362 20.4906 3.07108 20.3761 2.88902 20.2766C2.22043 19.911 1.57973 19.4948 0.907665 19.136C0.0950773 18.7022 -0.0185373 18.5013 0.00934358 17.5905C0.0340181 16.7802 -0.00947599 15.9682 0.00195516 15.1573C0.00460384 14.9692 0.0589715 14.6731 0.17621 14.6218C0.338895 14.5505 0.612685 14.611 0.788195 14.7065C1.56551 15.1298 2.31174 15.6104 3.09534 16.021C3.57963 16.2749 3.77326 16.6231 3.73687 17.148C3.71304 17.4917 3.73241 17.8385 3.73241 18.1838C3.7366 18.1837 3.74092 18.1837 3.7451 18.1837Z" fill="#545554"/>
<path d="M7.16107 20.2067C7.13194 19.7243 7.09973 19.2421 7.07464 18.7596C7.04662 18.2238 7.2666 18.0621 7.72245 18.3119C8.61994 18.8038 9.52384 19.2891 10.3828 19.8417C10.6145 19.9907 10.8077 20.3651 10.8243 20.6473C10.8816 21.628 10.8565 22.6137 10.8564 23.5974C10.8564 24.0925 10.5797 24.2517 10.1447 24.0007C9.30302 23.515 8.47175 23.0113 7.62766 22.5296C7.21642 22.295 7.05234 21.9765 7.09764 21.5023C7.13849 21.0745 7.10629 20.6398 7.10629 20.2082C7.12441 20.2077 7.14267 20.2071 7.16107 20.2067Z" fill="#545554"/>
<path d="M24.8232 25.2912C24.8232 25.7735 24.8071 26.2565 24.8285 26.7379C24.845 27.1081 24.7077 27.3647 24.3898 27.5493C23.626 27.9927 22.8717 28.4521 22.104 28.8883C21.6498 29.1463 21.2182 28.8851 21.2067 28.3684C21.1862 27.4561 21.1686 26.5438 21.1413 25.6316C21.1299 25.2519 21.2641 24.9743 21.6054 24.7764C22.4286 24.2989 23.2416 23.8043 24.0583 23.316C24.4944 23.0553 24.7983 23.2234 24.8067 23.741C24.8149 24.2577 24.8085 24.7746 24.8085 25.2915C24.8132 25.2912 24.8182 25.2912 24.8232 25.2912Z" fill="#545554"/>
<path d="M19.5543 21.9858C19.5543 22.4503 19.5753 22.9159 19.5483 23.3788C19.5218 23.8335 19.2191 23.9706 18.8277 23.74C18.0092 23.2579 17.1994 22.76 16.3666 22.3036C15.8803 22.037 15.6855 21.681 15.7124 21.1303C15.7467 20.4268 15.6961 19.7198 15.7123 19.0149C15.717 18.8083 15.7684 18.4893 15.8985 18.4269C16.0678 18.3458 16.3671 18.4128 16.5573 18.5141C17.3822 18.9534 18.1814 19.4399 19.003 19.8855C19.4038 20.1028 19.5725 20.4035 19.5459 20.8502C19.5234 21.2276 19.5413 21.6074 19.5413 21.986C19.5457 21.986 19.5501 21.986 19.5543 21.9858Z" fill="#545554"/>
<path d="M29.7392 17.0858C29.3178 15.9018 29.9767 15.1871 31.1481 14.6809C31.7923 14.4026 32.3605 13.9515 32.9642 13.5806C33.324 13.3593 33.5883 13.4641 33.6057 13.893C33.6426 14.8042 33.6545 15.7186 33.6145 16.629C33.6053 16.8381 33.3882 17.1038 33.1924 17.228C32.2861 17.8027 31.3598 18.3473 30.428 18.881C29.9434 19.1585 29.6554 18.9724 29.6746 18.4261C29.6884 18.0304 29.7123 17.6349 29.7392 17.0858Z" fill="#545554"/>
<path d="M28.856 22.705C28.8808 23.2558 28.9043 23.8065 28.9308 24.3571C28.9508 24.7743 28.8008 25.0696 28.4077 25.2801C27.705 25.6562 27.0266 26.0774 26.3385 26.4805C25.8343 26.7757 25.5743 26.6454 25.5753 26.0833C25.5771 25.0507 25.5597 24.0164 25.6185 22.9867C25.6331 22.7311 25.8527 22.4096 26.0749 22.2578C26.7448 21.7995 27.4627 21.4104 28.1611 20.9932C28.6089 20.7258 28.8535 20.8419 28.8778 21.3606C28.8987 21.8077 28.8821 22.2564 28.8821 22.7045C28.8733 22.7045 28.8647 22.7048 28.856 22.705Z" fill="#545554"/>
<path d="M24.7772 20.3526C24.7772 20.4734 24.7504 20.6013 24.7814 20.7136C25.0667 21.7498 24.5375 22.3123 23.6617 22.728C23.0519 23.0173 22.4896 23.404 21.8847 23.7049C21.6923 23.8006 21.3885 23.8422 21.216 23.754C21.0938 23.6916 21.0722 23.3705 21.0653 23.1629C21.0448 22.5438 21.0867 21.9212 21.0416 21.3046C20.9988 20.7217 21.1647 20.337 21.7156 20.0481C22.5261 19.623 23.2861 19.1037 24.0776 18.6415C24.2118 18.5631 24.4419 18.4936 24.5455 18.5555C24.6771 18.6343 24.7851 18.8466 24.7974 19.0091C24.8308 19.4548 24.809 19.9045 24.809 20.3526C24.7982 20.3528 24.7878 20.3526 24.7772 20.3526Z" fill="#545554"/>
<path d="M28.8502 12.7221C28.8785 13.2562 28.9566 13.794 28.9155 14.3227C28.8932 14.6099 28.7425 14.9865 28.521 15.1411C27.7983 15.6455 27.0218 16.0756 26.2549 16.5154C25.901 16.7184 25.5865 16.5298 25.584 16.1092C25.5777 15.092 25.5636 14.0728 25.6268 13.059C25.6425 12.8067 25.8887 12.4988 26.1167 12.3423C26.7869 11.8823 27.5037 11.4895 28.1973 11.0625C28.5918 10.8197 28.8313 10.9123 28.8646 11.3752C28.8967 11.8217 28.8716 12.2723 28.8716 12.7211C28.8645 12.7214 28.8573 12.7217 28.8502 12.7221Z" fill="#545554"/>
<path d="M28.9556 8.67432C28.7873 8.59749 28.6271 8.5366 28.4788 8.45436C27.691 8.01762 26.9073 7.5734 26.1198 7.13597C25.7204 6.9142 25.7019 6.58259 26.0992 6.35167C26.9218 5.87374 27.7439 5.39346 28.5868 4.95284C28.7679 4.85825 29.0777 4.84632 29.2574 4.93606C30.1091 5.36142 30.9418 5.82603 31.7675 6.30036C31.9104 6.38246 32.058 6.57233 32.0708 6.72364C32.0806 6.83903 31.9041 7.01003 31.7703 7.09061C30.9988 7.55509 30.2166 8.00209 29.435 8.44978C29.2879 8.53411 29.127 8.59485 28.9556 8.67432Z" fill="#545554"/>
<path d="M14.9225 14.3803C14.9225 14.9151 14.9405 15.4506 14.917 15.9843C14.8968 16.444 14.6619 16.5736 14.2575 16.344C13.5792 15.9592 12.9159 15.5481 12.2487 15.144C11.8493 14.9019 11.74 14.558 11.7651 14.0894C11.8092 13.2655 11.7534 12.4369 11.7721 11.611C11.7778 11.361 11.8195 11.0294 11.9804 10.8938C12.0909 10.8006 12.4591 10.9369 12.6712 11.0476C13.2236 11.3358 13.7428 11.6863 14.2954 11.9739C14.7641 12.2179 15.0017 12.541 14.949 13.0879C14.9078 13.515 14.9407 13.9491 14.9407 14.3802C14.9346 14.3802 14.9286 14.3802 14.9225 14.3803Z" fill="#545554"/>
<path d="M20.2737 3.73718C20.1157 3.66631 19.9381 3.60043 19.7739 3.51042C19.0444 3.11071 18.3121 2.71503 17.5964 2.29202C17.4343 2.19619 17.274 2.012 17.2316 1.83975C17.2117 1.75889 17.4588 1.58498 17.6104 1.49566C18.3567 1.05559 19.1226 0.647011 19.8587 0.191135C20.1878 -0.0127399 20.4574 -0.0836108 20.8142 0.129002C21.5884 0.590287 22.3843 1.01593 23.1705 1.45738C23.5801 1.68747 23.6085 1.89134 23.2171 2.12712C22.3707 2.63694 21.5074 3.11889 20.6476 3.60639C20.5448 3.66464 20.4212 3.68669 20.2737 3.73718Z" fill="#545554"/>
<path d="M20.612 13.4186C20.4954 13.3996 20.3786 13.4088 20.2926 13.362C19.3936 12.8741 18.4916 12.3904 17.6088 11.8749C17.3428 11.7195 17.3464 11.4732 17.6374 11.3043C18.4172 10.8513 19.1935 10.3913 19.9904 9.96966C20.1412 9.88977 20.4129 9.91113 20.5732 9.99296C21.4371 10.4339 22.2855 10.905 23.1348 11.3736C23.4664 11.5567 23.5222 11.8943 23.2209 12.0764C22.4801 12.5243 21.7166 12.9354 20.9563 13.3508C20.8555 13.4057 20.7204 13.3988 20.612 13.4186Z" fill="#545554"/>
<path d="M28.845 17.6685C28.874 18.1329 28.8962 18.5979 28.9338 19.0615C28.9649 19.4439 28.8319 19.7326 28.4975 19.9322C27.7842 20.3581 27.0763 20.7931 26.3601 21.2146C25.9069 21.4813 25.5763 21.2803 25.5788 20.7483C25.5827 19.9396 25.5554 19.1282 25.6186 18.324C25.6393 18.0625 25.8434 17.7352 26.0647 17.5843C26.7354 17.1276 27.456 16.7428 28.1568 16.3295C28.6271 16.0519 28.8585 16.179 28.8839 16.7367C28.8909 16.891 28.8698 17.0466 28.8665 17.2017C28.8631 17.3569 28.8658 17.5121 28.8658 17.6674C28.859 17.6678 28.852 17.6682 28.845 17.6685Z" fill="#545554"/>
<path d="M24.7312 11.0754C24.466 10.9474 24.1961 10.8326 23.9411 10.6912C23.2895 10.3301 22.6368 9.96964 22.0025 9.5802C21.8475 9.48505 21.6825 9.28506 21.6702 9.12224C21.6611 9.00324 21.8743 8.83238 22.0239 8.74306C22.5886 8.40604 23.1822 8.11507 23.7367 7.76321C24.1367 7.50954 24.4883 7.49027 24.8992 7.7259C25.636 8.14849 26.3974 8.52892 27.1329 8.95373C27.2936 9.04651 27.4652 9.24165 27.4871 9.40836C27.5022 9.52305 27.29 9.70696 27.1407 9.79628C26.5305 10.161 25.908 10.5055 25.2844 10.8475C25.1209 10.9374 24.9374 10.9918 24.7312 11.0754Z" fill="#545554"/>
<path d="M11.7255 5.04881C11.828 5.08764 11.9644 5.12079 12.0818 5.18708C12.866 5.62923 13.6486 6.07428 14.4267 6.52711C14.8855 6.79409 14.884 7.00199 14.4382 7.2569C13.7315 7.66104 13.0373 8.0896 12.3106 8.45449C12.1079 8.55629 11.765 8.55809 11.563 8.45616C10.7447 8.04355 9.95674 7.57159 9.15642 7.12389C8.84862 6.95178 8.71953 6.70463 9.05744 6.49313C9.83351 6.00757 10.6405 5.5707 11.438 5.11954C11.51 5.0789 11.6045 5.07724 11.7255 5.04881Z" fill="#545554"/>
<path d="M14.9407 19.4655C14.9407 19.8791 14.9648 20.2946 14.9297 20.7053C14.9141 20.8882 14.8232 21.1291 14.6849 21.2168C14.5754 21.2861 14.3189 21.201 14.1663 21.1161C13.5468 20.772 12.95 20.3877 12.3294 20.0457C11.8934 19.8055 11.7432 19.4685 11.7635 18.9825C11.7943 18.2451 11.7593 17.505 11.7723 16.7665C11.7756 16.5732 11.797 16.2714 11.9099 16.2146C12.0684 16.135 12.3515 16.1795 12.5262 16.2727C13.2137 16.6397 13.9024 17.0143 14.541 17.4568C14.753 17.6036 14.8863 17.9515 14.9305 18.227C14.9952 18.6305 14.9471 19.0518 14.9471 19.4655C14.945 19.4655 14.9429 19.4655 14.9407 19.4655Z" fill="#545554"/>
<path d="M12.7127 4.2225C12.5454 4.14913 12.349 4.08173 12.1714 3.98159C11.4779 3.59034 10.7846 3.19771 10.1043 2.78455C9.94108 2.68539 9.82774 2.50509 9.69141 2.3621C9.83792 2.22951 9.96729 2.06863 10.134 1.96961C10.7587 1.59847 11.4098 1.26991 12.022 0.880192C12.3646 0.66217 12.6363 0.669659 12.9777 0.867293C13.7262 1.30042 14.4943 1.69999 15.2559 2.11079C15.6284 2.31162 15.6896 2.62436 15.3572 2.82436C14.6156 3.27052 13.8556 3.68715 13.0989 4.10808C12.9965 4.16494 12.8691 4.1777 12.7127 4.2225Z" fill="#545554"/>
<path d="M24.9719 2.52351C25.1563 2.61948 25.3088 2.69756 25.46 2.77786C26.0262 3.07868 26.5969 3.37146 27.1542 3.68768C27.29 3.76465 27.4592 3.91277 27.4704 4.04023C27.4813 4.16616 27.3424 4.36019 27.2157 4.43355C26.3752 4.92008 25.5295 5.39981 24.6632 5.83863C24.4671 5.93793 24.1441 5.95152 23.9479 5.85999C23.3516 5.58191 22.7789 5.24878 22.2183 4.90274C22.047 4.79692 21.869 4.59235 21.8406 4.41053C21.8244 4.30707 22.0888 4.13107 22.2544 4.03426C22.9879 3.60571 23.7305 3.19255 24.4715 2.77717C24.6327 2.68675 24.8015 2.60936 24.9719 2.52351Z" fill="#545554"/>
<path d="M16.2659 7.6408C16.4177 7.69988 16.6014 7.75314 16.7677 7.83954C17.2593 8.09501 17.7522 8.35006 18.2267 8.63466C18.3883 8.7316 18.5766 8.90302 18.603 9.06446C18.6228 9.18609 18.4326 9.39316 18.2864 9.48095C17.6182 9.8819 16.9482 10.2876 16.2443 10.6186C16.0045 10.7314 15.6236 10.719 15.3756 10.6102C14.8071 10.3608 14.2787 10.0207 13.7382 9.71006C13.3799 9.50397 13.3451 9.25142 13.6883 9.03908C14.4383 8.57544 15.2114 8.14855 15.9783 7.71223C16.0501 7.67131 16.1443 7.66965 16.2659 7.6408Z" fill="#545554"/>
<path d="M20.041 8.38843C19.873 8.32561 19.718 8.28885 19.5845 8.21424C19.009 7.89234 18.4381 7.56211 17.8689 7.22953C17.5158 7.02316 17.5461 6.82192 17.8851 6.62443C18.5897 6.21376 19.2799 5.77647 20.0018 5.3991C20.1938 5.29868 20.5155 5.29702 20.7161 5.38634C21.3012 5.64652 21.8641 5.96065 22.4156 6.28699C22.5734 6.38033 22.7233 6.57394 22.7612 6.74661C22.7838 6.84938 22.6076 7.04521 22.4753 7.12288C21.8475 7.49152 21.2066 7.83825 20.5647 8.18248C20.4002 8.27055 20.2153 8.32117 20.041 8.38843Z" fill="#545554"/>
</svg>
